%TF.GenerationSoftware,KiCad,Pcbnew,(6.0.9)*%
%TF.CreationDate,2022-12-12T18:33:39+01:00*%
%TF.ProjectId,hldi,686c6469-2e6b-4696-9361-645f70636258,rev?*%
%TF.SameCoordinates,Original*%
%TF.FileFunction,Profile,NP*%
%FSLAX46Y46*%
G04 Gerber Fmt 4.6, Leading zero omitted, Abs format (unit mm)*
G04 Created by KiCad (PCBNEW (6.0.9)) date 2022-12-12 18:33:39*
%MOMM*%
%LPD*%
G01*
G04 APERTURE LIST*
%TA.AperFunction,Profile*%
%ADD10C,0.100000*%
%TD*%
G04 APERTURE END LIST*
D10*
X160020000Y-154584400D02*
X160020000Y-129184400D01*
X124460000Y-129184400D02*
X124460000Y-154584400D01*
X124460000Y-154584400D02*
G75*
G03*
X127000000Y-157124400I2539997J-3D01*
G01*
X157480000Y-126644400D02*
X127000000Y-126644400D01*
X127000000Y-126644400D02*
G75*
G03*
X124460000Y-129184400I-8J-2539992D01*
G01*
X157480000Y-157124400D02*
G75*
G03*
X160020000Y-154584400I-6J2540006D01*
G01*
X160020000Y-129184400D02*
G75*
G03*
X157480000Y-126644400I-2540002J-2D01*
G01*
X127000000Y-157124400D02*
X157480000Y-157124400D01*
X177673000Y-50419000D02*
X177673000Y-120015000D01*
X86487000Y-120015000D02*
X86487000Y-50165000D01*
X90551000Y-46101000D02*
X173355000Y-46101000D01*
X119481600Y-126542800D02*
X89001600Y-126542800D01*
X86461600Y-129082800D02*
X86461600Y-154482800D01*
X119481600Y-157022796D02*
G75*
G03*
X122021600Y-154482800I0J2540000D01*
G01*
X86461596Y-154482800D02*
G75*
G03*
X89001600Y-157022800I2540004J4D01*
G01*
X86487000Y-120015000D02*
G75*
G03*
X90805000Y-124333000I4318000J0D01*
G01*
X177673000Y-50419000D02*
G75*
G03*
X173355000Y-46101000I-4318000J0D01*
G01*
X89001600Y-126542796D02*
G75*
G03*
X86461600Y-129082800I0J-2540000D01*
G01*
X90551000Y-46101000D02*
G75*
G03*
X86487000Y-50165000I0J-4064000D01*
G01*
X122021600Y-154482800D02*
X122021600Y-129082800D01*
X173355000Y-124333000D02*
X90805000Y-124333000D01*
X89001600Y-157022800D02*
X119481600Y-157022800D01*
X173355000Y-124333000D02*
G75*
G03*
X177673000Y-120015000I0J4318000D01*
G01*
X122021596Y-129082800D02*
G75*
G03*
X119481600Y-126542800I-2539996J4D01*
G01*
M02*
