%TF.GenerationSoftware,KiCad,Pcbnew,(6.0.9)*%
%TF.CreationDate,2023-05-25T18:46:17+02:00*%
%TF.ProjectId,tiny1616_dev_board,74696e79-3136-4313-965f-6465765f626f,rev?*%
%TF.SameCoordinates,Original*%
%TF.FileFunction,Copper,L2,Bot*%
%TF.FilePolarity,Positive*%
%FSLAX46Y46*%
G04 Gerber Fmt 4.6, Leading zero omitted, Abs format (unit mm)*
G04 Created by KiCad (PCBNEW (6.0.9)) date 2023-05-25 18:46:17*
%MOMM*%
%LPD*%
G01*
G04 APERTURE LIST*
G04 Aperture macros list*
%AMRoundRect*
0 Rectangle with rounded corners*
0 $1 Rounding radius*
0 $2 $3 $4 $5 $6 $7 $8 $9 X,Y pos of 4 corners*
0 Add a 4 corners polygon primitive as box body*
4,1,4,$2,$3,$4,$5,$6,$7,$8,$9,$2,$3,0*
0 Add four circle primitives for the rounded corners*
1,1,$1+$1,$2,$3*
1,1,$1+$1,$4,$5*
1,1,$1+$1,$6,$7*
1,1,$1+$1,$8,$9*
0 Add four rect primitives between the rounded corners*
20,1,$1+$1,$2,$3,$4,$5,0*
20,1,$1+$1,$4,$5,$6,$7,0*
20,1,$1+$1,$6,$7,$8,$9,0*
20,1,$1+$1,$8,$9,$2,$3,0*%
G04 Aperture macros list end*
%TA.AperFunction,ComponentPad*%
%ADD10O,2.000000X0.900000*%
%TD*%
%TA.AperFunction,ComponentPad*%
%ADD11O,1.700000X0.900000*%
%TD*%
%TA.AperFunction,ComponentPad*%
%ADD12R,1.700000X1.700000*%
%TD*%
%TA.AperFunction,ComponentPad*%
%ADD13O,1.700000X1.700000*%
%TD*%
%TA.AperFunction,ComponentPad*%
%ADD14R,3.500000X3.500000*%
%TD*%
%TA.AperFunction,ComponentPad*%
%ADD15RoundRect,0.750000X-0.750000X-1.000000X0.750000X-1.000000X0.750000X1.000000X-0.750000X1.000000X0*%
%TD*%
%TA.AperFunction,ComponentPad*%
%ADD16RoundRect,0.875000X-0.875000X-0.875000X0.875000X-0.875000X0.875000X0.875000X-0.875000X0.875000X0*%
%TD*%
%TA.AperFunction,ComponentPad*%
%ADD17RoundRect,0.250000X-0.600000X-0.750000X0.600000X-0.750000X0.600000X0.750000X-0.600000X0.750000X0*%
%TD*%
%TA.AperFunction,ComponentPad*%
%ADD18O,1.700000X2.000000*%
%TD*%
%TA.AperFunction,ViaPad*%
%ADD19C,0.600000*%
%TD*%
%TA.AperFunction,ViaPad*%
%ADD20C,0.800000*%
%TD*%
%TA.AperFunction,Conductor*%
%ADD21C,0.250000*%
%TD*%
%TA.AperFunction,Conductor*%
%ADD22C,0.200000*%
%TD*%
G04 APERTURE END LIST*
D10*
%TO.P,J2,S1,SHIELD*%
%TO.N,GND*%
X126797200Y-57279000D03*
D11*
X130967200Y-57279000D03*
X130967200Y-48639000D03*
D10*
X126797200Y-48639000D03*
%TD*%
D12*
%TO.P,J5,1,Pin_1*%
%TO.N,/PB0_SW_O*%
X99324000Y-38608000D03*
D13*
%TO.P,J5,2,Pin_2*%
%TO.N,/PA7*%
X101864000Y-38608000D03*
%TO.P,J5,3,Pin_3*%
%TO.N,/PA6*%
X104404000Y-38608000D03*
%TO.P,J5,4,Pin_4*%
%TO.N,/PA5*%
X106944000Y-38608000D03*
%TO.P,J5,5,Pin_5*%
%TO.N,/PA4*%
X109484000Y-38608000D03*
%TO.P,J5,6,Pin_6*%
%TO.N,/PA3*%
X112024000Y-38608000D03*
%TO.P,J5,7,Pin_7*%
%TO.N,/PA2*%
X114564000Y-38608000D03*
%TO.P,J5,8,Pin_8*%
%TO.N,/PA1*%
X117104000Y-38608000D03*
%TO.P,J5,9,Pin_9*%
%TO.N,/PA0*%
X119644000Y-38608000D03*
%TD*%
D12*
%TO.P,J6,1,Pin_1*%
%TO.N,/PC3*%
X99324000Y-64008000D03*
D13*
%TO.P,J6,2,Pin_2*%
%TO.N,/PC2*%
X101864000Y-64008000D03*
%TO.P,J6,3,Pin_3*%
%TO.N,/PC1*%
X104404000Y-64008000D03*
%TO.P,J6,4,Pin_4*%
%TO.N,/PC0*%
X106944000Y-64008000D03*
%TO.P,J6,5,Pin_5*%
%TO.N,/PB5*%
X109484000Y-64008000D03*
%TO.P,J6,6,Pin_6*%
%TO.N,/PB4*%
X112024000Y-64008000D03*
%TO.P,J6,7,Pin_7*%
%TO.N,/PB3*%
X114564000Y-64008000D03*
%TO.P,J6,8,Pin_8*%
%TO.N,/PB2*%
X117104000Y-64008000D03*
%TO.P,J6,9,Pin_9*%
%TO.N,/PB1*%
X119644000Y-64008000D03*
%TD*%
D14*
%TO.P,J1,1*%
%TO.N,+12V*%
X95662000Y-46540500D03*
D15*
%TO.P,J1,2*%
%TO.N,GND*%
X89662000Y-46540500D03*
D16*
%TO.P,J1,3*%
%TO.N,N/C*%
X92662000Y-51240500D03*
%TD*%
D12*
%TO.P,JP2,1,A*%
%TO.N,/RS_DO*%
X104521000Y-60198000D03*
D13*
%TO.P,JP2,2,C*%
%TO.N,/PB3*%
X104521000Y-57658000D03*
%TO.P,JP2,3,B*%
%TO.N,/CH_RXD*%
X104521000Y-55118000D03*
%TD*%
D12*
%TO.P,J3,1,Pin_1*%
%TO.N,/PA2*%
X130180000Y-44816000D03*
D13*
%TO.P,J3,2,Pin_2*%
%TO.N,+5V*%
X127640000Y-44816000D03*
%TO.P,J3,3,Pin_3*%
%TO.N,/PA3*%
X130180000Y-42276000D03*
%TO.P,J3,4,Pin_4*%
%TO.N,/PA1*%
X127640000Y-42276000D03*
%TO.P,J3,5,Pin_5*%
%TO.N,/PA0*%
X130180000Y-39736000D03*
%TO.P,J3,6,Pin_6*%
%TO.N,GND*%
X127640000Y-39736000D03*
%TD*%
D12*
%TO.P,JP1,1,A*%
%TO.N,/RS_DI*%
X108458000Y-60198000D03*
D13*
%TO.P,JP1,2,C*%
%TO.N,/PB2*%
X108458000Y-57658000D03*
%TO.P,JP1,3,B*%
%TO.N,/CH_TXD*%
X108458000Y-55118000D03*
%TD*%
D17*
%TO.P,J4,1,Pin_1*%
%TO.N,Net-(J4-Pad1)*%
X126766000Y-61930000D03*
D18*
%TO.P,J4,2,Pin_2*%
%TO.N,Net-(J4-Pad2)*%
X129266000Y-61930000D03*
%TD*%
D12*
%TO.P,JP3,1,A*%
%TO.N,/RS_DE*%
X100584000Y-60233800D03*
D13*
%TO.P,JP3,2,C*%
%TO.N,/PB0*%
X100584000Y-57693800D03*
%TO.P,JP3,3,B*%
%TO.N,/PB0_SW_O*%
X100584000Y-55153800D03*
%TD*%
D19*
%TO.N,GND*%
X97993200Y-52197000D03*
X104267000Y-53086000D03*
X89916000Y-53213000D03*
X116586000Y-43180000D03*
X113157000Y-58420000D03*
X89916000Y-52324000D03*
X106680000Y-46482000D03*
X97993200Y-53086000D03*
X115697000Y-60452000D03*
X108458000Y-62484000D03*
X110363000Y-56007000D03*
X105156000Y-53086000D03*
X96647000Y-38862000D03*
X105156000Y-52197000D03*
X107569000Y-62484000D03*
X107569000Y-46482000D03*
X104267000Y-52197000D03*
X100330000Y-50038000D03*
X111887000Y-43053000D03*
X95758000Y-38862000D03*
X95758000Y-39751000D03*
X97104200Y-52197000D03*
X97104200Y-53086000D03*
X111252000Y-56007000D03*
X89027000Y-53213000D03*
X100330000Y-49149000D03*
X110363000Y-55118000D03*
X106680000Y-47371000D03*
X111252000Y-55118000D03*
X107569000Y-47371000D03*
X96647000Y-39751000D03*
X89027000Y-52324000D03*
%TO.N,+5V*%
X109982000Y-43180000D03*
X115316000Y-50927000D03*
X102362000Y-44323000D03*
%TO.N,/PA0*%
X103479600Y-46786800D03*
X105511600Y-50393600D03*
X100330000Y-45212000D03*
%TO.N,Net-(J2-PadA7)*%
X124714000Y-52832000D03*
X117094000Y-44577000D03*
%TO.N,/PC3*%
X100330000Y-51562000D03*
%TO.N,/PC2*%
X103759000Y-49784000D03*
%TO.N,/PC1*%
X102997000Y-49403000D03*
%TO.N,/PC0*%
X103759000Y-48387000D03*
D20*
%TO.N,/PB5*%
X121793000Y-64135000D03*
D19*
X105156000Y-43053000D03*
%TO.N,/PB4*%
X104267000Y-43053000D03*
%TO.N,/PB3*%
X104648000Y-45339000D03*
%TO.N,/PB2*%
X103759000Y-45339000D03*
%TO.N,/PB1*%
X103073200Y-45923200D03*
%TO.N,/PB0*%
X102870000Y-48387000D03*
%TD*%
D21*
%TO.N,+5V*%
X125339000Y-47117000D02*
X125339000Y-53090884D01*
D22*
X115316000Y-48514000D02*
X115316000Y-50927000D01*
D21*
X117856000Y-53467000D02*
X115316000Y-50927000D01*
X102771000Y-43665116D02*
X104008116Y-42428000D01*
X102771000Y-43914000D02*
X102771000Y-43665116D01*
X124962884Y-53467000D02*
X117856000Y-53467000D01*
X127640000Y-44816000D02*
X125339000Y-47117000D01*
X125339000Y-53090884D02*
X124962884Y-53467000D01*
X102771000Y-43914000D02*
X102362000Y-44323000D01*
X104008116Y-42428000D02*
X109230000Y-42428000D01*
X109230000Y-42428000D02*
X109982000Y-43180000D01*
D22*
X109982000Y-43180000D02*
X115316000Y-48514000D01*
D21*
%TO.N,/PA0*%
X116342000Y-41910000D02*
X119644000Y-38608000D01*
X100587720Y-45212000D02*
X103889720Y-41910000D01*
X100330000Y-45212000D02*
X100587720Y-45212000D01*
X103479600Y-46786800D02*
X105511600Y-48818800D01*
X105511600Y-48818800D02*
X105511600Y-50393600D01*
X103889720Y-41910000D02*
X116342000Y-41910000D01*
%TO.N,Net-(J2-PadA7)*%
X117094000Y-44577000D02*
X124714000Y-52197000D01*
X124714000Y-52197000D02*
X124714000Y-52832000D01*
D22*
%TO.N,/PA3*%
X129030000Y-41126000D02*
X130180000Y-42276000D01*
X127120000Y-37458000D02*
X129030000Y-39368000D01*
X129030000Y-39368000D02*
X129030000Y-41126000D01*
X112024000Y-38608000D02*
X113174000Y-37458000D01*
X113174000Y-37458000D02*
X127120000Y-37458000D01*
D21*
%TO.N,/PB0_SW_O*%
X99324000Y-53893800D02*
X100584000Y-55153800D01*
X99324000Y-38608000D02*
X99324000Y-53893800D01*
D22*
%TO.N,/PC3*%
X101060346Y-56543800D02*
X99920200Y-56543800D01*
X101734000Y-52966000D02*
X101734000Y-55870146D01*
X99324000Y-57140000D02*
X99324000Y-64008000D01*
X101734000Y-55870146D02*
X101060346Y-56543800D01*
X100330000Y-51562000D02*
X101734000Y-52966000D01*
X99920200Y-56543800D02*
X99324000Y-57140000D01*
%TO.N,/PC2*%
X103759000Y-50488314D02*
X103759000Y-49784000D01*
X102934000Y-62938000D02*
X101864000Y-64008000D01*
X103759000Y-50488314D02*
X102934000Y-51313314D01*
X102934000Y-51313314D02*
X102934000Y-62938000D01*
%TO.N,/PC1*%
X100714000Y-64519000D02*
X101473000Y-65278000D01*
X103134000Y-65278000D02*
X104404000Y-64008000D01*
X102362000Y-61883654D02*
X100714000Y-63531654D01*
X102997000Y-49403000D02*
X102534000Y-49866000D01*
X102534000Y-49866000D02*
X102534000Y-56343000D01*
X102362000Y-56515000D02*
X102362000Y-61883654D01*
X100714000Y-63531654D02*
X100714000Y-64519000D01*
X101473000Y-65278000D02*
X103134000Y-65278000D01*
X102534000Y-56343000D02*
X102362000Y-56515000D01*
%TO.N,/PC0*%
X106944000Y-64008000D02*
X106172000Y-64008000D01*
X104394000Y-50419000D02*
X104394000Y-49022000D01*
X106172000Y-64008000D02*
X103371000Y-61207000D01*
X103371000Y-61207000D02*
X103371000Y-51442000D01*
X104394000Y-49022000D02*
X103759000Y-48387000D01*
X103371000Y-51442000D02*
X104394000Y-50419000D01*
%TO.N,/PB5*%
X112395000Y-48485157D02*
X112395000Y-53732628D01*
X109189371Y-43415000D02*
X105518000Y-43415000D01*
X110020000Y-44245630D02*
X110020000Y-46110157D01*
X112395000Y-53732628D02*
X113405186Y-54742814D01*
X121793000Y-63061314D02*
X121793000Y-64135000D01*
X110020000Y-46110157D02*
X112395000Y-48485157D01*
X113405186Y-54742814D02*
X113474500Y-54742814D01*
X105518000Y-43415000D02*
X105156000Y-43053000D01*
X113474500Y-54742814D02*
X121793000Y-63061314D01*
X109189371Y-43415000D02*
X110020000Y-44245630D01*
%TO.N,/PB4*%
X113763157Y-55597157D02*
X120794000Y-62628000D01*
X109620000Y-44411315D02*
X109620000Y-46275843D01*
X113693843Y-55597157D02*
X113763157Y-55597157D01*
X111906000Y-53809314D02*
X113693843Y-55597157D01*
X120000346Y-65278000D02*
X113294000Y-65278000D01*
X104942471Y-43815000D02*
X109023685Y-43815000D01*
X120794000Y-64484346D02*
X120000346Y-65278000D01*
X120794000Y-62628000D02*
X120794000Y-64484346D01*
X109023685Y-43815000D02*
X109620000Y-44411315D01*
X111906000Y-48561844D02*
X111906000Y-53809314D01*
X104267000Y-43139529D02*
X104942471Y-43815000D01*
X113294000Y-65278000D02*
X112024000Y-64008000D01*
X109620000Y-46275843D02*
X111906000Y-48561844D01*
X104267000Y-43053000D02*
X104267000Y-43139529D01*
%TO.N,/PB3*%
X108420000Y-45720000D02*
X108039000Y-45339000D01*
X109201000Y-50819000D02*
X109201000Y-47553901D01*
X104521000Y-57658000D02*
X105029000Y-57658000D01*
D21*
X104521000Y-57658000D02*
X105696000Y-58833000D01*
X105696000Y-58833000D02*
X109389000Y-58833000D01*
D22*
X105791000Y-56896000D02*
X105791000Y-54229000D01*
X108420000Y-46772900D02*
X108420000Y-45720000D01*
X105791000Y-54229000D02*
X109201000Y-50819000D01*
X109201000Y-47553901D02*
X108420000Y-46772900D01*
X105029000Y-57658000D02*
X105791000Y-56896000D01*
D21*
X109389000Y-58833000D02*
X114564000Y-64008000D01*
D22*
X108039000Y-45339000D02*
X104648000Y-45339000D01*
%TO.N,/PB2*%
X109601000Y-51181000D02*
X107061000Y-53721000D01*
X104359000Y-44739000D02*
X108366000Y-44739000D01*
X107061000Y-53721000D02*
X107061000Y-56261000D01*
X107061000Y-56261000D02*
X108458000Y-57658000D01*
X108366000Y-44739000D02*
X108820000Y-45193000D01*
D21*
X108458000Y-57658000D02*
X110754000Y-57658000D01*
X110754000Y-57658000D02*
X117104000Y-64008000D01*
D22*
X108820000Y-46607215D02*
X109601000Y-47388215D01*
X109601000Y-47388215D02*
X109601000Y-51181000D01*
X103759000Y-45339000D02*
X104359000Y-44739000D01*
X108820000Y-45193000D02*
X108820000Y-46607215D01*
%TO.N,/PB1*%
X103910471Y-44339000D02*
X103073200Y-45176271D01*
X119644000Y-64008000D02*
X119644000Y-62113000D01*
X103073200Y-45176271D02*
X103073200Y-45923200D01*
X119644000Y-62113000D02*
X111506000Y-53975000D01*
X109220000Y-44577000D02*
X108982000Y-44339000D01*
X111506000Y-48727529D02*
X109220000Y-46441529D01*
X109220000Y-46441529D02*
X109220000Y-44577000D01*
X111506000Y-53975000D02*
X111506000Y-48727529D01*
X108982000Y-44339000D02*
X103910471Y-44339000D01*
%TO.N,/PB0*%
X102134000Y-48996000D02*
X102134000Y-56143800D01*
X102134000Y-48996000D02*
X102743000Y-48387000D01*
X102743000Y-48387000D02*
X102870000Y-48387000D01*
X102134000Y-56143800D02*
X100584000Y-57693800D01*
%TD*%
%TA.AperFunction,Conductor*%
%TO.N,GND*%
G36*
X112935747Y-36977502D02*
G01*
X112982240Y-37031158D01*
X112992344Y-37101432D01*
X112962850Y-37166012D01*
X112955300Y-37173165D01*
X112953720Y-37174017D01*
X112930302Y-37199350D01*
X112919655Y-37210868D01*
X112916227Y-37214434D01*
X112574417Y-37556245D01*
X112512104Y-37590270D01*
X112438633Y-37584180D01*
X112339039Y-37544446D01*
X112333379Y-37543320D01*
X112333375Y-37543319D01*
X112145613Y-37505971D01*
X112145610Y-37505971D01*
X112139946Y-37504844D01*
X112134171Y-37504768D01*
X112134167Y-37504768D01*
X112032793Y-37503441D01*
X111936971Y-37502187D01*
X111931274Y-37503166D01*
X111931273Y-37503166D01*
X111843397Y-37518266D01*
X111736910Y-37536564D01*
X111546463Y-37606824D01*
X111372010Y-37710612D01*
X111367670Y-37714418D01*
X111367666Y-37714421D01*
X111233022Y-37832502D01*
X111219392Y-37844455D01*
X111215817Y-37848990D01*
X111215816Y-37848991D01*
X111192960Y-37877984D01*
X111093720Y-38003869D01*
X111091031Y-38008980D01*
X111091029Y-38008983D01*
X111066773Y-38055087D01*
X110999203Y-38183515D01*
X110939007Y-38377378D01*
X110915148Y-38578964D01*
X110928424Y-38781522D01*
X110929845Y-38787118D01*
X110929846Y-38787123D01*
X110950119Y-38866945D01*
X110978392Y-38978269D01*
X110980807Y-38983507D01*
X110980809Y-38983512D01*
X111017754Y-39063652D01*
X111063377Y-39162616D01*
X111066710Y-39167332D01*
X111167382Y-39309780D01*
X111180533Y-39328389D01*
X111184675Y-39332424D01*
X111241637Y-39387913D01*
X111325938Y-39470035D01*
X111494720Y-39582812D01*
X111500023Y-39585090D01*
X111500026Y-39585092D01*
X111619824Y-39636561D01*
X111681228Y-39662942D01*
X111754244Y-39679464D01*
X111873579Y-39706467D01*
X111873584Y-39706468D01*
X111879216Y-39707742D01*
X111884987Y-39707969D01*
X111884989Y-39707969D01*
X111944756Y-39710317D01*
X112082053Y-39715712D01*
X112189348Y-39700155D01*
X112277231Y-39687413D01*
X112277236Y-39687412D01*
X112282945Y-39686584D01*
X112288409Y-39684729D01*
X112288414Y-39684728D01*
X112469693Y-39623192D01*
X112469698Y-39623190D01*
X112475165Y-39621334D01*
X112652276Y-39522147D01*
X112661065Y-39514838D01*
X112803913Y-39396031D01*
X112808345Y-39392345D01*
X112848515Y-39344046D01*
X112934453Y-39240718D01*
X112934455Y-39240715D01*
X112938147Y-39236276D01*
X113037334Y-39059165D01*
X113039190Y-39053698D01*
X113039192Y-39053693D01*
X113100728Y-38872414D01*
X113100729Y-38872409D01*
X113102584Y-38866945D01*
X113103412Y-38861236D01*
X113103413Y-38861231D01*
X113126233Y-38703841D01*
X113131712Y-38666053D01*
X113133232Y-38608000D01*
X113114658Y-38405859D01*
X113113090Y-38400299D01*
X113061125Y-38216046D01*
X113061124Y-38216044D01*
X113059557Y-38210487D01*
X113054341Y-38199910D01*
X113042151Y-38129968D01*
X113069710Y-38064539D01*
X113078252Y-38055087D01*
X113283934Y-37849405D01*
X113346246Y-37815379D01*
X113373029Y-37812500D01*
X113526564Y-37812500D01*
X113594685Y-37832502D01*
X113641178Y-37886158D01*
X113651282Y-37956432D01*
X113633502Y-38003754D01*
X113633720Y-38003869D01*
X113539203Y-38183515D01*
X113479007Y-38377378D01*
X113455148Y-38578964D01*
X113468424Y-38781522D01*
X113469845Y-38787118D01*
X113469846Y-38787123D01*
X113490119Y-38866945D01*
X113518392Y-38978269D01*
X113520807Y-38983507D01*
X113520809Y-38983512D01*
X113557754Y-39063652D01*
X113603377Y-39162616D01*
X113606710Y-39167332D01*
X113707382Y-39309780D01*
X113720533Y-39328389D01*
X113724675Y-39332424D01*
X113781637Y-39387913D01*
X113865938Y-39470035D01*
X114034720Y-39582812D01*
X114040023Y-39585090D01*
X114040026Y-39585092D01*
X114159824Y-39636561D01*
X114221228Y-39662942D01*
X114294244Y-39679464D01*
X114413579Y-39706467D01*
X114413584Y-39706468D01*
X114419216Y-39707742D01*
X114424987Y-39707969D01*
X114424989Y-39707969D01*
X114484756Y-39710317D01*
X114622053Y-39715712D01*
X114729348Y-39700155D01*
X114817231Y-39687413D01*
X114817236Y-39687412D01*
X114822945Y-39686584D01*
X114828409Y-39684729D01*
X114828414Y-39684728D01*
X115009693Y-39623192D01*
X115009698Y-39623190D01*
X115015165Y-39621334D01*
X115192276Y-39522147D01*
X115201065Y-39514838D01*
X115343913Y-39396031D01*
X115348345Y-39392345D01*
X115388515Y-39344046D01*
X115474453Y-39240718D01*
X115474455Y-39240715D01*
X115478147Y-39236276D01*
X115577334Y-39059165D01*
X115579190Y-39053698D01*
X115579192Y-39053693D01*
X115640728Y-38872414D01*
X115640729Y-38872409D01*
X115642584Y-38866945D01*
X115643412Y-38861236D01*
X115643413Y-38861231D01*
X115666233Y-38703841D01*
X115671712Y-38666053D01*
X115673232Y-38608000D01*
X115654658Y-38405859D01*
X115653090Y-38400299D01*
X115601125Y-38216046D01*
X115601124Y-38216044D01*
X115599557Y-38210487D01*
X115588978Y-38189033D01*
X115512331Y-38033609D01*
X115509776Y-38028428D01*
X115506321Y-38023801D01*
X115506320Y-38023799D01*
X115498920Y-38013890D01*
X115474188Y-37947340D01*
X115489361Y-37877984D01*
X115539622Y-37827841D01*
X115599877Y-37812500D01*
X116066564Y-37812500D01*
X116134685Y-37832502D01*
X116181178Y-37886158D01*
X116191282Y-37956432D01*
X116173502Y-38003754D01*
X116173720Y-38003869D01*
X116079203Y-38183515D01*
X116019007Y-38377378D01*
X115995148Y-38578964D01*
X116008424Y-38781522D01*
X116009845Y-38787118D01*
X116009846Y-38787123D01*
X116030119Y-38866945D01*
X116058392Y-38978269D01*
X116060807Y-38983507D01*
X116060809Y-38983512D01*
X116097754Y-39063652D01*
X116143377Y-39162616D01*
X116146710Y-39167332D01*
X116247382Y-39309780D01*
X116260533Y-39328389D01*
X116264675Y-39332424D01*
X116321637Y-39387913D01*
X116405938Y-39470035D01*
X116574720Y-39582812D01*
X116580023Y-39585090D01*
X116580026Y-39585092D01*
X116699824Y-39636561D01*
X116761228Y-39662942D01*
X116834244Y-39679464D01*
X116953579Y-39706467D01*
X116953584Y-39706468D01*
X116959216Y-39707742D01*
X116964987Y-39707969D01*
X116964989Y-39707969D01*
X117024756Y-39710317D01*
X117162053Y-39715712D01*
X117269348Y-39700155D01*
X117357231Y-39687413D01*
X117357236Y-39687412D01*
X117362945Y-39686584D01*
X117368409Y-39684729D01*
X117368414Y-39684728D01*
X117549693Y-39623192D01*
X117549698Y-39623190D01*
X117555165Y-39621334D01*
X117732276Y-39522147D01*
X117741065Y-39514838D01*
X117883913Y-39396031D01*
X117888345Y-39392345D01*
X117928515Y-39344046D01*
X118014453Y-39240718D01*
X118014455Y-39240715D01*
X118018147Y-39236276D01*
X118117334Y-39059165D01*
X118119190Y-39053698D01*
X118119192Y-39053693D01*
X118180728Y-38872414D01*
X118180729Y-38872409D01*
X118182584Y-38866945D01*
X118183412Y-38861236D01*
X118183413Y-38861231D01*
X118206233Y-38703841D01*
X118211712Y-38666053D01*
X118213232Y-38608000D01*
X118194658Y-38405859D01*
X118193090Y-38400299D01*
X118141125Y-38216046D01*
X118141124Y-38216044D01*
X118139557Y-38210487D01*
X118128978Y-38189033D01*
X118052331Y-38033609D01*
X118049776Y-38028428D01*
X118046321Y-38023801D01*
X118046320Y-38023799D01*
X118038920Y-38013890D01*
X118014188Y-37947340D01*
X118029361Y-37877984D01*
X118079622Y-37827841D01*
X118139877Y-37812500D01*
X118606564Y-37812500D01*
X118674685Y-37832502D01*
X118721178Y-37886158D01*
X118731282Y-37956432D01*
X118713502Y-38003754D01*
X118713720Y-38003869D01*
X118619203Y-38183515D01*
X118559007Y-38377378D01*
X118535148Y-38578964D01*
X118548424Y-38781522D01*
X118549845Y-38787118D01*
X118549846Y-38787123D01*
X118570119Y-38866945D01*
X118598392Y-38978269D01*
X118605375Y-38993417D01*
X118615730Y-39063652D01*
X118586468Y-39128338D01*
X118580044Y-39135262D01*
X116221711Y-41493595D01*
X116159399Y-41527621D01*
X116132616Y-41530500D01*
X103943640Y-41530500D01*
X103919692Y-41527951D01*
X103918027Y-41527872D01*
X103907844Y-41525680D01*
X103897503Y-41526904D01*
X103874497Y-41529627D01*
X103868566Y-41529977D01*
X103868574Y-41530072D01*
X103863396Y-41530500D01*
X103858196Y-41530500D01*
X103853067Y-41531354D01*
X103853064Y-41531354D01*
X103839155Y-41533669D01*
X103833277Y-41534506D01*
X103792719Y-41539306D01*
X103792718Y-41539306D01*
X103782379Y-41540530D01*
X103774127Y-41544493D01*
X103765094Y-41545996D01*
X103719947Y-41570356D01*
X103714683Y-41573037D01*
X103668488Y-41595220D01*
X103664212Y-41598814D01*
X103662272Y-41600754D01*
X103660361Y-41602507D01*
X103660271Y-41602556D01*
X103660159Y-41602433D01*
X103659624Y-41602905D01*
X103653906Y-41605990D01*
X103646839Y-41613635D01*
X103617304Y-41645586D01*
X103613874Y-41649152D01*
X100616664Y-44646362D01*
X100554352Y-44680388D01*
X100490992Y-44674718D01*
X100490362Y-44677070D01*
X100482383Y-44674932D01*
X100474754Y-44671772D01*
X100330000Y-44652715D01*
X100321812Y-44653793D01*
X100193432Y-44670694D01*
X100193430Y-44670695D01*
X100185246Y-44671772D01*
X100163258Y-44680880D01*
X100057986Y-44724485D01*
X100057984Y-44724486D01*
X100050358Y-44727645D01*
X99993049Y-44771620D01*
X99953031Y-44802327D01*
X99934526Y-44816526D01*
X99929503Y-44823072D01*
X99929501Y-44823074D01*
X99929461Y-44823126D01*
X99929417Y-44823158D01*
X99923658Y-44828917D01*
X99922760Y-44828019D01*
X99872123Y-44864992D01*
X99801252Y-44869213D01*
X99739349Y-44834447D01*
X99706069Y-44771734D01*
X99703500Y-44746420D01*
X99703500Y-39838499D01*
X99723502Y-39770378D01*
X99777158Y-39723885D01*
X99829500Y-39712499D01*
X100199066Y-39712499D01*
X100234818Y-39705388D01*
X100261126Y-39700156D01*
X100261128Y-39700155D01*
X100273301Y-39697734D01*
X100283621Y-39690839D01*
X100283622Y-39690838D01*
X100347168Y-39648377D01*
X100357484Y-39641484D01*
X100413734Y-39557301D01*
X100428500Y-39483067D01*
X100428499Y-38578964D01*
X100755148Y-38578964D01*
X100768424Y-38781522D01*
X100769845Y-38787118D01*
X100769846Y-38787123D01*
X100790119Y-38866945D01*
X100818392Y-38978269D01*
X100820807Y-38983507D01*
X100820809Y-38983512D01*
X100857754Y-39063652D01*
X100903377Y-39162616D01*
X100906710Y-39167332D01*
X101007382Y-39309780D01*
X101020533Y-39328389D01*
X101024675Y-39332424D01*
X101081637Y-39387913D01*
X101165938Y-39470035D01*
X101334720Y-39582812D01*
X101340023Y-39585090D01*
X101340026Y-39585092D01*
X101459824Y-39636561D01*
X101521228Y-39662942D01*
X101594244Y-39679464D01*
X101713579Y-39706467D01*
X101713584Y-39706468D01*
X101719216Y-39707742D01*
X101724987Y-39707969D01*
X101724989Y-39707969D01*
X101784756Y-39710317D01*
X101922053Y-39715712D01*
X102029348Y-39700155D01*
X102117231Y-39687413D01*
X102117236Y-39687412D01*
X102122945Y-39686584D01*
X102128409Y-39684729D01*
X102128414Y-39684728D01*
X102309693Y-39623192D01*
X102309698Y-39623190D01*
X102315165Y-39621334D01*
X102492276Y-39522147D01*
X102501065Y-39514838D01*
X102643913Y-39396031D01*
X102648345Y-39392345D01*
X102688515Y-39344046D01*
X102774453Y-39240718D01*
X102774455Y-39240715D01*
X102778147Y-39236276D01*
X102877334Y-39059165D01*
X102879190Y-39053698D01*
X102879192Y-39053693D01*
X102940728Y-38872414D01*
X102940729Y-38872409D01*
X102942584Y-38866945D01*
X102943412Y-38861236D01*
X102943413Y-38861231D01*
X102966233Y-38703841D01*
X102971712Y-38666053D01*
X102973232Y-38608000D01*
X102970564Y-38578964D01*
X103295148Y-38578964D01*
X103308424Y-38781522D01*
X103309845Y-38787118D01*
X103309846Y-38787123D01*
X103330119Y-38866945D01*
X103358392Y-38978269D01*
X103360807Y-38983507D01*
X103360809Y-38983512D01*
X103397754Y-39063652D01*
X103443377Y-39162616D01*
X103446710Y-39167332D01*
X103547382Y-39309780D01*
X103560533Y-39328389D01*
X103564675Y-39332424D01*
X103621637Y-39387913D01*
X103705938Y-39470035D01*
X103874720Y-39582812D01*
X103880023Y-39585090D01*
X103880026Y-39585092D01*
X103999824Y-39636561D01*
X104061228Y-39662942D01*
X104134244Y-39679464D01*
X104253579Y-39706467D01*
X104253584Y-39706468D01*
X104259216Y-39707742D01*
X104264987Y-39707969D01*
X104264989Y-39707969D01*
X104324756Y-39710317D01*
X104462053Y-39715712D01*
X104569348Y-39700155D01*
X104657231Y-39687413D01*
X104657236Y-39687412D01*
X104662945Y-39686584D01*
X104668409Y-39684729D01*
X104668414Y-39684728D01*
X104849693Y-39623192D01*
X104849698Y-39623190D01*
X104855165Y-39621334D01*
X105032276Y-39522147D01*
X105041065Y-39514838D01*
X105183913Y-39396031D01*
X105188345Y-39392345D01*
X105228515Y-39344046D01*
X105314453Y-39240718D01*
X105314455Y-39240715D01*
X105318147Y-39236276D01*
X105417334Y-39059165D01*
X105419190Y-39053698D01*
X105419192Y-39053693D01*
X105480728Y-38872414D01*
X105480729Y-38872409D01*
X105482584Y-38866945D01*
X105483412Y-38861236D01*
X105483413Y-38861231D01*
X105506233Y-38703841D01*
X105511712Y-38666053D01*
X105513232Y-38608000D01*
X105510564Y-38578964D01*
X105835148Y-38578964D01*
X105848424Y-38781522D01*
X105849845Y-38787118D01*
X105849846Y-38787123D01*
X105870119Y-38866945D01*
X105898392Y-38978269D01*
X105900807Y-38983507D01*
X105900809Y-38983512D01*
X105937754Y-39063652D01*
X105983377Y-39162616D01*
X105986710Y-39167332D01*
X106087382Y-39309780D01*
X106100533Y-39328389D01*
X106104675Y-39332424D01*
X106161637Y-39387913D01*
X106245938Y-39470035D01*
X106414720Y-39582812D01*
X106420023Y-39585090D01*
X106420026Y-39585092D01*
X106539824Y-39636561D01*
X106601228Y-39662942D01*
X106674244Y-39679464D01*
X106793579Y-39706467D01*
X106793584Y-39706468D01*
X106799216Y-39707742D01*
X106804987Y-39707969D01*
X106804989Y-39707969D01*
X106864756Y-39710317D01*
X107002053Y-39715712D01*
X107109348Y-39700155D01*
X107197231Y-39687413D01*
X107197236Y-39687412D01*
X107202945Y-39686584D01*
X107208409Y-39684729D01*
X107208414Y-39684728D01*
X107389693Y-39623192D01*
X107389698Y-39623190D01*
X107395165Y-39621334D01*
X107572276Y-39522147D01*
X107581065Y-39514838D01*
X107723913Y-39396031D01*
X107728345Y-39392345D01*
X107768515Y-39344046D01*
X107854453Y-39240718D01*
X107854455Y-39240715D01*
X107858147Y-39236276D01*
X107957334Y-39059165D01*
X107959190Y-39053698D01*
X107959192Y-39053693D01*
X108020728Y-38872414D01*
X108020729Y-38872409D01*
X108022584Y-38866945D01*
X108023412Y-38861236D01*
X108023413Y-38861231D01*
X108046233Y-38703841D01*
X108051712Y-38666053D01*
X108053232Y-38608000D01*
X108050564Y-38578964D01*
X108375148Y-38578964D01*
X108388424Y-38781522D01*
X108389845Y-38787118D01*
X108389846Y-38787123D01*
X108410119Y-38866945D01*
X108438392Y-38978269D01*
X108440807Y-38983507D01*
X108440809Y-38983512D01*
X108477754Y-39063652D01*
X108523377Y-39162616D01*
X108526710Y-39167332D01*
X108627382Y-39309780D01*
X108640533Y-39328389D01*
X108644675Y-39332424D01*
X108701637Y-39387913D01*
X108785938Y-39470035D01*
X108954720Y-39582812D01*
X108960023Y-39585090D01*
X108960026Y-39585092D01*
X109079824Y-39636561D01*
X109141228Y-39662942D01*
X109214244Y-39679464D01*
X109333579Y-39706467D01*
X109333584Y-39706468D01*
X109339216Y-39707742D01*
X109344987Y-39707969D01*
X109344989Y-39707969D01*
X109404756Y-39710317D01*
X109542053Y-39715712D01*
X109649348Y-39700155D01*
X109737231Y-39687413D01*
X109737236Y-39687412D01*
X109742945Y-39686584D01*
X109748409Y-39684729D01*
X109748414Y-39684728D01*
X109929693Y-39623192D01*
X109929698Y-39623190D01*
X109935165Y-39621334D01*
X110112276Y-39522147D01*
X110121065Y-39514838D01*
X110263913Y-39396031D01*
X110268345Y-39392345D01*
X110308515Y-39344046D01*
X110394453Y-39240718D01*
X110394455Y-39240715D01*
X110398147Y-39236276D01*
X110497334Y-39059165D01*
X110499190Y-39053698D01*
X110499192Y-39053693D01*
X110560728Y-38872414D01*
X110560729Y-38872409D01*
X110562584Y-38866945D01*
X110563412Y-38861236D01*
X110563413Y-38861231D01*
X110586233Y-38703841D01*
X110591712Y-38666053D01*
X110593232Y-38608000D01*
X110574658Y-38405859D01*
X110573090Y-38400299D01*
X110521125Y-38216046D01*
X110521124Y-38216044D01*
X110519557Y-38210487D01*
X110508978Y-38189033D01*
X110432331Y-38033609D01*
X110429776Y-38028428D01*
X110426320Y-38023799D01*
X110374065Y-37953822D01*
X110308320Y-37865779D01*
X110159258Y-37727987D01*
X110154375Y-37724906D01*
X110154371Y-37724903D01*
X109992464Y-37622748D01*
X109987581Y-37619667D01*
X109799039Y-37544446D01*
X109793379Y-37543320D01*
X109793375Y-37543319D01*
X109605613Y-37505971D01*
X109605610Y-37505971D01*
X109599946Y-37504844D01*
X109594171Y-37504768D01*
X109594167Y-37504768D01*
X109492793Y-37503441D01*
X109396971Y-37502187D01*
X109391274Y-37503166D01*
X109391273Y-37503166D01*
X109303397Y-37518266D01*
X109196910Y-37536564D01*
X109006463Y-37606824D01*
X108832010Y-37710612D01*
X108827670Y-37714418D01*
X108827666Y-37714421D01*
X108693022Y-37832502D01*
X108679392Y-37844455D01*
X108675817Y-37848990D01*
X108675816Y-37848991D01*
X108652960Y-37877984D01*
X108553720Y-38003869D01*
X108551031Y-38008980D01*
X108551029Y-38008983D01*
X108526773Y-38055087D01*
X108459203Y-38183515D01*
X108399007Y-38377378D01*
X108375148Y-38578964D01*
X108050564Y-38578964D01*
X108034658Y-38405859D01*
X108033090Y-38400299D01*
X107981125Y-38216046D01*
X107981124Y-38216044D01*
X107979557Y-38210487D01*
X107968978Y-38189033D01*
X107892331Y-38033609D01*
X107889776Y-38028428D01*
X107886320Y-38023799D01*
X107834065Y-37953822D01*
X107768320Y-37865779D01*
X107619258Y-37727987D01*
X107614375Y-37724906D01*
X107614371Y-37724903D01*
X107452464Y-37622748D01*
X107447581Y-37619667D01*
X107259039Y-37544446D01*
X107253379Y-37543320D01*
X107253375Y-37543319D01*
X107065613Y-37505971D01*
X107065610Y-37505971D01*
X107059946Y-37504844D01*
X107054171Y-37504768D01*
X107054167Y-37504768D01*
X106952793Y-37503441D01*
X106856971Y-37502187D01*
X106851274Y-37503166D01*
X106851273Y-37503166D01*
X106763397Y-37518266D01*
X106656910Y-37536564D01*
X106466463Y-37606824D01*
X106292010Y-37710612D01*
X106287670Y-37714418D01*
X106287666Y-37714421D01*
X106153022Y-37832502D01*
X106139392Y-37844455D01*
X106135817Y-37848990D01*
X106135816Y-37848991D01*
X106112960Y-37877984D01*
X106013720Y-38003869D01*
X106011031Y-38008980D01*
X106011029Y-38008983D01*
X105986773Y-38055087D01*
X105919203Y-38183515D01*
X105859007Y-38377378D01*
X105835148Y-38578964D01*
X105510564Y-38578964D01*
X105494658Y-38405859D01*
X105493090Y-38400299D01*
X105441125Y-38216046D01*
X105441124Y-38216044D01*
X105439557Y-38210487D01*
X105428978Y-38189033D01*
X105352331Y-38033609D01*
X105349776Y-38028428D01*
X105346320Y-38023799D01*
X105294065Y-37953822D01*
X105228320Y-37865779D01*
X105079258Y-37727987D01*
X105074375Y-37724906D01*
X105074371Y-37724903D01*
X104912464Y-37622748D01*
X104907581Y-37619667D01*
X104719039Y-37544446D01*
X104713379Y-37543320D01*
X104713375Y-37543319D01*
X104525613Y-37505971D01*
X104525610Y-37505971D01*
X104519946Y-37504844D01*
X104514171Y-37504768D01*
X104514167Y-37504768D01*
X104412793Y-37503441D01*
X104316971Y-37502187D01*
X104311274Y-37503166D01*
X104311273Y-37503166D01*
X104223397Y-37518266D01*
X104116910Y-37536564D01*
X103926463Y-37606824D01*
X103752010Y-37710612D01*
X103747670Y-37714418D01*
X103747666Y-37714421D01*
X103613022Y-37832502D01*
X103599392Y-37844455D01*
X103595817Y-37848990D01*
X103595816Y-37848991D01*
X103572960Y-37877984D01*
X103473720Y-38003869D01*
X103471031Y-38008980D01*
X103471029Y-38008983D01*
X103446773Y-38055087D01*
X103379203Y-38183515D01*
X103319007Y-38377378D01*
X103295148Y-38578964D01*
X102970564Y-38578964D01*
X102954658Y-38405859D01*
X102953090Y-38400299D01*
X102901125Y-38216046D01*
X102901124Y-38216044D01*
X102899557Y-38210487D01*
X102888978Y-38189033D01*
X102812331Y-38033609D01*
X102809776Y-38028428D01*
X102806320Y-38023799D01*
X102754065Y-37953822D01*
X102688320Y-37865779D01*
X102539258Y-37727987D01*
X102534375Y-37724906D01*
X102534371Y-37724903D01*
X102372464Y-37622748D01*
X102367581Y-37619667D01*
X102179039Y-37544446D01*
X102173379Y-37543320D01*
X102173375Y-37543319D01*
X101985613Y-37505971D01*
X101985610Y-37505971D01*
X101979946Y-37504844D01*
X101974171Y-37504768D01*
X101974167Y-37504768D01*
X101872793Y-37503441D01*
X101776971Y-37502187D01*
X101771274Y-37503166D01*
X101771273Y-37503166D01*
X101683397Y-37518266D01*
X101576910Y-37536564D01*
X101386463Y-37606824D01*
X101212010Y-37710612D01*
X101207670Y-37714418D01*
X101207666Y-37714421D01*
X101073022Y-37832502D01*
X101059392Y-37844455D01*
X101055817Y-37848990D01*
X101055816Y-37848991D01*
X101032960Y-37877984D01*
X100933720Y-38003869D01*
X100931031Y-38008980D01*
X100931029Y-38008983D01*
X100906773Y-38055087D01*
X100839203Y-38183515D01*
X100779007Y-38377378D01*
X100755148Y-38578964D01*
X100428499Y-38578964D01*
X100428499Y-37732934D01*
X100413734Y-37658699D01*
X100387654Y-37619667D01*
X100364377Y-37584832D01*
X100357484Y-37574516D01*
X100273301Y-37518266D01*
X100199067Y-37503500D01*
X99324142Y-37503500D01*
X98448934Y-37503501D01*
X98413182Y-37510612D01*
X98386874Y-37515844D01*
X98386872Y-37515845D01*
X98374699Y-37518266D01*
X98364379Y-37525161D01*
X98364378Y-37525162D01*
X98317860Y-37556245D01*
X98290516Y-37574516D01*
X98234266Y-37658699D01*
X98219500Y-37732933D01*
X98219501Y-39483066D01*
X98225820Y-39514838D01*
X98230874Y-39540245D01*
X98234266Y-39557301D01*
X98241161Y-39567620D01*
X98241162Y-39567622D01*
X98281516Y-39628015D01*
X98290516Y-39641484D01*
X98374699Y-39697734D01*
X98448933Y-39712500D01*
X98818500Y-39712500D01*
X98886621Y-39732502D01*
X98933114Y-39786158D01*
X98944500Y-39838500D01*
X98944500Y-53839880D01*
X98941951Y-53863828D01*
X98941872Y-53865493D01*
X98939680Y-53875676D01*
X98940904Y-53886017D01*
X98943627Y-53909023D01*
X98943977Y-53914954D01*
X98944072Y-53914946D01*
X98944500Y-53920124D01*
X98944500Y-53925324D01*
X98945354Y-53930453D01*
X98945354Y-53930456D01*
X98947669Y-53944365D01*
X98948506Y-53950243D01*
X98950037Y-53963175D01*
X98954530Y-54001141D01*
X98958493Y-54009393D01*
X98959996Y-54018426D01*
X98964943Y-54027595D01*
X98964944Y-54027597D01*
X98984334Y-54063532D01*
X98987031Y-54068825D01*
X99005785Y-54107882D01*
X99005788Y-54107886D01*
X99009219Y-54115032D01*
X99012814Y-54119308D01*
X99014737Y-54121231D01*
X99016509Y-54123163D01*
X99016552Y-54123242D01*
X99016428Y-54123355D01*
X99016904Y-54123895D01*
X99019990Y-54129614D01*
X99027635Y-54136681D01*
X99059586Y-54166216D01*
X99063152Y-54169646D01*
X99520477Y-54626971D01*
X99554503Y-54689283D01*
X99551715Y-54753430D01*
X99499007Y-54923178D01*
X99475148Y-55124764D01*
X99488424Y-55327322D01*
X99489845Y-55332918D01*
X99489846Y-55332923D01*
X99522233Y-55460445D01*
X99538392Y-55524069D01*
X99540809Y-55529312D01*
X99561506Y-55574208D01*
X99623377Y-55708416D01*
X99626710Y-55713132D01*
X99691944Y-55805436D01*
X99740533Y-55874189D01*
X99744675Y-55878224D01*
X99861834Y-55992354D01*
X99896672Y-56054215D01*
X99892535Y-56125091D01*
X99850736Y-56182479D01*
X99819725Y-56198202D01*
X99819946Y-56198662D01*
X99819932Y-56198669D01*
X99819930Y-56198669D01*
X99816574Y-56200280D01*
X99811628Y-56202307D01*
X99811152Y-56202548D01*
X99803783Y-56203775D01*
X99761799Y-56226429D01*
X99756536Y-56229110D01*
X99713542Y-56249755D01*
X99709550Y-56253111D01*
X99707603Y-56255058D01*
X99705978Y-56256548D01*
X99705546Y-56256781D01*
X99705513Y-56256746D01*
X99705358Y-56256883D01*
X99699920Y-56259817D01*
X99676836Y-56284790D01*
X99665843Y-56296682D01*
X99662413Y-56300249D01*
X99109580Y-56853082D01*
X99094098Y-56865587D01*
X99090871Y-56868523D01*
X99082118Y-56874175D01*
X99062991Y-56898438D01*
X99059441Y-56902433D01*
X99059540Y-56902517D01*
X99056182Y-56906480D01*
X99052506Y-56910156D01*
X99049483Y-56914385D01*
X99049483Y-56914386D01*
X99042146Y-56924652D01*
X99038585Y-56929395D01*
X99015503Y-56958675D01*
X99015501Y-56958679D01*
X99009054Y-56966857D01*
X99006221Y-56974925D01*
X99001247Y-56981885D01*
X98998263Y-56991863D01*
X98987580Y-57027586D01*
X98985744Y-57033235D01*
X98969950Y-57078208D01*
X98969500Y-57083404D01*
X98969500Y-57086109D01*
X98969403Y-57088365D01*
X98969260Y-57088841D01*
X98969214Y-57088839D01*
X98969201Y-57089038D01*
X98967432Y-57094955D01*
X98968076Y-57111335D01*
X98969403Y-57145124D01*
X98969500Y-57150070D01*
X98969500Y-62777501D01*
X98949498Y-62845622D01*
X98895842Y-62892115D01*
X98843500Y-62903501D01*
X98448934Y-62903501D01*
X98413182Y-62910612D01*
X98386874Y-62915844D01*
X98386872Y-62915845D01*
X98374699Y-62918266D01*
X98364379Y-62925161D01*
X98364378Y-62925162D01*
X98330077Y-62948082D01*
X98290516Y-62974516D01*
X98283623Y-62984832D01*
X98243577Y-63044765D01*
X98234266Y-63058699D01*
X98219500Y-63132933D01*
X98219501Y-64883066D01*
X98224798Y-64909699D01*
X98226971Y-64920621D01*
X98234266Y-64957301D01*
X98241161Y-64967620D01*
X98241162Y-64967622D01*
X98280127Y-65025936D01*
X98290516Y-65041484D01*
X98374699Y-65097734D01*
X98448933Y-65112500D01*
X99323858Y-65112500D01*
X100199066Y-65112499D01*
X100234818Y-65105388D01*
X100261126Y-65100156D01*
X100261128Y-65100155D01*
X100273301Y-65097734D01*
X100283621Y-65090839D01*
X100283622Y-65090838D01*
X100347168Y-65048377D01*
X100357484Y-65041484D01*
X100413734Y-64957301D01*
X100414000Y-64955963D01*
X100453751Y-64906638D01*
X100521115Y-64884219D01*
X100589905Y-64901779D01*
X100614704Y-64921043D01*
X101186084Y-65492422D01*
X101198586Y-65507902D01*
X101201525Y-65511132D01*
X101207175Y-65519882D01*
X101231438Y-65539009D01*
X101235433Y-65542559D01*
X101235517Y-65542460D01*
X101239480Y-65545818D01*
X101243156Y-65549494D01*
X101247385Y-65552517D01*
X101247386Y-65552517D01*
X101257652Y-65559854D01*
X101262395Y-65563415D01*
X101291675Y-65586497D01*
X101291679Y-65586499D01*
X101299857Y-65592946D01*
X101307925Y-65595779D01*
X101314885Y-65600753D01*
X101324863Y-65603737D01*
X101360586Y-65614420D01*
X101366235Y-65616256D01*
X101411208Y-65632050D01*
X101416404Y-65632500D01*
X101419109Y-65632500D01*
X101421365Y-65632597D01*
X101421841Y-65632740D01*
X101421839Y-65632786D01*
X101422038Y-65632799D01*
X101427955Y-65634568D01*
X101478124Y-65632597D01*
X101483070Y-65632500D01*
X103082743Y-65632500D01*
X103102537Y-65634606D01*
X103106890Y-65634811D01*
X103117070Y-65637003D01*
X103147740Y-65633373D01*
X103153083Y-65633058D01*
X103153072Y-65632928D01*
X103158252Y-65632500D01*
X103163451Y-65632500D01*
X103168575Y-65631647D01*
X103168588Y-65631646D01*
X103181041Y-65629573D01*
X103186916Y-65628736D01*
X103223929Y-65624355D01*
X103234270Y-65623131D01*
X103241978Y-65619430D01*
X103250417Y-65618025D01*
X103292401Y-65595371D01*
X103297664Y-65592690D01*
X103310561Y-65586497D01*
X103340658Y-65572045D01*
X103344650Y-65568689D01*
X103346597Y-65566742D01*
X103348222Y-65565252D01*
X103348654Y-65565019D01*
X103348687Y-65565055D01*
X103348845Y-65564916D01*
X103354280Y-65561983D01*
X103372236Y-65542559D01*
X103388357Y-65525119D01*
X103391786Y-65521553D01*
X103853377Y-65059962D01*
X103915689Y-65025936D01*
X103992210Y-65033290D01*
X104055912Y-65060659D01*
X104055921Y-65060662D01*
X104061228Y-65062942D01*
X104134244Y-65079464D01*
X104253579Y-65106467D01*
X104253584Y-65106468D01*
X104259216Y-65107742D01*
X104264987Y-65107969D01*
X104264989Y-65107969D01*
X104324756Y-65110317D01*
X104462053Y-65115712D01*
X104569348Y-65100155D01*
X104657231Y-65087413D01*
X104657236Y-65087412D01*
X104662945Y-65086584D01*
X104668409Y-65084729D01*
X104668414Y-65084728D01*
X104849693Y-65023192D01*
X104849698Y-65023190D01*
X104855165Y-65021334D01*
X104867090Y-65014656D01*
X104929683Y-64979602D01*
X105032276Y-64922147D01*
X105050924Y-64906638D01*
X105183913Y-64796031D01*
X105188345Y-64792345D01*
X105245463Y-64723669D01*
X105314453Y-64640718D01*
X105314455Y-64640715D01*
X105318147Y-64636276D01*
X105395941Y-64497365D01*
X105414510Y-64464208D01*
X105414511Y-64464206D01*
X105417334Y-64459165D01*
X105419190Y-64453698D01*
X105419192Y-64453693D01*
X105480728Y-64272414D01*
X105480729Y-64272409D01*
X105482584Y-64266945D01*
X105483412Y-64261236D01*
X105483413Y-64261231D01*
X105503126Y-64125270D01*
X105532696Y-64060724D01*
X105592468Y-64022412D01*
X105663464Y-64022496D01*
X105716917Y-64054255D01*
X105825367Y-64162705D01*
X105858395Y-64220784D01*
X105894751Y-64363933D01*
X105898392Y-64378269D01*
X105900807Y-64383507D01*
X105900809Y-64383512D01*
X105980754Y-64556927D01*
X105983377Y-64562616D01*
X105986710Y-64567332D01*
X106095958Y-64721915D01*
X106100533Y-64728389D01*
X106104675Y-64732424D01*
X106120673Y-64748008D01*
X106245938Y-64870035D01*
X106414720Y-64982812D01*
X106420023Y-64985090D01*
X106420026Y-64985092D01*
X106551283Y-65041484D01*
X106601228Y-65062942D01*
X106674244Y-65079464D01*
X106793579Y-65106467D01*
X106793584Y-65106468D01*
X106799216Y-65107742D01*
X106804987Y-65107969D01*
X106804989Y-65107969D01*
X106864756Y-65110317D01*
X107002053Y-65115712D01*
X107109348Y-65100155D01*
X107197231Y-65087413D01*
X107197236Y-65087412D01*
X107202945Y-65086584D01*
X107208409Y-65084729D01*
X107208414Y-65084728D01*
X107389693Y-65023192D01*
X107389698Y-65023190D01*
X107395165Y-65021334D01*
X107407090Y-65014656D01*
X107469683Y-64979602D01*
X107572276Y-64922147D01*
X107590924Y-64906638D01*
X107723913Y-64796031D01*
X107728345Y-64792345D01*
X107785463Y-64723669D01*
X107854453Y-64640718D01*
X107854455Y-64640715D01*
X107858147Y-64636276D01*
X107935941Y-64497365D01*
X107954510Y-64464208D01*
X107954511Y-64464206D01*
X107957334Y-64459165D01*
X107959190Y-64453698D01*
X107959192Y-64453693D01*
X108020728Y-64272414D01*
X108020729Y-64272409D01*
X108022584Y-64266945D01*
X108023412Y-64261236D01*
X108023413Y-64261231D01*
X108051179Y-64069727D01*
X108051712Y-64066053D01*
X108053232Y-64008000D01*
X108050564Y-63978964D01*
X108375148Y-63978964D01*
X108388424Y-64181522D01*
X108389845Y-64187118D01*
X108389846Y-64187123D01*
X108434751Y-64363933D01*
X108438392Y-64378269D01*
X108440807Y-64383507D01*
X108440809Y-64383512D01*
X108520754Y-64556927D01*
X108523377Y-64562616D01*
X108526710Y-64567332D01*
X108635958Y-64721915D01*
X108640533Y-64728389D01*
X108644675Y-64732424D01*
X108660673Y-64748008D01*
X108785938Y-64870035D01*
X108954720Y-64982812D01*
X108960023Y-64985090D01*
X108960026Y-64985092D01*
X109091283Y-65041484D01*
X109141228Y-65062942D01*
X109214244Y-65079464D01*
X109333579Y-65106467D01*
X109333584Y-65106468D01*
X109339216Y-65107742D01*
X109344987Y-65107969D01*
X109344989Y-65107969D01*
X109404756Y-65110317D01*
X109542053Y-65115712D01*
X109649348Y-65100155D01*
X109737231Y-65087413D01*
X109737236Y-65087412D01*
X109742945Y-65086584D01*
X109748409Y-65084729D01*
X109748414Y-65084728D01*
X109929693Y-65023192D01*
X109929698Y-65023190D01*
X109935165Y-65021334D01*
X109947090Y-65014656D01*
X110009683Y-64979602D01*
X110112276Y-64922147D01*
X110130924Y-64906638D01*
X110263913Y-64796031D01*
X110268345Y-64792345D01*
X110325463Y-64723669D01*
X110394453Y-64640718D01*
X110394455Y-64640715D01*
X110398147Y-64636276D01*
X110475941Y-64497365D01*
X110494510Y-64464208D01*
X110494511Y-64464206D01*
X110497334Y-64459165D01*
X110499190Y-64453698D01*
X110499192Y-64453693D01*
X110560728Y-64272414D01*
X110560729Y-64272409D01*
X110562584Y-64266945D01*
X110563412Y-64261236D01*
X110563413Y-64261231D01*
X110591179Y-64069727D01*
X110591712Y-64066053D01*
X110593232Y-64008000D01*
X110576274Y-63823444D01*
X110575187Y-63811613D01*
X110575186Y-63811610D01*
X110574658Y-63805859D01*
X110571736Y-63795499D01*
X110521125Y-63616046D01*
X110521124Y-63616044D01*
X110519557Y-63610487D01*
X110508978Y-63589033D01*
X110432331Y-63433609D01*
X110429776Y-63428428D01*
X110308320Y-63265779D01*
X110181527Y-63148572D01*
X110163503Y-63131911D01*
X110159258Y-63127987D01*
X110154375Y-63124906D01*
X110154371Y-63124903D01*
X109992464Y-63022748D01*
X109987581Y-63019667D01*
X109799039Y-62944446D01*
X109793379Y-62943320D01*
X109793375Y-62943319D01*
X109605613Y-62905971D01*
X109605610Y-62905971D01*
X109599946Y-62904844D01*
X109594171Y-62904768D01*
X109594167Y-62904768D01*
X109492793Y-62903441D01*
X109396971Y-62902187D01*
X109391274Y-62903166D01*
X109391273Y-62903166D01*
X109202607Y-62935585D01*
X109196910Y-62936564D01*
X109006463Y-63006824D01*
X108832010Y-63110612D01*
X108827670Y-63114418D01*
X108827666Y-63114421D01*
X108704606Y-63222343D01*
X108679392Y-63244455D01*
X108553720Y-63403869D01*
X108551031Y-63408980D01*
X108551029Y-63408983D01*
X108538073Y-63433609D01*
X108459203Y-63583515D01*
X108399007Y-63777378D01*
X108375148Y-63978964D01*
X108050564Y-63978964D01*
X108036274Y-63823444D01*
X108035187Y-63811613D01*
X108035186Y-63811610D01*
X108034658Y-63805859D01*
X108031736Y-63795499D01*
X107981125Y-63616046D01*
X107981124Y-63616044D01*
X107979557Y-63610487D01*
X107968978Y-63589033D01*
X107892331Y-63433609D01*
X107889776Y-63428428D01*
X107768320Y-63265779D01*
X107641527Y-63148572D01*
X107623503Y-63131911D01*
X107619258Y-63127987D01*
X107614375Y-63124906D01*
X107614371Y-63124903D01*
X107452464Y-63022748D01*
X107447581Y-63019667D01*
X107259039Y-62944446D01*
X107253379Y-62943320D01*
X107253375Y-62943319D01*
X107065613Y-62905971D01*
X107065610Y-62905971D01*
X107059946Y-62904844D01*
X107054171Y-62904768D01*
X107054167Y-62904768D01*
X106952793Y-62903441D01*
X106856971Y-62902187D01*
X106851274Y-62903166D01*
X106851273Y-62903166D01*
X106662607Y-62935585D01*
X106656910Y-62936564D01*
X106466463Y-63006824D01*
X106292010Y-63110612D01*
X106287670Y-63114418D01*
X106287666Y-63114421D01*
X106164606Y-63222343D01*
X106139392Y-63244455D01*
X106125963Y-63261490D01*
X106068083Y-63302603D01*
X105997163Y-63305897D01*
X105937918Y-63272579D01*
X105060461Y-62395122D01*
X104182933Y-61517595D01*
X104148908Y-61455283D01*
X104153972Y-61384468D01*
X104196519Y-61327632D01*
X104263039Y-61302821D01*
X104272028Y-61302500D01*
X105367587Y-61302499D01*
X105396066Y-61302499D01*
X105431818Y-61295388D01*
X105458126Y-61290156D01*
X105458128Y-61290155D01*
X105470301Y-61287734D01*
X105480621Y-61280839D01*
X105480622Y-61280838D01*
X105544168Y-61238377D01*
X105554484Y-61231484D01*
X105610734Y-61147301D01*
X105625500Y-61073067D01*
X105625499Y-59338500D01*
X105645501Y-59270379D01*
X105699157Y-59223886D01*
X105751499Y-59212500D01*
X107227500Y-59212500D01*
X107295621Y-59232502D01*
X107342114Y-59286158D01*
X107353500Y-59338500D01*
X107353501Y-61073066D01*
X107357335Y-61092340D01*
X107364596Y-61128847D01*
X107368266Y-61147301D01*
X107424516Y-61231484D01*
X107508699Y-61287734D01*
X107582933Y-61302500D01*
X108457858Y-61302500D01*
X109333066Y-61302499D01*
X109368818Y-61295388D01*
X109395126Y-61290156D01*
X109395128Y-61290155D01*
X109407301Y-61287734D01*
X109417621Y-61280839D01*
X109417622Y-61280838D01*
X109481168Y-61238377D01*
X109491484Y-61231484D01*
X109547734Y-61147301D01*
X109562500Y-61073067D01*
X109562499Y-59847382D01*
X109582501Y-59779262D01*
X109636157Y-59732769D01*
X109706431Y-59722665D01*
X109771011Y-59752158D01*
X109777594Y-59758288D01*
X113500477Y-63481171D01*
X113534503Y-63543483D01*
X113531715Y-63607630D01*
X113479007Y-63777378D01*
X113455148Y-63978964D01*
X113468424Y-64181522D01*
X113469845Y-64187118D01*
X113469846Y-64187123D01*
X113514751Y-64363933D01*
X113518392Y-64378269D01*
X113520807Y-64383507D01*
X113520809Y-64383512D01*
X113600754Y-64556927D01*
X113603377Y-64562616D01*
X113606710Y-64567332D01*
X113717982Y-64724780D01*
X113740963Y-64791955D01*
X113723978Y-64860890D01*
X113672421Y-64909699D01*
X113615085Y-64923500D01*
X113493029Y-64923500D01*
X113424908Y-64903498D01*
X113403934Y-64886595D01*
X113077321Y-64559982D01*
X113043295Y-64497670D01*
X113047103Y-64430387D01*
X113102584Y-64266945D01*
X113103412Y-64261236D01*
X113103413Y-64261231D01*
X113131179Y-64069727D01*
X113131712Y-64066053D01*
X113133232Y-64008000D01*
X113116274Y-63823444D01*
X113115187Y-63811613D01*
X113115186Y-63811610D01*
X113114658Y-63805859D01*
X113111736Y-63795499D01*
X113061125Y-63616046D01*
X113061124Y-63616044D01*
X113059557Y-63610487D01*
X113048978Y-63589033D01*
X112972331Y-63433609D01*
X112969776Y-63428428D01*
X112848320Y-63265779D01*
X112721527Y-63148572D01*
X112703503Y-63131911D01*
X112699258Y-63127987D01*
X112694375Y-63124906D01*
X112694371Y-63124903D01*
X112532464Y-63022748D01*
X112527581Y-63019667D01*
X112339039Y-62944446D01*
X112333379Y-62943320D01*
X112333375Y-62943319D01*
X112145613Y-62905971D01*
X112145610Y-62905971D01*
X112139946Y-62904844D01*
X112134171Y-62904768D01*
X112134167Y-62904768D01*
X112032793Y-62903441D01*
X111936971Y-62902187D01*
X111931274Y-62903166D01*
X111931273Y-62903166D01*
X111742607Y-62935585D01*
X111736910Y-62936564D01*
X111546463Y-63006824D01*
X111372010Y-63110612D01*
X111367670Y-63114418D01*
X111367666Y-63114421D01*
X111244606Y-63222343D01*
X111219392Y-63244455D01*
X111093720Y-63403869D01*
X111091031Y-63408980D01*
X111091029Y-63408983D01*
X111078073Y-63433609D01*
X110999203Y-63583515D01*
X110939007Y-63777378D01*
X110915148Y-63978964D01*
X110928424Y-64181522D01*
X110929845Y-64187118D01*
X110929846Y-64187123D01*
X110974751Y-64363933D01*
X110978392Y-64378269D01*
X110980807Y-64383507D01*
X110980809Y-64383512D01*
X111060754Y-64556927D01*
X111063377Y-64562616D01*
X111066710Y-64567332D01*
X111175958Y-64721915D01*
X111180533Y-64728389D01*
X111184675Y-64732424D01*
X111200673Y-64748008D01*
X111325938Y-64870035D01*
X111494720Y-64982812D01*
X111500023Y-64985090D01*
X111500026Y-64985092D01*
X111631283Y-65041484D01*
X111681228Y-65062942D01*
X111754244Y-65079464D01*
X111873579Y-65106467D01*
X111873584Y-65106468D01*
X111879216Y-65107742D01*
X111884987Y-65107969D01*
X111884989Y-65107969D01*
X111944756Y-65110317D01*
X112082053Y-65115712D01*
X112189348Y-65100155D01*
X112277231Y-65087413D01*
X112277236Y-65087412D01*
X112282945Y-65086584D01*
X112446387Y-65031103D01*
X112517320Y-65028147D01*
X112575982Y-65061321D01*
X113007084Y-65492423D01*
X113019592Y-65507909D01*
X113022526Y-65511134D01*
X113028175Y-65519882D01*
X113046095Y-65534009D01*
X113052430Y-65539003D01*
X113056431Y-65542559D01*
X113056516Y-65542459D01*
X113060473Y-65545812D01*
X113064155Y-65549494D01*
X113078691Y-65559882D01*
X113083378Y-65563401D01*
X113120857Y-65592946D01*
X113128925Y-65595779D01*
X113135885Y-65600753D01*
X113145863Y-65603737D01*
X113181586Y-65614420D01*
X113187235Y-65616256D01*
X113232208Y-65632050D01*
X113237404Y-65632500D01*
X113240109Y-65632500D01*
X113242365Y-65632597D01*
X113242841Y-65632740D01*
X113242839Y-65632786D01*
X113243038Y-65632799D01*
X113248955Y-65634568D01*
X113299124Y-65632597D01*
X113304070Y-65632500D01*
X119949089Y-65632500D01*
X119968883Y-65634606D01*
X119973236Y-65634811D01*
X119983416Y-65637003D01*
X120014086Y-65633373D01*
X120019429Y-65633058D01*
X120019418Y-65632928D01*
X120024598Y-65632500D01*
X120029797Y-65632500D01*
X120034921Y-65631647D01*
X120034934Y-65631646D01*
X120047387Y-65629573D01*
X120053262Y-65628736D01*
X120090275Y-65624355D01*
X120100616Y-65623131D01*
X120108324Y-65619430D01*
X120116763Y-65618025D01*
X120158747Y-65595371D01*
X120164010Y-65592690D01*
X120176907Y-65586497D01*
X120207004Y-65572045D01*
X120210996Y-65568689D01*
X120212943Y-65566742D01*
X120214568Y-65565252D01*
X120215000Y-65565019D01*
X120215033Y-65565055D01*
X120215191Y-65564916D01*
X120220626Y-65561983D01*
X120238582Y-65542559D01*
X120254703Y-65525119D01*
X120258132Y-65521553D01*
X121008423Y-64771262D01*
X121023909Y-64758754D01*
X121027134Y-64755820D01*
X121035882Y-64750171D01*
X121055003Y-64725916D01*
X121058559Y-64721915D01*
X121058459Y-64721830D01*
X121061812Y-64717873D01*
X121065494Y-64714191D01*
X121075882Y-64699655D01*
X121079401Y-64694968D01*
X121108946Y-64657489D01*
X121111779Y-64649421D01*
X121116753Y-64642461D01*
X121119736Y-64632486D01*
X121122203Y-64627450D01*
X121170134Y-64575075D01*
X121238772Y-64556927D01*
X121306325Y-64578769D01*
X121320154Y-64589687D01*
X121403656Y-64665667D01*
X121411076Y-64672419D01*
X121550293Y-64748008D01*
X121703522Y-64788207D01*
X121787477Y-64789526D01*
X121854319Y-64790576D01*
X121854322Y-64790576D01*
X121861916Y-64790695D01*
X122016332Y-64755329D01*
X122126975Y-64699682D01*
X122151072Y-64687563D01*
X122151075Y-64687561D01*
X122157855Y-64684151D01*
X122163626Y-64679222D01*
X122163629Y-64679220D01*
X122272536Y-64586204D01*
X122272536Y-64586203D01*
X122278314Y-64581269D01*
X122370755Y-64452624D01*
X122429842Y-64305641D01*
X122452162Y-64148807D01*
X122452307Y-64135000D01*
X122433276Y-63977733D01*
X122377280Y-63829546D01*
X122337634Y-63771861D01*
X122291855Y-63705251D01*
X122291854Y-63705249D01*
X122287553Y-63698992D01*
X122189681Y-63611792D01*
X122152126Y-63551542D01*
X122147500Y-63517715D01*
X122147500Y-63112572D01*
X122149606Y-63092778D01*
X122149811Y-63088425D01*
X122152003Y-63078245D01*
X122148373Y-63047573D01*
X122148058Y-63042231D01*
X122147928Y-63042242D01*
X122147500Y-63037064D01*
X122147500Y-63031863D01*
X122144573Y-63014277D01*
X122143736Y-63008400D01*
X122139355Y-62971385D01*
X122138131Y-62961044D01*
X122134430Y-62953336D01*
X122133025Y-62944897D01*
X122110380Y-62902929D01*
X122107684Y-62897638D01*
X122090474Y-62861797D01*
X122090472Y-62861794D01*
X122087045Y-62854657D01*
X122083689Y-62850664D01*
X122081763Y-62848738D01*
X122080250Y-62847088D01*
X122080014Y-62846652D01*
X122080049Y-62846620D01*
X122079916Y-62846469D01*
X122076983Y-62841034D01*
X122040119Y-62806957D01*
X122036553Y-62803528D01*
X121960781Y-62727756D01*
X125661500Y-62727756D01*
X125668202Y-62789448D01*
X125718929Y-62924764D01*
X125724309Y-62931943D01*
X125724311Y-62931946D01*
X125767790Y-62989959D01*
X125805596Y-63040404D01*
X125812776Y-63045785D01*
X125914054Y-63121689D01*
X125914057Y-63121691D01*
X125921236Y-63127071D01*
X126005922Y-63158818D01*
X126049157Y-63175026D01*
X126049159Y-63175026D01*
X126056552Y-63177798D01*
X126064402Y-63178651D01*
X126064403Y-63178651D01*
X126114847Y-63184131D01*
X126118244Y-63184500D01*
X127413756Y-63184500D01*
X127417153Y-63184131D01*
X127467597Y-63178651D01*
X127467598Y-63178651D01*
X127475448Y-63177798D01*
X127482841Y-63175026D01*
X127482843Y-63175026D01*
X127526078Y-63158818D01*
X127610764Y-63127071D01*
X127617943Y-63121691D01*
X127617946Y-63121689D01*
X127719224Y-63045785D01*
X127726404Y-63040404D01*
X127764210Y-62989959D01*
X127807689Y-62931946D01*
X127807691Y-62931943D01*
X127813071Y-62924764D01*
X127863798Y-62789448D01*
X127870500Y-62727756D01*
X127870500Y-62132659D01*
X128161500Y-62132659D01*
X128176493Y-62289806D01*
X128235823Y-62492042D01*
X128238573Y-62497381D01*
X128289180Y-62595640D01*
X128332324Y-62679410D01*
X128336028Y-62684125D01*
X128458808Y-62840432D01*
X128458812Y-62840436D01*
X128462514Y-62845149D01*
X128467044Y-62849080D01*
X128467045Y-62849081D01*
X128617165Y-62979350D01*
X128617170Y-62979354D01*
X128621696Y-62983281D01*
X128804126Y-63088819D01*
X129003222Y-63157957D01*
X129009155Y-63158817D01*
X129009158Y-63158818D01*
X129205860Y-63187338D01*
X129205863Y-63187338D01*
X129211800Y-63188199D01*
X129422333Y-63178455D01*
X129428157Y-63177051D01*
X129428160Y-63177051D01*
X129621393Y-63130482D01*
X129621395Y-63130481D01*
X129627226Y-63129076D01*
X129632684Y-63126594D01*
X129632688Y-63126593D01*
X129804704Y-63048381D01*
X129819084Y-63041843D01*
X129967500Y-62936564D01*
X129986100Y-62923370D01*
X129986101Y-62923369D01*
X129990986Y-62919904D01*
X130136728Y-62767660D01*
X130170539Y-62715296D01*
X130247800Y-62595640D01*
X130247801Y-62595637D01*
X130251052Y-62590603D01*
X130329834Y-62395122D01*
X130370229Y-62188271D01*
X130370500Y-62182730D01*
X130370500Y-61727341D01*
X130355507Y-61570194D01*
X130296177Y-61367958D01*
X130244326Y-61267284D01*
X130202422Y-61185921D01*
X130202420Y-61185918D01*
X130199676Y-61180590D01*
X130130355Y-61092340D01*
X130073192Y-61019568D01*
X130073188Y-61019564D01*
X130069486Y-61014851D01*
X130064955Y-61010919D01*
X129914835Y-60880650D01*
X129914830Y-60880646D01*
X129910304Y-60876719D01*
X129727874Y-60771181D01*
X129528778Y-60702043D01*
X129522845Y-60701183D01*
X129522842Y-60701182D01*
X129326140Y-60672662D01*
X129326137Y-60672662D01*
X129320200Y-60671801D01*
X129109667Y-60681545D01*
X129103843Y-60682949D01*
X129103840Y-60682949D01*
X128910607Y-60729518D01*
X128910605Y-60729519D01*
X128904774Y-60730924D01*
X128899316Y-60733406D01*
X128899312Y-60733407D01*
X128820562Y-60769213D01*
X128712916Y-60818157D01*
X128541014Y-60940096D01*
X128536872Y-60944423D01*
X128419648Y-61066877D01*
X128395272Y-61092340D01*
X128392021Y-61097375D01*
X128330006Y-61193420D01*
X128280948Y-61269397D01*
X128202166Y-61464878D01*
X128161771Y-61671729D01*
X128161500Y-61677270D01*
X128161500Y-62132659D01*
X127870500Y-62132659D01*
X127870500Y-61132244D01*
X127864731Y-61079137D01*
X127864651Y-61078403D01*
X127864651Y-61078402D01*
X127863798Y-61070552D01*
X127813071Y-60935236D01*
X127807691Y-60928057D01*
X127807689Y-60928054D01*
X127731785Y-60826776D01*
X127726404Y-60819596D01*
X127659178Y-60769213D01*
X127617946Y-60738311D01*
X127617943Y-60738309D01*
X127610764Y-60732929D01*
X127521046Y-60699296D01*
X127482843Y-60684974D01*
X127482841Y-60684974D01*
X127475448Y-60682202D01*
X127467598Y-60681349D01*
X127467597Y-60681349D01*
X127417153Y-60675869D01*
X127417152Y-60675869D01*
X127413756Y-60675500D01*
X126118244Y-60675500D01*
X126114848Y-60675869D01*
X126114847Y-60675869D01*
X126064403Y-60681349D01*
X126064402Y-60681349D01*
X126056552Y-60682202D01*
X126049159Y-60684974D01*
X126049157Y-60684974D01*
X126010954Y-60699296D01*
X125921236Y-60732929D01*
X125914057Y-60738309D01*
X125914054Y-60738311D01*
X125872822Y-60769213D01*
X125805596Y-60819596D01*
X125800215Y-60826776D01*
X125724311Y-60928054D01*
X125724309Y-60928057D01*
X125718929Y-60935236D01*
X125668202Y-61070552D01*
X125667349Y-61078402D01*
X125667349Y-61078403D01*
X125667269Y-61079137D01*
X125661500Y-61132244D01*
X125661500Y-62727756D01*
X121960781Y-62727756D01*
X117901637Y-58668612D01*
X115117169Y-55884145D01*
X126718591Y-55884145D01*
X126748620Y-56033071D01*
X126752520Y-56040725D01*
X126813692Y-56160783D01*
X126813694Y-56160786D01*
X126817592Y-56168436D01*
X126823405Y-56174757D01*
X126823406Y-56174759D01*
X126898798Y-56256746D01*
X126920426Y-56280266D01*
X126927721Y-56284789D01*
X126927722Y-56284790D01*
X127034393Y-56350929D01*
X127049544Y-56360323D01*
X127195435Y-56402709D01*
X127206207Y-56403500D01*
X127315257Y-56403500D01*
X127319503Y-56402918D01*
X127319509Y-56402918D01*
X127398254Y-56392131D01*
X127427718Y-56388095D01*
X127459779Y-56374221D01*
X127559264Y-56331169D01*
X127559265Y-56331169D01*
X127567146Y-56327758D01*
X127615109Y-56288919D01*
X127678539Y-56237555D01*
X127678541Y-56237553D01*
X127685213Y-56232150D01*
X127690378Y-56224883D01*
X127768244Y-56115315D01*
X127768244Y-56115314D01*
X127773220Y-56108313D01*
X127824682Y-55965371D01*
X127829311Y-55902345D01*
X127835180Y-55822418D01*
X127835809Y-55813855D01*
X127805780Y-55664929D01*
X127771561Y-55597770D01*
X127740708Y-55537217D01*
X127740706Y-55537214D01*
X127736808Y-55529564D01*
X127684657Y-55472850D01*
X127639784Y-55424052D01*
X127639783Y-55424051D01*
X127633974Y-55417734D01*
X127568189Y-55376945D01*
X127512156Y-55342203D01*
X127512155Y-55342202D01*
X127504856Y-55337677D01*
X127358965Y-55295291D01*
X127348193Y-55294500D01*
X127239143Y-55294500D01*
X127234897Y-55295082D01*
X127234891Y-55295082D01*
X127156146Y-55305869D01*
X127126682Y-55309905D01*
X127118798Y-55313317D01*
X127118797Y-55313317D01*
X127062506Y-55337677D01*
X126987254Y-55370242D01*
X126972223Y-55382414D01*
X126875861Y-55460445D01*
X126875859Y-55460447D01*
X126869187Y-55465850D01*
X126864213Y-55472849D01*
X126864212Y-55472850D01*
X126823907Y-55529564D01*
X126781180Y-55589687D01*
X126729718Y-55732629D01*
X126729089Y-55741189D01*
X126729089Y-55741191D01*
X126724371Y-55805436D01*
X126718591Y-55884145D01*
X115117169Y-55884145D01*
X113761418Y-54528394D01*
X113748913Y-54512912D01*
X113745977Y-54509685D01*
X113740325Y-54500932D01*
X113716062Y-54481805D01*
X113712067Y-54478255D01*
X113711983Y-54478354D01*
X113708020Y-54474996D01*
X113704344Y-54471320D01*
X113700114Y-54468297D01*
X113689848Y-54460960D01*
X113685105Y-54457399D01*
X113655825Y-54434317D01*
X113655821Y-54434315D01*
X113647643Y-54427868D01*
X113639575Y-54425035D01*
X113632615Y-54420061D01*
X113605610Y-54411985D01*
X113593425Y-54408341D01*
X113540430Y-54376719D01*
X113164226Y-54000515D01*
X112786405Y-53622695D01*
X112752380Y-53560382D01*
X112749500Y-53533599D01*
X112749500Y-48536414D01*
X112751606Y-48516620D01*
X112751811Y-48512267D01*
X112754003Y-48502087D01*
X112750373Y-48471417D01*
X112750058Y-48466074D01*
X112749928Y-48466085D01*
X112749500Y-48460905D01*
X112749500Y-48455706D01*
X112748647Y-48450582D01*
X112748646Y-48450569D01*
X112746573Y-48438116D01*
X112745736Y-48432241D01*
X112741355Y-48395228D01*
X112740131Y-48384887D01*
X112736430Y-48377179D01*
X112735025Y-48368740D01*
X112712371Y-48326756D01*
X112709690Y-48321493D01*
X112696354Y-48293720D01*
X112689045Y-48278499D01*
X112685689Y-48274507D01*
X112683742Y-48272560D01*
X112682252Y-48270935D01*
X112682019Y-48270503D01*
X112682055Y-48270470D01*
X112681916Y-48270312D01*
X112678983Y-48264877D01*
X112669612Y-48256214D01*
X112642119Y-48230800D01*
X112638553Y-48227371D01*
X110411405Y-46000224D01*
X110377380Y-45937912D01*
X110374500Y-45911129D01*
X110374500Y-44378029D01*
X110394502Y-44309908D01*
X110448158Y-44263415D01*
X110518432Y-44253311D01*
X110583012Y-44282805D01*
X110589595Y-44288934D01*
X114924595Y-48623933D01*
X114958621Y-48686245D01*
X114961500Y-48713028D01*
X114961500Y-50439886D01*
X114941498Y-50508007D01*
X114925813Y-50527470D01*
X114920526Y-50531526D01*
X114915503Y-50538072D01*
X114915502Y-50538073D01*
X114883083Y-50580323D01*
X114831645Y-50647358D01*
X114828486Y-50654984D01*
X114828485Y-50654986D01*
X114807389Y-50705916D01*
X114775772Y-50782246D01*
X114756715Y-50927000D01*
X114775772Y-51071754D01*
X114780295Y-51082673D01*
X114817741Y-51173074D01*
X114831645Y-51206642D01*
X114920526Y-51322474D01*
X114927076Y-51327500D01*
X114927079Y-51327503D01*
X115016784Y-51396336D01*
X115036357Y-51411355D01*
X115171246Y-51467228D01*
X115299612Y-51484128D01*
X115364538Y-51512849D01*
X115372260Y-51519954D01*
X117549524Y-53697219D01*
X117564661Y-53715961D01*
X117565779Y-53717190D01*
X117571429Y-53725940D01*
X117579607Y-53732387D01*
X117597799Y-53746728D01*
X117602241Y-53750676D01*
X117602303Y-53750603D01*
X117606268Y-53753963D01*
X117609943Y-53757638D01*
X117614165Y-53760655D01*
X117614171Y-53760660D01*
X117625650Y-53768862D01*
X117630399Y-53772428D01*
X117670647Y-53804156D01*
X117679284Y-53807189D01*
X117686734Y-53812513D01*
X117696710Y-53815497D01*
X117696711Y-53815497D01*
X117712046Y-53820083D01*
X117735849Y-53827202D01*
X117741486Y-53829034D01*
X117782199Y-53843331D01*
X117789851Y-53846018D01*
X117795416Y-53846500D01*
X117798124Y-53846500D01*
X117800758Y-53846614D01*
X117800856Y-53846643D01*
X117800849Y-53846807D01*
X117801553Y-53846851D01*
X117807778Y-53848713D01*
X117861635Y-53846597D01*
X117866582Y-53846500D01*
X124908964Y-53846500D01*
X124932912Y-53849049D01*
X124934577Y-53849128D01*
X124944760Y-53851320D01*
X124955101Y-53850096D01*
X124978107Y-53847373D01*
X124984038Y-53847023D01*
X124984030Y-53846928D01*
X124989208Y-53846500D01*
X124994408Y-53846500D01*
X124999537Y-53845646D01*
X124999540Y-53845646D01*
X125013449Y-53843331D01*
X125019327Y-53842494D01*
X125059885Y-53837694D01*
X125059886Y-53837694D01*
X125070225Y-53836470D01*
X125078477Y-53832507D01*
X125087510Y-53831004D01*
X125096679Y-53826057D01*
X125096681Y-53826056D01*
X125132616Y-53806666D01*
X125137909Y-53803969D01*
X125176966Y-53785215D01*
X125176970Y-53785212D01*
X125184116Y-53781781D01*
X125188392Y-53778186D01*
X125190315Y-53776263D01*
X125192247Y-53774491D01*
X125192326Y-53774448D01*
X125192439Y-53774572D01*
X125192979Y-53774096D01*
X125198698Y-53771010D01*
X125216896Y-53751324D01*
X125235300Y-53731414D01*
X125238730Y-53727848D01*
X125569216Y-53397362D01*
X125587964Y-53382220D01*
X125589189Y-53381105D01*
X125597940Y-53375455D01*
X125604387Y-53367277D01*
X125604389Y-53367275D01*
X125618729Y-53349084D01*
X125622678Y-53344640D01*
X125622604Y-53344578D01*
X125625957Y-53340621D01*
X125629638Y-53336940D01*
X125640865Y-53321230D01*
X125644421Y-53316493D01*
X125669708Y-53284416D01*
X125676156Y-53276237D01*
X125679189Y-53267600D01*
X125684513Y-53260150D01*
X125699202Y-53211035D01*
X125701034Y-53205398D01*
X125715390Y-53164517D01*
X125715390Y-53164516D01*
X125718018Y-53157033D01*
X125718500Y-53151468D01*
X125718500Y-53148760D01*
X125718614Y-53146126D01*
X125718643Y-53146028D01*
X125718807Y-53146035D01*
X125718851Y-53145331D01*
X125720713Y-53139106D01*
X125718597Y-53085249D01*
X125718500Y-53080302D01*
X125718500Y-50104145D01*
X126718591Y-50104145D01*
X126748620Y-50253071D01*
X126752520Y-50260725D01*
X126813692Y-50380783D01*
X126813694Y-50380786D01*
X126817592Y-50388436D01*
X126823405Y-50394757D01*
X126823406Y-50394759D01*
X126914616Y-50493948D01*
X126920426Y-50500266D01*
X126927721Y-50504789D01*
X126927722Y-50504790D01*
X127042244Y-50575797D01*
X127049544Y-50580323D01*
X127195435Y-50622709D01*
X127206207Y-50623500D01*
X127315257Y-50623500D01*
X127319503Y-50622918D01*
X127319509Y-50622918D01*
X127398254Y-50612131D01*
X127427718Y-50608095D01*
X127445683Y-50600321D01*
X127559264Y-50551169D01*
X127559265Y-50551169D01*
X127567146Y-50547758D01*
X127616235Y-50508007D01*
X127678539Y-50457555D01*
X127678541Y-50457553D01*
X127685213Y-50452150D01*
X127690317Y-50444969D01*
X127768244Y-50335315D01*
X127768244Y-50335314D01*
X127773220Y-50328313D01*
X127824682Y-50185371D01*
X127827026Y-50153461D01*
X127833140Y-50070193D01*
X127835809Y-50033855D01*
X127805780Y-49884929D01*
X127794077Y-49861960D01*
X127740708Y-49757217D01*
X127740706Y-49757214D01*
X127736808Y-49749564D01*
X127684657Y-49692850D01*
X127639784Y-49644052D01*
X127639783Y-49644051D01*
X127633974Y-49637734D01*
X127566094Y-49595646D01*
X127512156Y-49562203D01*
X127512155Y-49562202D01*
X127504856Y-49557677D01*
X127358965Y-49515291D01*
X127348193Y-49514500D01*
X127239143Y-49514500D01*
X127234897Y-49515082D01*
X127234891Y-49515082D01*
X127156146Y-49525869D01*
X127126682Y-49529905D01*
X127118798Y-49533317D01*
X127118797Y-49533317D01*
X127062506Y-49557677D01*
X126987254Y-49590242D01*
X126980581Y-49595646D01*
X126875861Y-49680445D01*
X126875859Y-49680447D01*
X126869187Y-49685850D01*
X126781180Y-49809687D01*
X126729718Y-49952629D01*
X126729089Y-49961189D01*
X126729089Y-49961191D01*
X126724870Y-50018646D01*
X126718591Y-50104145D01*
X125718500Y-50104145D01*
X125718500Y-47326384D01*
X125738502Y-47258263D01*
X125755405Y-47237289D01*
X127114107Y-45878587D01*
X127176419Y-45844561D01*
X127252941Y-45851915D01*
X127297228Y-45870942D01*
X127370244Y-45887464D01*
X127489579Y-45914467D01*
X127489584Y-45914468D01*
X127495216Y-45915742D01*
X127500987Y-45915969D01*
X127500989Y-45915969D01*
X127560756Y-45918317D01*
X127698053Y-45923712D01*
X127805348Y-45908155D01*
X127893231Y-45895413D01*
X127893236Y-45895412D01*
X127898945Y-45894584D01*
X127904409Y-45892729D01*
X127904414Y-45892728D01*
X128085693Y-45831192D01*
X128085698Y-45831190D01*
X128091165Y-45829334D01*
X128101842Y-45823355D01*
X128182032Y-45778446D01*
X128268276Y-45730147D01*
X128288290Y-45713502D01*
X128419913Y-45604031D01*
X128424345Y-45600345D01*
X128471894Y-45543174D01*
X128550453Y-45448718D01*
X128550455Y-45448715D01*
X128554147Y-45444276D01*
X128653334Y-45267165D01*
X128655190Y-45261698D01*
X128655192Y-45261693D01*
X128716728Y-45080414D01*
X128716729Y-45080409D01*
X128718584Y-45074945D01*
X128719412Y-45069236D01*
X128719413Y-45069231D01*
X128746518Y-44882285D01*
X128747712Y-44874053D01*
X128749232Y-44816000D01*
X128735392Y-44665383D01*
X128731187Y-44619613D01*
X128731186Y-44619610D01*
X128730658Y-44613859D01*
X128728728Y-44607016D01*
X128677125Y-44424046D01*
X128677124Y-44424044D01*
X128675557Y-44418487D01*
X128664978Y-44397033D01*
X128588331Y-44241609D01*
X128585776Y-44236428D01*
X128566784Y-44210994D01*
X128512017Y-44137653D01*
X128464320Y-44073779D01*
X128351644Y-43969622D01*
X128320609Y-43940933D01*
X129075500Y-43940933D01*
X129075501Y-45691066D01*
X129082539Y-45726453D01*
X129087666Y-45752228D01*
X129090266Y-45765301D01*
X129097161Y-45775620D01*
X129097162Y-45775622D01*
X129137516Y-45836015D01*
X129146516Y-45849484D01*
X129230699Y-45905734D01*
X129304933Y-45920500D01*
X130179858Y-45920500D01*
X131055066Y-45920499D01*
X131090818Y-45913388D01*
X131117126Y-45908156D01*
X131117128Y-45908155D01*
X131129301Y-45905734D01*
X131139621Y-45898839D01*
X131139622Y-45898838D01*
X131203168Y-45856377D01*
X131213484Y-45849484D01*
X131269734Y-45765301D01*
X131284500Y-45691067D01*
X131284499Y-43940934D01*
X131269734Y-43866699D01*
X131246360Y-43831717D01*
X131220377Y-43792832D01*
X131213484Y-43782516D01*
X131129301Y-43726266D01*
X131055067Y-43711500D01*
X130180142Y-43711500D01*
X129304934Y-43711501D01*
X129269182Y-43718612D01*
X129242874Y-43723844D01*
X129242872Y-43723845D01*
X129230699Y-43726266D01*
X129220379Y-43733161D01*
X129220378Y-43733162D01*
X129166138Y-43769405D01*
X129146516Y-43782516D01*
X129090266Y-43866699D01*
X129075500Y-43940933D01*
X128320609Y-43940933D01*
X128319503Y-43939911D01*
X128315258Y-43935987D01*
X128310375Y-43932906D01*
X128310371Y-43932903D01*
X128148464Y-43830748D01*
X128143581Y-43827667D01*
X127955039Y-43752446D01*
X127949379Y-43751320D01*
X127949375Y-43751319D01*
X127761613Y-43713971D01*
X127761610Y-43713971D01*
X127755946Y-43712844D01*
X127750171Y-43712768D01*
X127750167Y-43712768D01*
X127648793Y-43711441D01*
X127552971Y-43710187D01*
X127547274Y-43711166D01*
X127547273Y-43711166D01*
X127419271Y-43733161D01*
X127352910Y-43744564D01*
X127162463Y-43814824D01*
X126988010Y-43918612D01*
X126983670Y-43922418D01*
X126983666Y-43922421D01*
X126890734Y-44003921D01*
X126835392Y-44052455D01*
X126709720Y-44211869D01*
X126707031Y-44216980D01*
X126707029Y-44216983D01*
X126672045Y-44283477D01*
X126615203Y-44391515D01*
X126555007Y-44585378D01*
X126531148Y-44786964D01*
X126544424Y-44989522D01*
X126545845Y-44995118D01*
X126545846Y-44995123D01*
X126583055Y-45141630D01*
X126594392Y-45186269D01*
X126601375Y-45201417D01*
X126611730Y-45271652D01*
X126582468Y-45336338D01*
X126576044Y-45343262D01*
X125108784Y-46810522D01*
X125090036Y-46825664D01*
X125088811Y-46826779D01*
X125080060Y-46832429D01*
X125073613Y-46840607D01*
X125073611Y-46840609D01*
X125059271Y-46858800D01*
X125055325Y-46863241D01*
X125055398Y-46863303D01*
X125052039Y-46867267D01*
X125048362Y-46870944D01*
X125037108Y-46886692D01*
X125033602Y-46891362D01*
X125001844Y-46931647D01*
X124998812Y-46940281D01*
X124993486Y-46947734D01*
X124982506Y-46984450D01*
X124978799Y-46996844D01*
X124976964Y-47002492D01*
X124967068Y-47030673D01*
X124959982Y-47050851D01*
X124959500Y-47056416D01*
X124959500Y-47059124D01*
X124959386Y-47061758D01*
X124959357Y-47061856D01*
X124959193Y-47061849D01*
X124959149Y-47062553D01*
X124957287Y-47068778D01*
X124957696Y-47079183D01*
X124959403Y-47122635D01*
X124959500Y-47127582D01*
X124959500Y-51601616D01*
X124939498Y-51669737D01*
X124885842Y-51716230D01*
X124815568Y-51726334D01*
X124750988Y-51696840D01*
X124744405Y-51690711D01*
X117686954Y-44633260D01*
X117652928Y-44570948D01*
X117651127Y-44560611D01*
X117649513Y-44548345D01*
X117642431Y-44494554D01*
X117635306Y-44440432D01*
X117635305Y-44440430D01*
X117634228Y-44432246D01*
X117595765Y-44339389D01*
X117581515Y-44304986D01*
X117581514Y-44304984D01*
X117578355Y-44297358D01*
X117500316Y-44195655D01*
X117494501Y-44188077D01*
X117494500Y-44188076D01*
X117489474Y-44181526D01*
X117482924Y-44176500D01*
X117482921Y-44176497D01*
X117380196Y-44097673D01*
X117380194Y-44097672D01*
X117373643Y-44092645D01*
X117238754Y-44036772D01*
X117094000Y-44017715D01*
X117085812Y-44018793D01*
X116957432Y-44035694D01*
X116957430Y-44035695D01*
X116949246Y-44036772D01*
X116929491Y-44044955D01*
X116821986Y-44089485D01*
X116821984Y-44089486D01*
X116814358Y-44092645D01*
X116698526Y-44181526D01*
X116609645Y-44297358D01*
X116606486Y-44304984D01*
X116606485Y-44304986D01*
X116592235Y-44339389D01*
X116553772Y-44432246D01*
X116552695Y-44440430D01*
X116552694Y-44440432D01*
X116538488Y-44548344D01*
X116534715Y-44577000D01*
X116535793Y-44585188D01*
X116552478Y-44711923D01*
X116553772Y-44721754D01*
X116560154Y-44737161D01*
X116595741Y-44823074D01*
X116609645Y-44856642D01*
X116698526Y-44972474D01*
X116705076Y-44977500D01*
X116705079Y-44977503D01*
X116807804Y-45056327D01*
X116814357Y-45061355D01*
X116949246Y-45117228D01*
X117077612Y-45134128D01*
X117142538Y-45162849D01*
X117150260Y-45169954D01*
X124283073Y-52302767D01*
X124317099Y-52365079D01*
X124312034Y-52435894D01*
X124293940Y-52468566D01*
X124234675Y-52545802D01*
X124234673Y-52545805D01*
X124229645Y-52552358D01*
X124173772Y-52687246D01*
X124154715Y-52832000D01*
X124155793Y-52840188D01*
X124169599Y-52945054D01*
X124158660Y-53015202D01*
X124111532Y-53068301D01*
X124044677Y-53087500D01*
X118065384Y-53087500D01*
X117997263Y-53067498D01*
X117976289Y-53050595D01*
X115908954Y-50983260D01*
X115874928Y-50920948D01*
X115873127Y-50910611D01*
X115857306Y-50790432D01*
X115857305Y-50790430D01*
X115856228Y-50782246D01*
X115824611Y-50705916D01*
X115803515Y-50654986D01*
X115803514Y-50654984D01*
X115800355Y-50647358D01*
X115711474Y-50531526D01*
X115706863Y-50527988D01*
X115673379Y-50466668D01*
X115670500Y-50439885D01*
X115670500Y-48565257D01*
X115672606Y-48545463D01*
X115672811Y-48541110D01*
X115675003Y-48530930D01*
X115671373Y-48500260D01*
X115671058Y-48494917D01*
X115670928Y-48494928D01*
X115670500Y-48489748D01*
X115670500Y-48484549D01*
X115669647Y-48479425D01*
X115669646Y-48479412D01*
X115667573Y-48466959D01*
X115666736Y-48461084D01*
X115662355Y-48424071D01*
X115661131Y-48413730D01*
X115657430Y-48406022D01*
X115656025Y-48397583D01*
X115633371Y-48355599D01*
X115630690Y-48350336D01*
X115613475Y-48314486D01*
X115610045Y-48307342D01*
X115606689Y-48303350D01*
X115604742Y-48301403D01*
X115603252Y-48299778D01*
X115603019Y-48299346D01*
X115603055Y-48299313D01*
X115602916Y-48299155D01*
X115599983Y-48293720D01*
X115591246Y-48285643D01*
X115563119Y-48259643D01*
X115559553Y-48256214D01*
X113068640Y-45765301D01*
X110577112Y-43273774D01*
X110543086Y-43211462D01*
X110540415Y-43186611D01*
X110541285Y-43180000D01*
X110535229Y-43134002D01*
X110523306Y-43043432D01*
X110523305Y-43043430D01*
X110522228Y-43035246D01*
X110469818Y-42908718D01*
X110469515Y-42907986D01*
X110469514Y-42907984D01*
X110466355Y-42900358D01*
X110410451Y-42827502D01*
X110382501Y-42791077D01*
X110382500Y-42791076D01*
X110377474Y-42784526D01*
X110370924Y-42779500D01*
X110370921Y-42779497D01*
X110268196Y-42700673D01*
X110268194Y-42700672D01*
X110261643Y-42695645D01*
X110126754Y-42639772D01*
X109998388Y-42622872D01*
X109933462Y-42594151D01*
X109925740Y-42587046D01*
X109843289Y-42504595D01*
X109809263Y-42442283D01*
X109814328Y-42371468D01*
X109856875Y-42314632D01*
X109923395Y-42289821D01*
X109932384Y-42289500D01*
X116288080Y-42289500D01*
X116312028Y-42292049D01*
X116313693Y-42292128D01*
X116323876Y-42294320D01*
X116334217Y-42293096D01*
X116357223Y-42290373D01*
X116363154Y-42290023D01*
X116363146Y-42289928D01*
X116368324Y-42289500D01*
X116373524Y-42289500D01*
X116378653Y-42288646D01*
X116378656Y-42288646D01*
X116392565Y-42286331D01*
X116398443Y-42285494D01*
X116439001Y-42280694D01*
X116439002Y-42280694D01*
X116449341Y-42279470D01*
X116457593Y-42275507D01*
X116466626Y-42274004D01*
X116475795Y-42269057D01*
X116475797Y-42269056D01*
X116511732Y-42249666D01*
X116517025Y-42246969D01*
X116517035Y-42246964D01*
X126531148Y-42246964D01*
X126544424Y-42449522D01*
X126545845Y-42455118D01*
X126545846Y-42455123D01*
X126587902Y-42620715D01*
X126594392Y-42646269D01*
X126596809Y-42651512D01*
X126634010Y-42732208D01*
X126679377Y-42830616D01*
X126796533Y-42996389D01*
X126941938Y-43138035D01*
X127110720Y-43250812D01*
X127116023Y-43253090D01*
X127116026Y-43253092D01*
X127291921Y-43328662D01*
X127297228Y-43330942D01*
X127370244Y-43347464D01*
X127489579Y-43374467D01*
X127489584Y-43374468D01*
X127495216Y-43375742D01*
X127500987Y-43375969D01*
X127500989Y-43375969D01*
X127560756Y-43378317D01*
X127698053Y-43383712D01*
X127798499Y-43369148D01*
X127893231Y-43355413D01*
X127893236Y-43355412D01*
X127898945Y-43354584D01*
X127904409Y-43352729D01*
X127904414Y-43352728D01*
X128085693Y-43291192D01*
X128085698Y-43291190D01*
X128091165Y-43289334D01*
X128118950Y-43273774D01*
X128230215Y-43211462D01*
X128268276Y-43190147D01*
X128280477Y-43180000D01*
X128419913Y-43064031D01*
X128424345Y-43060345D01*
X128492389Y-42978532D01*
X128550453Y-42908718D01*
X128550455Y-42908715D01*
X128554147Y-42904276D01*
X128653334Y-42727165D01*
X128655190Y-42721698D01*
X128655192Y-42721693D01*
X128716728Y-42540414D01*
X128716729Y-42540409D01*
X128718584Y-42534945D01*
X128719412Y-42529236D01*
X128719413Y-42529231D01*
X128747179Y-42337727D01*
X128747712Y-42334053D01*
X128749232Y-42276000D01*
X128730658Y-42073859D01*
X128729090Y-42068299D01*
X128677125Y-41884046D01*
X128677124Y-41884044D01*
X128675557Y-41878487D01*
X128664978Y-41857033D01*
X128588331Y-41701609D01*
X128585776Y-41696428D01*
X128464320Y-41533779D01*
X128315258Y-41395987D01*
X128310375Y-41392906D01*
X128310371Y-41392903D01*
X128148464Y-41290748D01*
X128143581Y-41287667D01*
X127955039Y-41212446D01*
X127949379Y-41211320D01*
X127949375Y-41211319D01*
X127761613Y-41173971D01*
X127761610Y-41173971D01*
X127755946Y-41172844D01*
X127750171Y-41172768D01*
X127750167Y-41172768D01*
X127648793Y-41171441D01*
X127552971Y-41170187D01*
X127547274Y-41171166D01*
X127547273Y-41171166D01*
X127358607Y-41203585D01*
X127352910Y-41204564D01*
X127162463Y-41274824D01*
X126988010Y-41378612D01*
X126983670Y-41382418D01*
X126983666Y-41382421D01*
X126963723Y-41399911D01*
X126835392Y-41512455D01*
X126831817Y-41516990D01*
X126831816Y-41516991D01*
X126818008Y-41534506D01*
X126709720Y-41671869D01*
X126707031Y-41676980D01*
X126707029Y-41676983D01*
X126659128Y-41768027D01*
X126615203Y-41851515D01*
X126555007Y-42045378D01*
X126531148Y-42246964D01*
X116517035Y-42246964D01*
X116556082Y-42228215D01*
X116556086Y-42228212D01*
X116563232Y-42224781D01*
X116567508Y-42221186D01*
X116569431Y-42219263D01*
X116571363Y-42217491D01*
X116571442Y-42217448D01*
X116571555Y-42217572D01*
X116572095Y-42217096D01*
X116577814Y-42214010D01*
X116614417Y-42174413D01*
X116617846Y-42170848D01*
X119118107Y-39670587D01*
X119180419Y-39636561D01*
X119256941Y-39643915D01*
X119301228Y-39662942D01*
X119374244Y-39679464D01*
X119493579Y-39706467D01*
X119493584Y-39706468D01*
X119499216Y-39707742D01*
X119504987Y-39707969D01*
X119504989Y-39707969D01*
X119564756Y-39710317D01*
X119702053Y-39715712D01*
X119809348Y-39700155D01*
X119897231Y-39687413D01*
X119897236Y-39687412D01*
X119902945Y-39686584D01*
X119908409Y-39684729D01*
X119908414Y-39684728D01*
X120089693Y-39623192D01*
X120089698Y-39623190D01*
X120095165Y-39621334D01*
X120272276Y-39522147D01*
X120281065Y-39514838D01*
X120423913Y-39396031D01*
X120428345Y-39392345D01*
X120468515Y-39344046D01*
X120554453Y-39240718D01*
X120554455Y-39240715D01*
X120558147Y-39236276D01*
X120657334Y-39059165D01*
X120659190Y-39053698D01*
X120659192Y-39053693D01*
X120720728Y-38872414D01*
X120720729Y-38872409D01*
X120722584Y-38866945D01*
X120723412Y-38861236D01*
X120723413Y-38861231D01*
X120746233Y-38703841D01*
X120751712Y-38666053D01*
X120753232Y-38608000D01*
X120734658Y-38405859D01*
X120733090Y-38400299D01*
X120681125Y-38216046D01*
X120681124Y-38216044D01*
X120679557Y-38210487D01*
X120668978Y-38189033D01*
X120592331Y-38033609D01*
X120589776Y-38028428D01*
X120586321Y-38023801D01*
X120586320Y-38023799D01*
X120578920Y-38013890D01*
X120554188Y-37947340D01*
X120569361Y-37877984D01*
X120619622Y-37827841D01*
X120679877Y-37812500D01*
X126920971Y-37812500D01*
X126989092Y-37832502D01*
X127010066Y-37849405D01*
X128638595Y-39477933D01*
X128672620Y-39540245D01*
X128675500Y-39567028D01*
X128675500Y-41074743D01*
X128673394Y-41094537D01*
X128673189Y-41098890D01*
X128670997Y-41109070D01*
X128672221Y-41119408D01*
X128674627Y-41139737D01*
X128674942Y-41145083D01*
X128675072Y-41145072D01*
X128675500Y-41150252D01*
X128675500Y-41155451D01*
X128676353Y-41160575D01*
X128676354Y-41160588D01*
X128678427Y-41173041D01*
X128679264Y-41178916D01*
X128684869Y-41226270D01*
X128688570Y-41233978D01*
X128689975Y-41242417D01*
X128712629Y-41284401D01*
X128715310Y-41289664D01*
X128735955Y-41332658D01*
X128739311Y-41336650D01*
X128741258Y-41338597D01*
X128742748Y-41340222D01*
X128742981Y-41340654D01*
X128742945Y-41340687D01*
X128743084Y-41340845D01*
X128746017Y-41346280D01*
X128753664Y-41353349D01*
X128782881Y-41380357D01*
X128786447Y-41383786D01*
X129125064Y-41722403D01*
X129159090Y-41784715D01*
X129153167Y-41850883D01*
X129155203Y-41851515D01*
X129095007Y-42045378D01*
X129071148Y-42246964D01*
X129084424Y-42449522D01*
X129085845Y-42455118D01*
X129085846Y-42455123D01*
X129127902Y-42620715D01*
X129134392Y-42646269D01*
X129136809Y-42651512D01*
X129174010Y-42732208D01*
X129219377Y-42830616D01*
X129336533Y-42996389D01*
X129481938Y-43138035D01*
X129650720Y-43250812D01*
X129656023Y-43253090D01*
X129656026Y-43253092D01*
X129831921Y-43328662D01*
X129837228Y-43330942D01*
X129910244Y-43347464D01*
X130029579Y-43374467D01*
X130029584Y-43374468D01*
X130035216Y-43375742D01*
X130040987Y-43375969D01*
X130040989Y-43375969D01*
X130100756Y-43378317D01*
X130238053Y-43383712D01*
X130338499Y-43369148D01*
X130433231Y-43355413D01*
X130433236Y-43355412D01*
X130438945Y-43354584D01*
X130444409Y-43352729D01*
X130444414Y-43352728D01*
X130625693Y-43291192D01*
X130625698Y-43291190D01*
X130631165Y-43289334D01*
X130658950Y-43273774D01*
X130770215Y-43211462D01*
X130808276Y-43190147D01*
X130820477Y-43180000D01*
X130959913Y-43064031D01*
X130964345Y-43060345D01*
X131032389Y-42978532D01*
X131090453Y-42908718D01*
X131090455Y-42908715D01*
X131094147Y-42904276D01*
X131193334Y-42727165D01*
X131195190Y-42721698D01*
X131195192Y-42721693D01*
X131256728Y-42540414D01*
X131256729Y-42540409D01*
X131258584Y-42534945D01*
X131259412Y-42529236D01*
X131259413Y-42529231D01*
X131287179Y-42337727D01*
X131287712Y-42334053D01*
X131289232Y-42276000D01*
X131270658Y-42073859D01*
X131269090Y-42068299D01*
X131217125Y-41884046D01*
X131217124Y-41884044D01*
X131215557Y-41878487D01*
X131204978Y-41857033D01*
X131128331Y-41701609D01*
X131125776Y-41696428D01*
X131004320Y-41533779D01*
X130855258Y-41395987D01*
X130850375Y-41392906D01*
X130850371Y-41392903D01*
X130688464Y-41290748D01*
X130683581Y-41287667D01*
X130495039Y-41212446D01*
X130489379Y-41211320D01*
X130489375Y-41211319D01*
X130301613Y-41173971D01*
X130301610Y-41173971D01*
X130295946Y-41172844D01*
X130290171Y-41172768D01*
X130290167Y-41172768D01*
X130188793Y-41171441D01*
X130092971Y-41170187D01*
X130087274Y-41171166D01*
X130087273Y-41171166D01*
X129898607Y-41203585D01*
X129892910Y-41204564D01*
X129761844Y-41252917D01*
X129691012Y-41257729D01*
X129629139Y-41223800D01*
X129421405Y-41016066D01*
X129387379Y-40953754D01*
X129384500Y-40926971D01*
X129384500Y-40768659D01*
X129404502Y-40700538D01*
X129458158Y-40654045D01*
X129528432Y-40643941D01*
X129580502Y-40663894D01*
X129635344Y-40700538D01*
X129650720Y-40710812D01*
X129656023Y-40713090D01*
X129656026Y-40713092D01*
X129831921Y-40788662D01*
X129837228Y-40790942D01*
X129910244Y-40807464D01*
X130029579Y-40834467D01*
X130029584Y-40834468D01*
X130035216Y-40835742D01*
X130040987Y-40835969D01*
X130040989Y-40835969D01*
X130100756Y-40838317D01*
X130238053Y-40843712D01*
X130338499Y-40829148D01*
X130433231Y-40815413D01*
X130433236Y-40815412D01*
X130438945Y-40814584D01*
X130444409Y-40812729D01*
X130444414Y-40812728D01*
X130625693Y-40751192D01*
X130625698Y-40751190D01*
X130631165Y-40749334D01*
X130808276Y-40650147D01*
X130870934Y-40598035D01*
X130959913Y-40524031D01*
X130964345Y-40520345D01*
X131094147Y-40364276D01*
X131193334Y-40187165D01*
X131195190Y-40181698D01*
X131195192Y-40181693D01*
X131256728Y-40000414D01*
X131256729Y-40000409D01*
X131258584Y-39994945D01*
X131259412Y-39989236D01*
X131259413Y-39989231D01*
X131287179Y-39797727D01*
X131287712Y-39794053D01*
X131289232Y-39736000D01*
X131274861Y-39579602D01*
X131271187Y-39539613D01*
X131271186Y-39539610D01*
X131270658Y-39533859D01*
X131266313Y-39518453D01*
X131217125Y-39344046D01*
X131217124Y-39344044D01*
X131215557Y-39338487D01*
X131212568Y-39332424D01*
X131128331Y-39161609D01*
X131125776Y-39156428D01*
X131004320Y-38993779D01*
X130855258Y-38855987D01*
X130850375Y-38852906D01*
X130850371Y-38852903D01*
X130688464Y-38750748D01*
X130683581Y-38747667D01*
X130495039Y-38672446D01*
X130489379Y-38671320D01*
X130489375Y-38671319D01*
X130301613Y-38633971D01*
X130301610Y-38633971D01*
X130295946Y-38632844D01*
X130290171Y-38632768D01*
X130290167Y-38632768D01*
X130188793Y-38631441D01*
X130092971Y-38630187D01*
X130087274Y-38631166D01*
X130087273Y-38631166D01*
X129898607Y-38663585D01*
X129892910Y-38664564D01*
X129702463Y-38734824D01*
X129528010Y-38838612D01*
X129523670Y-38842418D01*
X129523666Y-38842421D01*
X129429626Y-38924893D01*
X129375392Y-38972455D01*
X129371817Y-38976990D01*
X129371814Y-38976993D01*
X129366679Y-38983507D01*
X129358582Y-38993779D01*
X129357556Y-38995080D01*
X129299676Y-39036194D01*
X129228756Y-39039489D01*
X129169510Y-39006171D01*
X127406918Y-37243580D01*
X127394413Y-37228098D01*
X127391477Y-37224871D01*
X127385825Y-37216118D01*
X127361562Y-37196991D01*
X127357567Y-37193441D01*
X127357483Y-37193540D01*
X127353519Y-37190181D01*
X127349844Y-37186506D01*
X127345617Y-37183485D01*
X127341648Y-37180122D01*
X127343151Y-37178349D01*
X127305365Y-37130144D01*
X127298729Y-37059458D01*
X127331362Y-36996405D01*
X127392903Y-36961005D01*
X127422414Y-36957500D01*
X131280524Y-36957500D01*
X131305103Y-36959921D01*
X131318000Y-36962486D01*
X131330172Y-36960065D01*
X131342579Y-36960065D01*
X131342579Y-36960705D01*
X131353358Y-36960029D01*
X131513555Y-36971486D01*
X131525826Y-36972364D01*
X131543620Y-36974922D01*
X131738420Y-37017298D01*
X131755661Y-37022360D01*
X131942455Y-37092032D01*
X131958790Y-37099493D01*
X132133758Y-37195033D01*
X132148882Y-37204752D01*
X132308469Y-37324218D01*
X132322055Y-37335991D01*
X132463009Y-37476945D01*
X132474782Y-37490531D01*
X132594248Y-37650118D01*
X132603967Y-37665242D01*
X132699507Y-37840210D01*
X132706968Y-37856545D01*
X132776640Y-38043339D01*
X132781702Y-38060580D01*
X132824078Y-38255380D01*
X132826636Y-38273174D01*
X132838971Y-38445639D01*
X132838295Y-38456421D01*
X132838935Y-38456421D01*
X132838935Y-38468828D01*
X132836514Y-38481000D01*
X132838935Y-38493170D01*
X132839079Y-38493894D01*
X132841500Y-38518476D01*
X132841500Y-64351524D01*
X132839079Y-64376103D01*
X132836514Y-64389000D01*
X132838935Y-64401172D01*
X132838935Y-64413579D01*
X132838295Y-64413579D01*
X132838971Y-64424358D01*
X132833728Y-64497670D01*
X132826636Y-64596826D01*
X132824078Y-64614620D01*
X132781702Y-64809420D01*
X132776640Y-64826661D01*
X132706968Y-65013455D01*
X132699507Y-65029790D01*
X132603967Y-65204758D01*
X132594248Y-65219882D01*
X132474782Y-65379469D01*
X132463009Y-65393055D01*
X132322055Y-65534009D01*
X132308469Y-65545782D01*
X132148882Y-65665248D01*
X132133758Y-65674967D01*
X131958790Y-65770507D01*
X131942455Y-65777968D01*
X131755661Y-65847640D01*
X131738420Y-65852702D01*
X131543620Y-65895078D01*
X131525826Y-65897636D01*
X131353358Y-65909971D01*
X131342582Y-65909296D01*
X131342582Y-65909935D01*
X131330174Y-65909935D01*
X131318000Y-65907514D01*
X131305045Y-65910091D01*
X131280509Y-65912512D01*
X129593526Y-65913000D01*
X87492775Y-65913000D01*
X87424654Y-65892998D01*
X87378161Y-65839342D01*
X87368057Y-65769068D01*
X87397551Y-65704488D01*
X87460164Y-65665293D01*
X87669801Y-65609121D01*
X87669803Y-65609120D01*
X87675111Y-65607698D01*
X87680093Y-65605375D01*
X87872858Y-65515488D01*
X87872863Y-65515485D01*
X87877845Y-65513162D01*
X88040235Y-65399455D01*
X88056572Y-65388016D01*
X88056575Y-65388014D01*
X88061083Y-65384857D01*
X88219257Y-65226683D01*
X88347562Y-65043445D01*
X88349885Y-65038463D01*
X88349888Y-65038458D01*
X88439775Y-64845693D01*
X88439775Y-64845692D01*
X88442098Y-64840711D01*
X88444703Y-64830991D01*
X88498570Y-64629956D01*
X88498570Y-64629954D01*
X88499994Y-64624641D01*
X88519490Y-64401800D01*
X88499994Y-64178959D01*
X88491915Y-64148807D01*
X88443521Y-63968199D01*
X88443520Y-63968197D01*
X88442098Y-63962889D01*
X88383232Y-63836649D01*
X88349888Y-63765142D01*
X88349885Y-63765137D01*
X88347562Y-63760155D01*
X88235357Y-63599910D01*
X88222416Y-63581428D01*
X88222414Y-63581425D01*
X88219257Y-63576917D01*
X88061083Y-63418743D01*
X88056575Y-63415586D01*
X88056572Y-63415584D01*
X87921720Y-63321160D01*
X87877845Y-63290438D01*
X87872863Y-63288115D01*
X87872858Y-63288112D01*
X87680093Y-63198225D01*
X87680092Y-63198225D01*
X87675111Y-63195902D01*
X87669803Y-63194480D01*
X87669801Y-63194479D01*
X87464356Y-63139430D01*
X87464354Y-63139430D01*
X87459041Y-63138006D01*
X87236200Y-63118510D01*
X87013359Y-63138006D01*
X87008046Y-63139430D01*
X87008044Y-63139430D01*
X86802599Y-63194479D01*
X86802597Y-63194480D01*
X86797289Y-63195902D01*
X86792308Y-63198225D01*
X86792307Y-63198225D01*
X86599542Y-63288112D01*
X86599537Y-63288115D01*
X86594555Y-63290438D01*
X86550680Y-63321160D01*
X86415828Y-63415584D01*
X86415825Y-63415586D01*
X86411317Y-63418743D01*
X86253143Y-63576917D01*
X86249986Y-63581425D01*
X86249984Y-63581428D01*
X86237043Y-63599910D01*
X86124838Y-63760155D01*
X86122515Y-63765137D01*
X86122512Y-63765142D01*
X86089168Y-63836649D01*
X86030302Y-63962889D01*
X86028880Y-63968197D01*
X86028879Y-63968199D01*
X85980485Y-64148807D01*
X85972406Y-64178959D01*
X85971927Y-64184439D01*
X85971925Y-64184451D01*
X85964326Y-64271299D01*
X85938463Y-64337417D01*
X85880959Y-64379057D01*
X85810072Y-64382997D01*
X85748308Y-64347987D01*
X85715276Y-64285143D01*
X85712806Y-64260255D01*
X85712821Y-64231339D01*
X85718743Y-52201978D01*
X90657500Y-52201978D01*
X90660580Y-52251812D01*
X90706678Y-52462354D01*
X90791757Y-52660380D01*
X90912746Y-52838745D01*
X91065281Y-52991015D01*
X91070248Y-52994372D01*
X91070251Y-52994374D01*
X91197406Y-53080302D01*
X91243858Y-53111693D01*
X91249373Y-53114051D01*
X91436515Y-53194067D01*
X91436518Y-53194068D01*
X91442033Y-53196426D01*
X91447896Y-53197699D01*
X91647891Y-53241122D01*
X91647893Y-53241122D01*
X91652654Y-53242156D01*
X91663499Y-53242800D01*
X91698666Y-53244890D01*
X91698675Y-53244890D01*
X91700522Y-53245000D01*
X93623478Y-53245000D01*
X93673312Y-53241920D01*
X93883854Y-53195822D01*
X94017868Y-53138245D01*
X94076371Y-53113110D01*
X94076372Y-53113109D01*
X94081880Y-53110743D01*
X94260245Y-52989754D01*
X94273223Y-52976754D01*
X94408279Y-52841462D01*
X94412515Y-52837219D01*
X94533193Y-52658642D01*
X94575375Y-52559986D01*
X94615567Y-52465985D01*
X94615568Y-52465982D01*
X94617926Y-52460467D01*
X94663656Y-52249846D01*
X94666500Y-52201978D01*
X94666500Y-50279022D01*
X94663420Y-50229188D01*
X94639861Y-50121586D01*
X94618604Y-50024501D01*
X94618604Y-50024500D01*
X94617322Y-50018646D01*
X94532243Y-49820620D01*
X94411254Y-49642255D01*
X94406726Y-49637734D01*
X94284069Y-49515291D01*
X94258719Y-49489985D01*
X94253752Y-49486628D01*
X94253749Y-49486626D01*
X94085111Y-49372665D01*
X94085112Y-49372665D01*
X94080142Y-49369307D01*
X94058473Y-49360042D01*
X93887485Y-49286933D01*
X93887482Y-49286932D01*
X93881967Y-49284574D01*
X93760707Y-49258246D01*
X93676109Y-49239878D01*
X93676107Y-49239878D01*
X93671346Y-49238844D01*
X93660501Y-49238200D01*
X93625334Y-49236110D01*
X93625325Y-49236110D01*
X93623478Y-49236000D01*
X91700522Y-49236000D01*
X91650688Y-49239080D01*
X91440146Y-49285178D01*
X91404942Y-49300303D01*
X91249820Y-49366949D01*
X91242120Y-49370257D01*
X91063755Y-49491246D01*
X91059519Y-49495489D01*
X91059517Y-49495491D01*
X91040234Y-49514808D01*
X90911485Y-49643781D01*
X90908128Y-49648748D01*
X90908126Y-49648751D01*
X90878325Y-49692850D01*
X90790807Y-49822358D01*
X90788449Y-49827873D01*
X90709364Y-50012839D01*
X90706074Y-50020533D01*
X90704801Y-50026396D01*
X90703182Y-50033855D01*
X90660344Y-50231154D01*
X90660055Y-50236019D01*
X90658807Y-50257032D01*
X90657500Y-50279022D01*
X90657500Y-52201978D01*
X85718743Y-52201978D01*
X85720332Y-48974964D01*
X85722405Y-44765433D01*
X93657500Y-44765433D01*
X93657501Y-48315566D01*
X93664417Y-48350336D01*
X93669756Y-48377179D01*
X93672266Y-48389801D01*
X93679161Y-48400120D01*
X93679162Y-48400122D01*
X93688255Y-48413730D01*
X93728516Y-48473984D01*
X93812699Y-48530234D01*
X93886933Y-48545000D01*
X95661713Y-48545000D01*
X97437066Y-48544999D01*
X97472818Y-48537888D01*
X97499126Y-48532656D01*
X97499128Y-48532655D01*
X97511301Y-48530234D01*
X97521621Y-48523339D01*
X97521622Y-48523338D01*
X97585168Y-48480877D01*
X97595484Y-48473984D01*
X97651734Y-48389801D01*
X97666500Y-48315567D01*
X97666499Y-44765434D01*
X97658983Y-44727645D01*
X97654156Y-44703374D01*
X97654155Y-44703372D01*
X97651734Y-44691199D01*
X97644511Y-44680388D01*
X97602377Y-44617332D01*
X97595484Y-44607016D01*
X97511301Y-44550766D01*
X97437067Y-44536000D01*
X95662287Y-44536000D01*
X93886934Y-44536001D01*
X93851182Y-44543112D01*
X93824874Y-44548344D01*
X93824872Y-44548345D01*
X93812699Y-44550766D01*
X93802379Y-44557661D01*
X93802378Y-44557662D01*
X93769156Y-44579861D01*
X93728516Y-44607016D01*
X93672266Y-44691199D01*
X93657500Y-44765433D01*
X85722405Y-44765433D01*
X85725431Y-38620414D01*
X85745467Y-38552303D01*
X85799145Y-38505837D01*
X85869424Y-38495767D01*
X85933990Y-38525292D01*
X85972345Y-38585037D01*
X85976952Y-38609495D01*
X85984726Y-38698360D01*
X85984727Y-38698365D01*
X85985206Y-38703841D01*
X85986630Y-38709154D01*
X85986630Y-38709156D01*
X86025974Y-38855987D01*
X86043102Y-38919911D01*
X86045425Y-38924892D01*
X86045425Y-38924893D01*
X86135312Y-39117658D01*
X86135315Y-39117663D01*
X86137638Y-39122645D01*
X86178979Y-39181686D01*
X86217204Y-39236276D01*
X86265943Y-39305883D01*
X86424117Y-39464057D01*
X86428625Y-39467214D01*
X86428628Y-39467216D01*
X86451266Y-39483067D01*
X86607355Y-39592362D01*
X86612337Y-39594685D01*
X86612342Y-39594688D01*
X86805107Y-39684575D01*
X86810089Y-39686898D01*
X86815397Y-39688320D01*
X86815399Y-39688321D01*
X87020844Y-39743370D01*
X87020846Y-39743370D01*
X87026159Y-39744794D01*
X87249000Y-39764290D01*
X87471841Y-39744794D01*
X87477154Y-39743370D01*
X87477156Y-39743370D01*
X87682601Y-39688321D01*
X87682603Y-39688320D01*
X87687911Y-39686898D01*
X87692893Y-39684575D01*
X87885658Y-39594688D01*
X87885663Y-39594685D01*
X87890645Y-39592362D01*
X88046734Y-39483067D01*
X88069372Y-39467216D01*
X88069375Y-39467214D01*
X88073883Y-39464057D01*
X88232057Y-39305883D01*
X88280797Y-39236276D01*
X88319021Y-39181686D01*
X88360362Y-39122645D01*
X88362685Y-39117663D01*
X88362688Y-39117658D01*
X88452575Y-38924893D01*
X88452575Y-38924892D01*
X88454898Y-38919911D01*
X88472027Y-38855987D01*
X88511370Y-38709156D01*
X88511370Y-38709154D01*
X88512794Y-38703841D01*
X88532290Y-38481000D01*
X88512794Y-38258159D01*
X88475488Y-38118932D01*
X88456321Y-38047399D01*
X88456320Y-38047397D01*
X88454898Y-38042089D01*
X88441749Y-38013890D01*
X88362688Y-37844342D01*
X88362685Y-37844337D01*
X88360362Y-37839355D01*
X88242389Y-37670872D01*
X88235216Y-37660628D01*
X88235214Y-37660625D01*
X88232057Y-37656117D01*
X88073883Y-37497943D01*
X88069375Y-37494786D01*
X88069372Y-37494784D01*
X87993085Y-37441368D01*
X87890645Y-37369638D01*
X87885663Y-37367315D01*
X87885658Y-37367312D01*
X87692893Y-37277425D01*
X87692892Y-37277425D01*
X87687911Y-37275102D01*
X87682603Y-37273680D01*
X87682601Y-37273679D01*
X87477156Y-37218630D01*
X87477154Y-37218630D01*
X87471841Y-37217206D01*
X87378286Y-37209021D01*
X87312168Y-37183157D01*
X87270529Y-37125654D01*
X87266588Y-37054767D01*
X87301597Y-36993002D01*
X87364442Y-36959970D01*
X87389268Y-36957500D01*
X112867626Y-36957500D01*
X112935747Y-36977502D01*
G37*
%TD.AperFunction*%
%TA.AperFunction,Conductor*%
G36*
X110164012Y-47887334D02*
G01*
X110170583Y-47893451D01*
X111114596Y-48837463D01*
X111148620Y-48899774D01*
X111151500Y-48926557D01*
X111151500Y-53923743D01*
X111149394Y-53943537D01*
X111149189Y-53947890D01*
X111146997Y-53958070D01*
X111150472Y-53987431D01*
X111150627Y-53988737D01*
X111150942Y-53994083D01*
X111151072Y-53994072D01*
X111151500Y-53999252D01*
X111151500Y-54004451D01*
X111152353Y-54009575D01*
X111152354Y-54009588D01*
X111154427Y-54022041D01*
X111155264Y-54027916D01*
X111158951Y-54059064D01*
X111160869Y-54075270D01*
X111164570Y-54082978D01*
X111165975Y-54091417D01*
X111188629Y-54133401D01*
X111191310Y-54138664D01*
X111211955Y-54181658D01*
X111215311Y-54185650D01*
X111217258Y-54187597D01*
X111218748Y-54189222D01*
X111218981Y-54189654D01*
X111218945Y-54189687D01*
X111219084Y-54189845D01*
X111222017Y-54195280D01*
X111229664Y-54202349D01*
X111258881Y-54229357D01*
X111262447Y-54232786D01*
X119252595Y-62222933D01*
X119286621Y-62285245D01*
X119289500Y-62312028D01*
X119289500Y-62873616D01*
X119269498Y-62941737D01*
X119215842Y-62988230D01*
X119207111Y-62991828D01*
X119166463Y-63006824D01*
X118992010Y-63110612D01*
X118987670Y-63114418D01*
X118987666Y-63114421D01*
X118864606Y-63222343D01*
X118839392Y-63244455D01*
X118713720Y-63403869D01*
X118711031Y-63408980D01*
X118711029Y-63408983D01*
X118698073Y-63433609D01*
X118619203Y-63583515D01*
X118559007Y-63777378D01*
X118535148Y-63978964D01*
X118548424Y-64181522D01*
X118549845Y-64187118D01*
X118549846Y-64187123D01*
X118594751Y-64363933D01*
X118598392Y-64378269D01*
X118600807Y-64383507D01*
X118600809Y-64383512D01*
X118680754Y-64556927D01*
X118683377Y-64562616D01*
X118686710Y-64567332D01*
X118797982Y-64724780D01*
X118820963Y-64791955D01*
X118803978Y-64860890D01*
X118752421Y-64909699D01*
X118695085Y-64923500D01*
X118047941Y-64923500D01*
X117979820Y-64903498D01*
X117933327Y-64849842D01*
X117923223Y-64779568D01*
X117951067Y-64716930D01*
X117967424Y-64697264D01*
X117993703Y-64665667D01*
X118014453Y-64640718D01*
X118014455Y-64640715D01*
X118018147Y-64636276D01*
X118095941Y-64497365D01*
X118114510Y-64464208D01*
X118114511Y-64464206D01*
X118117334Y-64459165D01*
X118119190Y-64453698D01*
X118119192Y-64453693D01*
X118180728Y-64272414D01*
X118180729Y-64272409D01*
X118182584Y-64266945D01*
X118183412Y-64261236D01*
X118183413Y-64261231D01*
X118211179Y-64069727D01*
X118211712Y-64066053D01*
X118213232Y-64008000D01*
X118196274Y-63823444D01*
X118195187Y-63811613D01*
X118195186Y-63811610D01*
X118194658Y-63805859D01*
X118191736Y-63795499D01*
X118141125Y-63616046D01*
X118141124Y-63616044D01*
X118139557Y-63610487D01*
X118128978Y-63589033D01*
X118052331Y-63433609D01*
X118049776Y-63428428D01*
X117928320Y-63265779D01*
X117801527Y-63148572D01*
X117783503Y-63131911D01*
X117779258Y-63127987D01*
X117774375Y-63124906D01*
X117774371Y-63124903D01*
X117612464Y-63022748D01*
X117607581Y-63019667D01*
X117419039Y-62944446D01*
X117413379Y-62943320D01*
X117413375Y-62943319D01*
X117225613Y-62905971D01*
X117225610Y-62905971D01*
X117219946Y-62904844D01*
X117214171Y-62904768D01*
X117214167Y-62904768D01*
X117112793Y-62903441D01*
X117016971Y-62902187D01*
X117011274Y-62903166D01*
X117011273Y-62903166D01*
X116822607Y-62935585D01*
X116816910Y-62936564D01*
X116711671Y-62975389D01*
X116640839Y-62980201D01*
X116578966Y-62946272D01*
X111060478Y-57427784D01*
X111045336Y-57409036D01*
X111044221Y-57407811D01*
X111038571Y-57399060D01*
X111030393Y-57392613D01*
X111030391Y-57392611D01*
X111012200Y-57378271D01*
X111007759Y-57374325D01*
X111007697Y-57374398D01*
X111003733Y-57371039D01*
X111000056Y-57367362D01*
X110984308Y-57356108D01*
X110979638Y-57352602D01*
X110939353Y-57320844D01*
X110930719Y-57317812D01*
X110923266Y-57312486D01*
X110874150Y-57297797D01*
X110868508Y-57295964D01*
X110827633Y-57281610D01*
X110827632Y-57281610D01*
X110820149Y-57278982D01*
X110814584Y-57278500D01*
X110811876Y-57278500D01*
X110809242Y-57278386D01*
X110809144Y-57278357D01*
X110809151Y-57278193D01*
X110808447Y-57278149D01*
X110802222Y-57276287D01*
X110748365Y-57278403D01*
X110743418Y-57278500D01*
X109580792Y-57278500D01*
X109512671Y-57258498D01*
X109467786Y-57208228D01*
X109406331Y-57083609D01*
X109403776Y-57078428D01*
X109398029Y-57070731D01*
X109330238Y-56979949D01*
X109282320Y-56915779D01*
X109133258Y-56777987D01*
X109128375Y-56774906D01*
X109128371Y-56774903D01*
X108966464Y-56672748D01*
X108961581Y-56669667D01*
X108773039Y-56594446D01*
X108767379Y-56593320D01*
X108767375Y-56593319D01*
X108579613Y-56555971D01*
X108579610Y-56555971D01*
X108573946Y-56554844D01*
X108568171Y-56554768D01*
X108568167Y-56554768D01*
X108466793Y-56553441D01*
X108370971Y-56552187D01*
X108365274Y-56553166D01*
X108365273Y-56553166D01*
X108176607Y-56585585D01*
X108170910Y-56586564D01*
X108039844Y-56634917D01*
X107969012Y-56639729D01*
X107907139Y-56605800D01*
X107452405Y-56151066D01*
X107418379Y-56088754D01*
X107415500Y-56061971D01*
X107415500Y-55943146D01*
X107435502Y-55875025D01*
X107489158Y-55828532D01*
X107559432Y-55818428D01*
X107624012Y-55847922D01*
X107629419Y-55852890D01*
X107759938Y-55980035D01*
X107928720Y-56092812D01*
X107934023Y-56095090D01*
X107934026Y-56095092D01*
X108064310Y-56151066D01*
X108115228Y-56172942D01*
X108157376Y-56182479D01*
X108307579Y-56216467D01*
X108307584Y-56216468D01*
X108313216Y-56217742D01*
X108318987Y-56217969D01*
X108318989Y-56217969D01*
X108378756Y-56220317D01*
X108516053Y-56225712D01*
X108633238Y-56208721D01*
X108711231Y-56197413D01*
X108711236Y-56197412D01*
X108716945Y-56196584D01*
X108722409Y-56194729D01*
X108722414Y-56194728D01*
X108903693Y-56133192D01*
X108903698Y-56133190D01*
X108909165Y-56131334D01*
X109086276Y-56032147D01*
X109095292Y-56024649D01*
X109237913Y-55906031D01*
X109242345Y-55902345D01*
X109308820Y-55822418D01*
X109368453Y-55750718D01*
X109368455Y-55750715D01*
X109372147Y-55746276D01*
X109431845Y-55639677D01*
X109468510Y-55574208D01*
X109468511Y-55574206D01*
X109471334Y-55569165D01*
X109473190Y-55563698D01*
X109473192Y-55563693D01*
X109534728Y-55382414D01*
X109534729Y-55382409D01*
X109536584Y-55376945D01*
X109537412Y-55371236D01*
X109537413Y-55371231D01*
X109565179Y-55179727D01*
X109565712Y-55176053D01*
X109567232Y-55118000D01*
X109548658Y-54915859D01*
X109502848Y-54753430D01*
X109495125Y-54726046D01*
X109495124Y-54726044D01*
X109493557Y-54720487D01*
X109477354Y-54687629D01*
X109406331Y-54543609D01*
X109403776Y-54538428D01*
X109282320Y-54375779D01*
X109133258Y-54237987D01*
X109128375Y-54234906D01*
X109128371Y-54234903D01*
X108975840Y-54138664D01*
X108961581Y-54129667D01*
X108773039Y-54054446D01*
X108767379Y-54053320D01*
X108767375Y-54053319D01*
X108579613Y-54015971D01*
X108579610Y-54015971D01*
X108573946Y-54014844D01*
X108568171Y-54014768D01*
X108568167Y-54014768D01*
X108466793Y-54013441D01*
X108370971Y-54012187D01*
X108365274Y-54013166D01*
X108365273Y-54013166D01*
X108176607Y-54045585D01*
X108170910Y-54046564D01*
X107980463Y-54116824D01*
X107806010Y-54220612D01*
X107801670Y-54224418D01*
X107801666Y-54224421D01*
X107657733Y-54350648D01*
X107653392Y-54354455D01*
X107649818Y-54358989D01*
X107649812Y-54358995D01*
X107640450Y-54370871D01*
X107582569Y-54411985D01*
X107511649Y-54415279D01*
X107450206Y-54379708D01*
X107417749Y-54316565D01*
X107415500Y-54292866D01*
X107415500Y-53920029D01*
X107435502Y-53851908D01*
X107452405Y-53830934D01*
X109815423Y-51467916D01*
X109830909Y-51455408D01*
X109834134Y-51452474D01*
X109842882Y-51446825D01*
X109862003Y-51422570D01*
X109865559Y-51418569D01*
X109865459Y-51418484D01*
X109868812Y-51414527D01*
X109872494Y-51410845D01*
X109882882Y-51396309D01*
X109886401Y-51391622D01*
X109915946Y-51354143D01*
X109918779Y-51346075D01*
X109923753Y-51339115D01*
X109937413Y-51293440D01*
X109939247Y-51287797D01*
X109952422Y-51250277D01*
X109952423Y-51250273D01*
X109955050Y-51242792D01*
X109955500Y-51237596D01*
X109955500Y-51234889D01*
X109955597Y-51232631D01*
X109955739Y-51232159D01*
X109955785Y-51232161D01*
X109955798Y-51231962D01*
X109957567Y-51226045D01*
X109955597Y-51175890D01*
X109955500Y-51170946D01*
X109955500Y-47982558D01*
X109975502Y-47914437D01*
X110029158Y-47867944D01*
X110099432Y-47857840D01*
X110164012Y-47887334D01*
G37*
%TD.AperFunction*%
%TA.AperFunction,Conductor*%
G36*
X107908092Y-45713502D02*
G01*
X107929066Y-45730405D01*
X108028595Y-45829934D01*
X108062621Y-45892246D01*
X108065500Y-45919029D01*
X108065500Y-46721643D01*
X108063394Y-46741437D01*
X108063189Y-46745790D01*
X108060997Y-46755970D01*
X108063677Y-46778612D01*
X108064627Y-46786637D01*
X108064942Y-46791983D01*
X108065072Y-46791972D01*
X108065500Y-46797152D01*
X108065500Y-46802351D01*
X108066353Y-46807475D01*
X108066354Y-46807488D01*
X108068427Y-46819941D01*
X108069264Y-46825816D01*
X108074869Y-46873170D01*
X108078570Y-46880878D01*
X108079975Y-46889317D01*
X108084919Y-46898479D01*
X108102620Y-46931285D01*
X108105316Y-46936576D01*
X108115467Y-46957715D01*
X108125955Y-46979557D01*
X108129311Y-46983550D01*
X108131237Y-46985476D01*
X108132750Y-46987126D01*
X108132986Y-46987562D01*
X108132951Y-46987594D01*
X108133084Y-46987745D01*
X108136017Y-46993180D01*
X108143664Y-47000248D01*
X108143664Y-47000249D01*
X108172867Y-47027244D01*
X108176434Y-47030673D01*
X108809596Y-47663836D01*
X108843621Y-47726148D01*
X108846500Y-47752931D01*
X108846500Y-50619971D01*
X108826498Y-50688092D01*
X108809595Y-50709066D01*
X105576580Y-53942082D01*
X105561098Y-53954587D01*
X105557871Y-53957523D01*
X105549118Y-53963175D01*
X105529991Y-53987438D01*
X105526441Y-53991433D01*
X105526540Y-53991517D01*
X105523182Y-53995480D01*
X105519506Y-53999156D01*
X105516483Y-54003385D01*
X105516483Y-54003386D01*
X105509146Y-54013652D01*
X105505585Y-54018395D01*
X105482503Y-54047675D01*
X105482501Y-54047679D01*
X105476054Y-54055857D01*
X105473221Y-54063925D01*
X105468247Y-54070885D01*
X105465263Y-54080863D01*
X105454580Y-54116586D01*
X105452744Y-54122235D01*
X105450886Y-54127527D01*
X105436950Y-54167208D01*
X105436500Y-54172404D01*
X105436500Y-54175145D01*
X105436404Y-54177360D01*
X105436200Y-54178043D01*
X105434663Y-54182547D01*
X105434597Y-54182856D01*
X105434561Y-54182848D01*
X105413477Y-54244651D01*
X105357865Y-54288786D01*
X105287220Y-54295848D01*
X105224989Y-54264546D01*
X105203467Y-54244651D01*
X105196258Y-54237987D01*
X105191375Y-54234906D01*
X105191371Y-54234903D01*
X105038840Y-54138664D01*
X105024581Y-54129667D01*
X104836039Y-54054446D01*
X104830379Y-54053320D01*
X104830375Y-54053319D01*
X104642613Y-54015971D01*
X104642610Y-54015971D01*
X104636946Y-54014844D01*
X104631171Y-54014768D01*
X104631167Y-54014768D01*
X104529793Y-54013441D01*
X104433971Y-54012187D01*
X104428274Y-54013166D01*
X104428273Y-54013166D01*
X104239607Y-54045585D01*
X104233910Y-54046564D01*
X104043463Y-54116824D01*
X103923825Y-54188001D01*
X103915923Y-54192702D01*
X103847152Y-54210342D01*
X103779762Y-54188001D01*
X103735149Y-54132773D01*
X103725500Y-54084417D01*
X103725500Y-51641029D01*
X103745502Y-51572908D01*
X103762405Y-51551934D01*
X104608423Y-50705916D01*
X104623909Y-50693408D01*
X104627134Y-50690474D01*
X104635882Y-50684825D01*
X104655003Y-50660570D01*
X104658559Y-50656569D01*
X104658459Y-50656484D01*
X104661812Y-50652527D01*
X104665494Y-50648845D01*
X104675882Y-50634309D01*
X104679401Y-50629622D01*
X104708946Y-50592143D01*
X104711779Y-50584075D01*
X104716753Y-50577115D01*
X104729745Y-50533671D01*
X104768426Y-50474139D01*
X104833153Y-50444969D01*
X104903376Y-50455423D01*
X104956799Y-50502183D01*
X104970808Y-50534066D01*
X104971372Y-50538354D01*
X104988229Y-50579050D01*
X105020339Y-50656569D01*
X105027245Y-50673242D01*
X105032272Y-50679793D01*
X105110887Y-50782246D01*
X105116126Y-50789074D01*
X105122676Y-50794100D01*
X105122679Y-50794103D01*
X105205268Y-50857476D01*
X105231957Y-50877955D01*
X105366846Y-50933828D01*
X105511600Y-50952885D01*
X105519788Y-50951807D01*
X105556583Y-50946963D01*
X105656354Y-50933828D01*
X105791243Y-50877955D01*
X105817932Y-50857476D01*
X105900521Y-50794103D01*
X105900524Y-50794100D01*
X105907074Y-50789074D01*
X105912314Y-50782246D01*
X105990928Y-50679793D01*
X105995955Y-50673242D01*
X106002862Y-50656569D01*
X106034971Y-50579050D01*
X106051828Y-50538354D01*
X106056843Y-50500266D01*
X106069807Y-50401788D01*
X106070885Y-50393600D01*
X106055801Y-50279022D01*
X106052906Y-50257032D01*
X106052905Y-50257030D01*
X106051828Y-50248846D01*
X106025536Y-50185371D01*
X105999115Y-50121586D01*
X105999114Y-50121584D01*
X105995955Y-50113958D01*
X105956460Y-50062487D01*
X105917137Y-50011240D01*
X105891537Y-49945019D01*
X105891100Y-49934536D01*
X105891100Y-48872720D01*
X105893649Y-48848772D01*
X105893728Y-48847107D01*
X105895920Y-48836924D01*
X105891973Y-48803577D01*
X105891623Y-48797646D01*
X105891528Y-48797654D01*
X105891100Y-48792476D01*
X105891100Y-48787276D01*
X105890246Y-48782144D01*
X105887931Y-48768235D01*
X105887094Y-48762357D01*
X105882294Y-48721799D01*
X105882294Y-48721798D01*
X105881070Y-48711459D01*
X105877107Y-48703207D01*
X105875604Y-48694174D01*
X105851265Y-48649066D01*
X105848569Y-48643775D01*
X105829815Y-48604718D01*
X105829812Y-48604714D01*
X105826381Y-48597568D01*
X105822786Y-48593292D01*
X105820863Y-48591369D01*
X105819091Y-48589437D01*
X105819048Y-48589358D01*
X105819172Y-48589245D01*
X105818696Y-48588705D01*
X105815610Y-48582986D01*
X105776013Y-48546383D01*
X105772448Y-48542954D01*
X104072554Y-46843060D01*
X104038528Y-46780748D01*
X104036727Y-46770411D01*
X104032073Y-46735054D01*
X104019828Y-46642046D01*
X103963955Y-46507158D01*
X103875074Y-46391326D01*
X103868524Y-46386300D01*
X103868521Y-46386297D01*
X103765796Y-46307473D01*
X103765794Y-46307472D01*
X103759243Y-46302445D01*
X103668285Y-46264769D01*
X103613005Y-46220220D01*
X103590584Y-46152857D01*
X103600096Y-46100140D01*
X103610268Y-46075583D01*
X103610269Y-46075580D01*
X103613428Y-46067954D01*
X103621484Y-46006761D01*
X103650206Y-45941834D01*
X103709471Y-45902742D01*
X103746406Y-45897207D01*
X103750812Y-45897207D01*
X103759000Y-45898285D01*
X103767188Y-45897207D01*
X103895566Y-45880306D01*
X103903754Y-45879228D01*
X104038643Y-45823355D01*
X104126798Y-45755711D01*
X104193016Y-45730111D01*
X104262564Y-45744375D01*
X104280197Y-45755707D01*
X104368357Y-45823355D01*
X104503246Y-45879228D01*
X104648000Y-45898285D01*
X104656188Y-45897207D01*
X104784566Y-45880306D01*
X104792754Y-45879228D01*
X104927643Y-45823355D01*
X104989850Y-45775622D01*
X105036924Y-45739500D01*
X105043474Y-45734474D01*
X105047012Y-45729863D01*
X105108331Y-45696379D01*
X105135114Y-45693500D01*
X107839971Y-45693500D01*
X107908092Y-45713502D01*
G37*
%TD.AperFunction*%
%TA.AperFunction,Conductor*%
G36*
X101846712Y-44593868D02*
G01*
X101902643Y-44635220D01*
X101937678Y-44680878D01*
X101966526Y-44718474D01*
X101973076Y-44723500D01*
X101973079Y-44723503D01*
X102035935Y-44771734D01*
X102082357Y-44807355D01*
X102217246Y-44863228D01*
X102362000Y-44882285D01*
X102370188Y-44881207D01*
X102498566Y-44864306D01*
X102506754Y-44863228D01*
X102514381Y-44860069D01*
X102514384Y-44860068D01*
X102603043Y-44823344D01*
X102673633Y-44815755D01*
X102737120Y-44847534D01*
X102773347Y-44908593D01*
X102770813Y-44979544D01*
X102763305Y-44996720D01*
X102758254Y-45003128D01*
X102755421Y-45011196D01*
X102750447Y-45018156D01*
X102747463Y-45028134D01*
X102736780Y-45063857D01*
X102734944Y-45069506D01*
X102719150Y-45114479D01*
X102718700Y-45119675D01*
X102718700Y-45122380D01*
X102718603Y-45124636D01*
X102718460Y-45125112D01*
X102718414Y-45125110D01*
X102718401Y-45125309D01*
X102716632Y-45131226D01*
X102717041Y-45141630D01*
X102718603Y-45181395D01*
X102718700Y-45186341D01*
X102718700Y-45436086D01*
X102698698Y-45504207D01*
X102683013Y-45523670D01*
X102677726Y-45527726D01*
X102588845Y-45643558D01*
X102585686Y-45651184D01*
X102585685Y-45651186D01*
X102559873Y-45713502D01*
X102532972Y-45778446D01*
X102531895Y-45786630D01*
X102531894Y-45786632D01*
X102526028Y-45831192D01*
X102513915Y-45923200D01*
X102532972Y-46067954D01*
X102588845Y-46202842D01*
X102677726Y-46318674D01*
X102684276Y-46323700D01*
X102684279Y-46323703D01*
X102765853Y-46386297D01*
X102793557Y-46407555D01*
X102884515Y-46445231D01*
X102939795Y-46489780D01*
X102962216Y-46557143D01*
X102952704Y-46609860D01*
X102939372Y-46642046D01*
X102920315Y-46786800D01*
X102921393Y-46794988D01*
X102935018Y-46898479D01*
X102939372Y-46931554D01*
X102942531Y-46939180D01*
X102991533Y-47057480D01*
X102995245Y-47066442D01*
X103084126Y-47182274D01*
X103090676Y-47187300D01*
X103090679Y-47187303D01*
X103193404Y-47266127D01*
X103199957Y-47271155D01*
X103334846Y-47327028D01*
X103463212Y-47343928D01*
X103528138Y-47372649D01*
X103535860Y-47379754D01*
X103776999Y-47620893D01*
X103811025Y-47683205D01*
X103805960Y-47754020D01*
X103763413Y-47810856D01*
X103704351Y-47834910D01*
X103665449Y-47840031D01*
X103622432Y-47845694D01*
X103622430Y-47845695D01*
X103614246Y-47846772D01*
X103587526Y-47857840D01*
X103486986Y-47899485D01*
X103486984Y-47899486D01*
X103479358Y-47902645D01*
X103472807Y-47907671D01*
X103472803Y-47907674D01*
X103391202Y-47970288D01*
X103324982Y-47995888D01*
X103255433Y-47981623D01*
X103237795Y-47970287D01*
X103156196Y-47907673D01*
X103156194Y-47907672D01*
X103149643Y-47902645D01*
X103014754Y-47846772D01*
X102870000Y-47827715D01*
X102861812Y-47828793D01*
X102733432Y-47845694D01*
X102733430Y-47845695D01*
X102725246Y-47846772D01*
X102698526Y-47857840D01*
X102597986Y-47899485D01*
X102597984Y-47899486D01*
X102590358Y-47902645D01*
X102474526Y-47991526D01*
X102385645Y-48107358D01*
X102329772Y-48242246D01*
X102328694Y-48250432D01*
X102328694Y-48250433D01*
X102326767Y-48265071D01*
X102298045Y-48329998D01*
X102290941Y-48337720D01*
X101919578Y-48709084D01*
X101904098Y-48721586D01*
X101900868Y-48724525D01*
X101892118Y-48730175D01*
X101872991Y-48754438D01*
X101869441Y-48758433D01*
X101869540Y-48758517D01*
X101866182Y-48762480D01*
X101862506Y-48766156D01*
X101859483Y-48770385D01*
X101859483Y-48770386D01*
X101852146Y-48780652D01*
X101848585Y-48785395D01*
X101825503Y-48814675D01*
X101825501Y-48814679D01*
X101819054Y-48822857D01*
X101816221Y-48830925D01*
X101811247Y-48837885D01*
X101808263Y-48847863D01*
X101797580Y-48883586D01*
X101795744Y-48889235D01*
X101779950Y-48934208D01*
X101779500Y-48939404D01*
X101779500Y-48942109D01*
X101779403Y-48944365D01*
X101779260Y-48944841D01*
X101779214Y-48944839D01*
X101779201Y-48945038D01*
X101777432Y-48950955D01*
X101778375Y-48974964D01*
X101779403Y-49001124D01*
X101779500Y-49006070D01*
X101779500Y-52205970D01*
X101759498Y-52274091D01*
X101705842Y-52320584D01*
X101635568Y-52330688D01*
X101570988Y-52301194D01*
X101564405Y-52295066D01*
X100925112Y-51655774D01*
X100891087Y-51593461D01*
X100888415Y-51568610D01*
X100889285Y-51562000D01*
X100870228Y-51417246D01*
X100828258Y-51315923D01*
X100817515Y-51289986D01*
X100817514Y-51289984D01*
X100814355Y-51282358D01*
X100730563Y-51173158D01*
X100730501Y-51173077D01*
X100730498Y-51173074D01*
X100725474Y-51166526D01*
X100718924Y-51161500D01*
X100718921Y-51161497D01*
X100616196Y-51082673D01*
X100616194Y-51082672D01*
X100609643Y-51077645D01*
X100474754Y-51021772D01*
X100330000Y-51002715D01*
X100321812Y-51003793D01*
X100193432Y-51020694D01*
X100193430Y-51020695D01*
X100185246Y-51021772D01*
X100137430Y-51041578D01*
X100057986Y-51074485D01*
X100057984Y-51074486D01*
X100050358Y-51077645D01*
X99934526Y-51166526D01*
X99929503Y-51173072D01*
X99929501Y-51173074D01*
X99929461Y-51173126D01*
X99929417Y-51173158D01*
X99923658Y-51178917D01*
X99922760Y-51178019D01*
X99872123Y-51214992D01*
X99801252Y-51219213D01*
X99739349Y-51184447D01*
X99706069Y-51121734D01*
X99703500Y-51096420D01*
X99703500Y-45677580D01*
X99723502Y-45609459D01*
X99777158Y-45562966D01*
X99847432Y-45552862D01*
X99912012Y-45582356D01*
X99929461Y-45600874D01*
X99929496Y-45600920D01*
X99929500Y-45600924D01*
X99934526Y-45607474D01*
X99941076Y-45612500D01*
X99941079Y-45612503D01*
X100043804Y-45691327D01*
X100050357Y-45696355D01*
X100185246Y-45752228D01*
X100330000Y-45771285D01*
X100338188Y-45770207D01*
X100375454Y-45765301D01*
X100474754Y-45752228D01*
X100609643Y-45696355D01*
X100616196Y-45691327D01*
X100718921Y-45612503D01*
X100718924Y-45612500D01*
X100725474Y-45607474D01*
X100730500Y-45600924D01*
X100730505Y-45600919D01*
X100756505Y-45567035D01*
X100795627Y-45535269D01*
X100795141Y-45534516D01*
X100801804Y-45530213D01*
X100808952Y-45526781D01*
X100813228Y-45523186D01*
X100815151Y-45521263D01*
X100817083Y-45519491D01*
X100817162Y-45519448D01*
X100817275Y-45519572D01*
X100817815Y-45519096D01*
X100823534Y-45516010D01*
X100860137Y-45476413D01*
X100863566Y-45472848D01*
X101713585Y-44622829D01*
X101775897Y-44588803D01*
X101846712Y-44593868D01*
G37*
%TD.AperFunction*%
%TD*%
M02*
