%TF.GenerationSoftware,KiCad,Pcbnew,(6.0.9)*%
%TF.CreationDate,2023-05-25T18:46:17+02:00*%
%TF.ProjectId,tiny1616_dev_board,74696e79-3136-4313-965f-6465765f626f,rev?*%
%TF.SameCoordinates,Original*%
%TF.FileFunction,Legend,Top*%
%TF.FilePolarity,Positive*%
%FSLAX46Y46*%
G04 Gerber Fmt 4.6, Leading zero omitted, Abs format (unit mm)*
G04 Created by KiCad (PCBNEW (6.0.9)) date 2023-05-25 18:46:17*
%MOMM*%
%LPD*%
G01*
G04 APERTURE LIST*
%ADD10C,0.150000*%
%ADD11C,0.120000*%
G04 APERTURE END LIST*
D10*
X89190476Y-40202380D02*
X89000000Y-40202380D01*
X88904761Y-40250000D01*
X88857142Y-40297619D01*
X88761904Y-40440476D01*
X88714285Y-40630952D01*
X88714285Y-41011904D01*
X88761904Y-41107142D01*
X88809523Y-41154761D01*
X88904761Y-41202380D01*
X89095238Y-41202380D01*
X89190476Y-41154761D01*
X89238095Y-41107142D01*
X89285714Y-41011904D01*
X89285714Y-40773809D01*
X89238095Y-40678571D01*
X89190476Y-40630952D01*
X89095238Y-40583333D01*
X88904761Y-40583333D01*
X88809523Y-40630952D01*
X88761904Y-40678571D01*
X88714285Y-40773809D01*
X89714285Y-40821428D02*
X90476190Y-40821428D01*
X91476190Y-41202380D02*
X90904761Y-41202380D01*
X91190476Y-41202380D02*
X91190476Y-40202380D01*
X91095238Y-40345238D01*
X91000000Y-40440476D01*
X90904761Y-40488095D01*
X91857142Y-40297619D02*
X91904761Y-40250000D01*
X92000000Y-40202380D01*
X92238095Y-40202380D01*
X92333333Y-40250000D01*
X92380952Y-40297619D01*
X92428571Y-40392857D01*
X92428571Y-40488095D01*
X92380952Y-40630952D01*
X91809523Y-41202380D01*
X92428571Y-41202380D01*
X92714285Y-40202380D02*
X93047619Y-41202380D01*
X93380952Y-40202380D01*
%TO.C,D2*%
X119778428Y-53782857D02*
X119178428Y-53782857D01*
X119178428Y-53640000D01*
X119207000Y-53554285D01*
X119264142Y-53497142D01*
X119321285Y-53468571D01*
X119435571Y-53440000D01*
X119521285Y-53440000D01*
X119635571Y-53468571D01*
X119692714Y-53497142D01*
X119749857Y-53554285D01*
X119778428Y-53640000D01*
X119778428Y-53782857D01*
X119235571Y-53211428D02*
X119207000Y-53182857D01*
X119178428Y-53125714D01*
X119178428Y-52982857D01*
X119207000Y-52925714D01*
X119235571Y-52897142D01*
X119292714Y-52868571D01*
X119349857Y-52868571D01*
X119435571Y-52897142D01*
X119778428Y-53240000D01*
X119778428Y-52868571D01*
%TO.C,J2*%
X129373380Y-53292333D02*
X130087666Y-53292333D01*
X130230523Y-53339952D01*
X130325761Y-53435190D01*
X130373380Y-53578047D01*
X130373380Y-53673285D01*
X129468619Y-52863761D02*
X129421000Y-52816142D01*
X129373380Y-52720904D01*
X129373380Y-52482809D01*
X129421000Y-52387571D01*
X129468619Y-52339952D01*
X129563857Y-52292333D01*
X129659095Y-52292333D01*
X129801952Y-52339952D01*
X130373380Y-52911380D01*
X130373380Y-52292333D01*
%TO.C,R5*%
X118254428Y-61187000D02*
X117968714Y-61387000D01*
X118254428Y-61529857D02*
X117654428Y-61529857D01*
X117654428Y-61301285D01*
X117683000Y-61244142D01*
X117711571Y-61215571D01*
X117768714Y-61187000D01*
X117854428Y-61187000D01*
X117911571Y-61215571D01*
X117940142Y-61244142D01*
X117968714Y-61301285D01*
X117968714Y-61529857D01*
X117654428Y-60644142D02*
X117654428Y-60929857D01*
X117940142Y-60958428D01*
X117911571Y-60929857D01*
X117883000Y-60872714D01*
X117883000Y-60729857D01*
X117911571Y-60672714D01*
X117940142Y-60644142D01*
X117997285Y-60615571D01*
X118140142Y-60615571D01*
X118197285Y-60644142D01*
X118225857Y-60672714D01*
X118254428Y-60729857D01*
X118254428Y-60872714D01*
X118225857Y-60929857D01*
X118197285Y-60958428D01*
%TO.C,Y1*%
X122523285Y-46086714D02*
X122523285Y-46372428D01*
X122323285Y-45772428D02*
X122523285Y-46086714D01*
X122723285Y-45772428D01*
X123237571Y-46372428D02*
X122894714Y-46372428D01*
X123066142Y-46372428D02*
X123066142Y-45772428D01*
X123009000Y-45858142D01*
X122951857Y-45915285D01*
X122894714Y-45943857D01*
%TO.C,D3*%
X98442428Y-52004857D02*
X97842428Y-52004857D01*
X97842428Y-51862000D01*
X97871000Y-51776285D01*
X97928142Y-51719142D01*
X97985285Y-51690571D01*
X98099571Y-51662000D01*
X98185285Y-51662000D01*
X98299571Y-51690571D01*
X98356714Y-51719142D01*
X98413857Y-51776285D01*
X98442428Y-51862000D01*
X98442428Y-52004857D01*
X97842428Y-51462000D02*
X97842428Y-51090571D01*
X98071000Y-51290571D01*
X98071000Y-51204857D01*
X98099571Y-51147714D01*
X98128142Y-51119142D01*
X98185285Y-51090571D01*
X98328142Y-51090571D01*
X98385285Y-51119142D01*
X98413857Y-51147714D01*
X98442428Y-51204857D01*
X98442428Y-51376285D01*
X98413857Y-51433428D01*
X98385285Y-51462000D01*
%TO.C,U1*%
X95808857Y-54535428D02*
X95808857Y-55021142D01*
X95837428Y-55078285D01*
X95866000Y-55106857D01*
X95923142Y-55135428D01*
X96037428Y-55135428D01*
X96094571Y-55106857D01*
X96123142Y-55078285D01*
X96151714Y-55021142D01*
X96151714Y-54535428D01*
X96751714Y-55135428D02*
X96408857Y-55135428D01*
X96580285Y-55135428D02*
X96580285Y-54535428D01*
X96523142Y-54621142D01*
X96466000Y-54678285D01*
X96408857Y-54706857D01*
%TO.C,R4*%
X113057000Y-58818428D02*
X112857000Y-58532714D01*
X112714142Y-58818428D02*
X112714142Y-58218428D01*
X112942714Y-58218428D01*
X112999857Y-58247000D01*
X113028428Y-58275571D01*
X113057000Y-58332714D01*
X113057000Y-58418428D01*
X113028428Y-58475571D01*
X112999857Y-58504142D01*
X112942714Y-58532714D01*
X112714142Y-58532714D01*
X113571285Y-58418428D02*
X113571285Y-58818428D01*
X113428428Y-58189857D02*
X113285571Y-58618428D01*
X113657000Y-58618428D01*
%TO.C,R7*%
X102760428Y-45185000D02*
X102474714Y-45385000D01*
X102760428Y-45527857D02*
X102160428Y-45527857D01*
X102160428Y-45299285D01*
X102189000Y-45242142D01*
X102217571Y-45213571D01*
X102274714Y-45185000D01*
X102360428Y-45185000D01*
X102417571Y-45213571D01*
X102446142Y-45242142D01*
X102474714Y-45299285D01*
X102474714Y-45527857D01*
X102160428Y-44985000D02*
X102160428Y-44585000D01*
X102760428Y-44842142D01*
%TO.C,C3*%
X95150000Y-64022714D02*
X95121428Y-64054142D01*
X95035714Y-64085571D01*
X94978571Y-64085571D01*
X94892857Y-64054142D01*
X94835714Y-63991285D01*
X94807142Y-63928428D01*
X94778571Y-63802714D01*
X94778571Y-63708428D01*
X94807142Y-63582714D01*
X94835714Y-63519857D01*
X94892857Y-63457000D01*
X94978571Y-63425571D01*
X95035714Y-63425571D01*
X95121428Y-63457000D01*
X95150000Y-63488428D01*
X95350000Y-63425571D02*
X95721428Y-63425571D01*
X95521428Y-63677000D01*
X95607142Y-63677000D01*
X95664285Y-63708428D01*
X95692857Y-63739857D01*
X95721428Y-63802714D01*
X95721428Y-63959857D01*
X95692857Y-64022714D01*
X95664285Y-64054142D01*
X95607142Y-64085571D01*
X95435714Y-64085571D01*
X95378571Y-64054142D01*
X95350000Y-64022714D01*
%TO.C,C5*%
X124547285Y-48106000D02*
X124575857Y-48134571D01*
X124604428Y-48220285D01*
X124604428Y-48277428D01*
X124575857Y-48363142D01*
X124518714Y-48420285D01*
X124461571Y-48448857D01*
X124347285Y-48477428D01*
X124261571Y-48477428D01*
X124147285Y-48448857D01*
X124090142Y-48420285D01*
X124033000Y-48363142D01*
X124004428Y-48277428D01*
X124004428Y-48220285D01*
X124033000Y-48134571D01*
X124061571Y-48106000D01*
X124004428Y-47563142D02*
X124004428Y-47848857D01*
X124290142Y-47877428D01*
X124261571Y-47848857D01*
X124233000Y-47791714D01*
X124233000Y-47648857D01*
X124261571Y-47591714D01*
X124290142Y-47563142D01*
X124347285Y-47534571D01*
X124490142Y-47534571D01*
X124547285Y-47563142D01*
X124575857Y-47591714D01*
X124604428Y-47648857D01*
X124604428Y-47791714D01*
X124575857Y-47848857D01*
X124547285Y-47877428D01*
%TO.C,R8*%
X124256428Y-55980000D02*
X123970714Y-56180000D01*
X124256428Y-56322857D02*
X123656428Y-56322857D01*
X123656428Y-56094285D01*
X123685000Y-56037142D01*
X123713571Y-56008571D01*
X123770714Y-55980000D01*
X123856428Y-55980000D01*
X123913571Y-56008571D01*
X123942142Y-56037142D01*
X123970714Y-56094285D01*
X123970714Y-56322857D01*
X123913571Y-55637142D02*
X123885000Y-55694285D01*
X123856428Y-55722857D01*
X123799285Y-55751428D01*
X123770714Y-55751428D01*
X123713571Y-55722857D01*
X123685000Y-55694285D01*
X123656428Y-55637142D01*
X123656428Y-55522857D01*
X123685000Y-55465714D01*
X123713571Y-55437142D01*
X123770714Y-55408571D01*
X123799285Y-55408571D01*
X123856428Y-55437142D01*
X123885000Y-55465714D01*
X123913571Y-55522857D01*
X123913571Y-55637142D01*
X123942142Y-55694285D01*
X123970714Y-55722857D01*
X124027857Y-55751428D01*
X124142142Y-55751428D01*
X124199285Y-55722857D01*
X124227857Y-55694285D01*
X124256428Y-55637142D01*
X124256428Y-55522857D01*
X124227857Y-55465714D01*
X124199285Y-55437142D01*
X124142142Y-55408571D01*
X124027857Y-55408571D01*
X123970714Y-55437142D01*
X123942142Y-55465714D01*
X123913571Y-55522857D01*
%TO.C,C6*%
X123598000Y-38949285D02*
X123569428Y-38977857D01*
X123483714Y-39006428D01*
X123426571Y-39006428D01*
X123340857Y-38977857D01*
X123283714Y-38920714D01*
X123255142Y-38863571D01*
X123226571Y-38749285D01*
X123226571Y-38663571D01*
X123255142Y-38549285D01*
X123283714Y-38492142D01*
X123340857Y-38435000D01*
X123426571Y-38406428D01*
X123483714Y-38406428D01*
X123569428Y-38435000D01*
X123598000Y-38463571D01*
X124112285Y-38406428D02*
X123998000Y-38406428D01*
X123940857Y-38435000D01*
X123912285Y-38463571D01*
X123855142Y-38549285D01*
X123826571Y-38663571D01*
X123826571Y-38892142D01*
X123855142Y-38949285D01*
X123883714Y-38977857D01*
X123940857Y-39006428D01*
X124055142Y-39006428D01*
X124112285Y-38977857D01*
X124140857Y-38949285D01*
X124169428Y-38892142D01*
X124169428Y-38749285D01*
X124140857Y-38692142D01*
X124112285Y-38663571D01*
X124055142Y-38635000D01*
X123940857Y-38635000D01*
X123883714Y-38663571D01*
X123855142Y-38692142D01*
X123826571Y-38749285D01*
%TO.C,C4*%
X102703285Y-48487000D02*
X102731857Y-48515571D01*
X102760428Y-48601285D01*
X102760428Y-48658428D01*
X102731857Y-48744142D01*
X102674714Y-48801285D01*
X102617571Y-48829857D01*
X102503285Y-48858428D01*
X102417571Y-48858428D01*
X102303285Y-48829857D01*
X102246142Y-48801285D01*
X102189000Y-48744142D01*
X102160428Y-48658428D01*
X102160428Y-48601285D01*
X102189000Y-48515571D01*
X102217571Y-48487000D01*
X102360428Y-47972714D02*
X102760428Y-47972714D01*
X102131857Y-48115571D02*
X102560428Y-48258428D01*
X102560428Y-47887000D01*
%TO.C,J1*%
X87012000Y-51961928D02*
X87012000Y-52390500D01*
X86983428Y-52476214D01*
X86926285Y-52533357D01*
X86840571Y-52561928D01*
X86783428Y-52561928D01*
X87612000Y-52561928D02*
X87269142Y-52561928D01*
X87440571Y-52561928D02*
X87440571Y-51961928D01*
X87383428Y-52047642D01*
X87326285Y-52104785D01*
X87269142Y-52133357D01*
%TO.C,R2*%
X124604428Y-49884000D02*
X124318714Y-50084000D01*
X124604428Y-50226857D02*
X124004428Y-50226857D01*
X124004428Y-49998285D01*
X124033000Y-49941142D01*
X124061571Y-49912571D01*
X124118714Y-49884000D01*
X124204428Y-49884000D01*
X124261571Y-49912571D01*
X124290142Y-49941142D01*
X124318714Y-49998285D01*
X124318714Y-50226857D01*
X124061571Y-49655428D02*
X124033000Y-49626857D01*
X124004428Y-49569714D01*
X124004428Y-49426857D01*
X124033000Y-49369714D01*
X124061571Y-49341142D01*
X124118714Y-49312571D01*
X124175857Y-49312571D01*
X124261571Y-49341142D01*
X124604428Y-49684000D01*
X124604428Y-49312571D01*
%TO.C,R3*%
X124604428Y-51789000D02*
X124318714Y-51989000D01*
X124604428Y-52131857D02*
X124004428Y-52131857D01*
X124004428Y-51903285D01*
X124033000Y-51846142D01*
X124061571Y-51817571D01*
X124118714Y-51789000D01*
X124204428Y-51789000D01*
X124261571Y-51817571D01*
X124290142Y-51846142D01*
X124318714Y-51903285D01*
X124318714Y-52131857D01*
X124004428Y-51589000D02*
X124004428Y-51217571D01*
X124233000Y-51417571D01*
X124233000Y-51331857D01*
X124261571Y-51274714D01*
X124290142Y-51246142D01*
X124347285Y-51217571D01*
X124490142Y-51217571D01*
X124547285Y-51246142D01*
X124575857Y-51274714D01*
X124604428Y-51331857D01*
X124604428Y-51503285D01*
X124575857Y-51560428D01*
X124547285Y-51589000D01*
%TO.C,U3*%
X115493857Y-51868428D02*
X115493857Y-52354142D01*
X115522428Y-52411285D01*
X115551000Y-52439857D01*
X115608142Y-52468428D01*
X115722428Y-52468428D01*
X115779571Y-52439857D01*
X115808142Y-52411285D01*
X115836714Y-52354142D01*
X115836714Y-51868428D01*
X116065285Y-51868428D02*
X116436714Y-51868428D01*
X116236714Y-52097000D01*
X116322428Y-52097000D01*
X116379571Y-52125571D01*
X116408142Y-52154142D01*
X116436714Y-52211285D01*
X116436714Y-52354142D01*
X116408142Y-52411285D01*
X116379571Y-52439857D01*
X116322428Y-52468428D01*
X116151000Y-52468428D01*
X116093857Y-52439857D01*
X116065285Y-52411285D01*
%TO.C,J3*%
X128710000Y-46817428D02*
X128710000Y-47246000D01*
X128681428Y-47331714D01*
X128624285Y-47388857D01*
X128538571Y-47417428D01*
X128481428Y-47417428D01*
X128938571Y-46817428D02*
X129310000Y-46817428D01*
X129110000Y-47046000D01*
X129195714Y-47046000D01*
X129252857Y-47074571D01*
X129281428Y-47103142D01*
X129310000Y-47160285D01*
X129310000Y-47303142D01*
X129281428Y-47360285D01*
X129252857Y-47388857D01*
X129195714Y-47417428D01*
X129024285Y-47417428D01*
X128967142Y-47388857D01*
X128938571Y-47360285D01*
%TO.C,R1*%
X98569428Y-45312000D02*
X98283714Y-45512000D01*
X98569428Y-45654857D02*
X97969428Y-45654857D01*
X97969428Y-45426285D01*
X97998000Y-45369142D01*
X98026571Y-45340571D01*
X98083714Y-45312000D01*
X98169428Y-45312000D01*
X98226571Y-45340571D01*
X98255142Y-45369142D01*
X98283714Y-45426285D01*
X98283714Y-45654857D01*
X98569428Y-44740571D02*
X98569428Y-45083428D01*
X98569428Y-44912000D02*
X97969428Y-44912000D01*
X98055142Y-44969142D01*
X98112285Y-45026285D01*
X98140857Y-45083428D01*
%TO.C,D1*%
X98442428Y-48829857D02*
X97842428Y-48829857D01*
X97842428Y-48687000D01*
X97871000Y-48601285D01*
X97928142Y-48544142D01*
X97985285Y-48515571D01*
X98099571Y-48487000D01*
X98185285Y-48487000D01*
X98299571Y-48515571D01*
X98356714Y-48544142D01*
X98413857Y-48601285D01*
X98442428Y-48687000D01*
X98442428Y-48829857D01*
X98442428Y-47915571D02*
X98442428Y-48258428D01*
X98442428Y-48087000D02*
X97842428Y-48087000D01*
X97928142Y-48144142D01*
X97985285Y-48201285D01*
X98013857Y-48258428D01*
%TO.C,C2*%
X91721000Y-63968285D02*
X91692428Y-63996857D01*
X91606714Y-64025428D01*
X91549571Y-64025428D01*
X91463857Y-63996857D01*
X91406714Y-63939714D01*
X91378142Y-63882571D01*
X91349571Y-63768285D01*
X91349571Y-63682571D01*
X91378142Y-63568285D01*
X91406714Y-63511142D01*
X91463857Y-63454000D01*
X91549571Y-63425428D01*
X91606714Y-63425428D01*
X91692428Y-63454000D01*
X91721000Y-63482571D01*
X91949571Y-63482571D02*
X91978142Y-63454000D01*
X92035285Y-63425428D01*
X92178142Y-63425428D01*
X92235285Y-63454000D01*
X92263857Y-63482571D01*
X92292428Y-63539714D01*
X92292428Y-63596857D01*
X92263857Y-63682571D01*
X91921000Y-64025428D01*
X92292428Y-64025428D01*
%TO.C,R9*%
X124256428Y-59155000D02*
X123970714Y-59355000D01*
X124256428Y-59497857D02*
X123656428Y-59497857D01*
X123656428Y-59269285D01*
X123685000Y-59212142D01*
X123713571Y-59183571D01*
X123770714Y-59155000D01*
X123856428Y-59155000D01*
X123913571Y-59183571D01*
X123942142Y-59212142D01*
X123970714Y-59269285D01*
X123970714Y-59497857D01*
X124256428Y-58869285D02*
X124256428Y-58755000D01*
X124227857Y-58697857D01*
X124199285Y-58669285D01*
X124113571Y-58612142D01*
X123999285Y-58583571D01*
X123770714Y-58583571D01*
X123713571Y-58612142D01*
X123685000Y-58640714D01*
X123656428Y-58697857D01*
X123656428Y-58812142D01*
X123685000Y-58869285D01*
X123713571Y-58897857D01*
X123770714Y-58926428D01*
X123913571Y-58926428D01*
X123970714Y-58897857D01*
X123999285Y-58869285D01*
X124027857Y-58812142D01*
X124027857Y-58697857D01*
X123999285Y-58640714D01*
X123970714Y-58612142D01*
X123913571Y-58583571D01*
%TO.C,R6*%
X102760428Y-51662000D02*
X102474714Y-51862000D01*
X102760428Y-52004857D02*
X102160428Y-52004857D01*
X102160428Y-51776285D01*
X102189000Y-51719142D01*
X102217571Y-51690571D01*
X102274714Y-51662000D01*
X102360428Y-51662000D01*
X102417571Y-51690571D01*
X102446142Y-51719142D01*
X102474714Y-51776285D01*
X102474714Y-52004857D01*
X102160428Y-51147714D02*
X102160428Y-51262000D01*
X102189000Y-51319142D01*
X102217571Y-51347714D01*
X102303285Y-51404857D01*
X102417571Y-51433428D01*
X102646142Y-51433428D01*
X102703285Y-51404857D01*
X102731857Y-51376285D01*
X102760428Y-51319142D01*
X102760428Y-51204857D01*
X102731857Y-51147714D01*
X102703285Y-51119142D01*
X102646142Y-51090571D01*
X102503285Y-51090571D01*
X102446142Y-51119142D01*
X102417571Y-51147714D01*
X102389000Y-51204857D01*
X102389000Y-51319142D01*
X102417571Y-51376285D01*
X102446142Y-51404857D01*
X102503285Y-51433428D01*
%TO.C,J4*%
X127816000Y-58980428D02*
X127816000Y-59409000D01*
X127787428Y-59494714D01*
X127730285Y-59551857D01*
X127644571Y-59580428D01*
X127587428Y-59580428D01*
X128358857Y-59180428D02*
X128358857Y-59580428D01*
X128216000Y-58951857D02*
X128073142Y-59380428D01*
X128444571Y-59380428D01*
%TO.C,U2*%
X106686857Y-43696428D02*
X106686857Y-44182142D01*
X106715428Y-44239285D01*
X106744000Y-44267857D01*
X106801142Y-44296428D01*
X106915428Y-44296428D01*
X106972571Y-44267857D01*
X107001142Y-44239285D01*
X107029714Y-44182142D01*
X107029714Y-43696428D01*
X107286857Y-43753571D02*
X107315428Y-43725000D01*
X107372571Y-43696428D01*
X107515428Y-43696428D01*
X107572571Y-43725000D01*
X107601142Y-43753571D01*
X107629714Y-43810714D01*
X107629714Y-43867857D01*
X107601142Y-43953571D01*
X107258285Y-44296428D01*
X107629714Y-44296428D01*
%TO.C,C1*%
X87590285Y-59790000D02*
X87618857Y-59818571D01*
X87647428Y-59904285D01*
X87647428Y-59961428D01*
X87618857Y-60047142D01*
X87561714Y-60104285D01*
X87504571Y-60132857D01*
X87390285Y-60161428D01*
X87304571Y-60161428D01*
X87190285Y-60132857D01*
X87133142Y-60104285D01*
X87076000Y-60047142D01*
X87047428Y-59961428D01*
X87047428Y-59904285D01*
X87076000Y-59818571D01*
X87104571Y-59790000D01*
X87647428Y-59218571D02*
X87647428Y-59561428D01*
X87647428Y-59390000D02*
X87047428Y-59390000D01*
X87133142Y-59447142D01*
X87190285Y-59504285D01*
X87218857Y-59561428D01*
%TO.C,U4*%
X117094095Y-56602380D02*
X117094095Y-57411904D01*
X117141714Y-57507142D01*
X117189333Y-57554761D01*
X117284571Y-57602380D01*
X117475047Y-57602380D01*
X117570285Y-57554761D01*
X117617904Y-57507142D01*
X117665523Y-57411904D01*
X117665523Y-56602380D01*
X118570285Y-56935714D02*
X118570285Y-57602380D01*
X118332190Y-56554761D02*
X118094095Y-57269047D01*
X118713142Y-57269047D01*
D11*
%TO.C,D2*%
X120420000Y-54190000D02*
X122970000Y-54190000D01*
X120420000Y-52490000D02*
X122970000Y-52490000D01*
X120420000Y-52490000D02*
X120420000Y-54190000D01*
%TO.C,J2*%
X128057200Y-48489000D02*
X129857200Y-48489000D01*
X128057200Y-57429000D02*
X129857200Y-57429000D01*
X133567200Y-48489000D02*
X133567200Y-57429000D01*
X133567200Y-48489000D02*
X132107200Y-48489000D01*
X133567200Y-57429000D02*
X132107200Y-57429000D01*
%TO.C,R5*%
X119777742Y-60564500D02*
X120252258Y-60564500D01*
X119777742Y-61609500D02*
X120252258Y-61609500D01*
%TO.C,Y1*%
X121159000Y-41434000D02*
X121159000Y-45434000D01*
X124459000Y-41434000D02*
X121159000Y-41434000D01*
%TO.C,D3*%
X98706000Y-50102500D02*
X98706000Y-52387500D01*
X100176000Y-50102500D02*
X98706000Y-50102500D01*
X100176000Y-52387500D02*
X100176000Y-50102500D01*
%TO.C,U1*%
X89118000Y-54273400D02*
X95128000Y-54273400D01*
X95128000Y-61093400D02*
X95128000Y-59833400D01*
X91368000Y-61093400D02*
X95128000Y-61093400D01*
X95128000Y-54273400D02*
X95128000Y-55533400D01*
%TO.C,J5*%
X99324000Y-39938000D02*
X97994000Y-39938000D01*
X97994000Y-39938000D02*
X97994000Y-38608000D01*
X100594000Y-39938000D02*
X120974000Y-39938000D01*
X120974000Y-39938000D02*
X120974000Y-37278000D01*
X100594000Y-39938000D02*
X100594000Y-37278000D01*
X100594000Y-37278000D02*
X120974000Y-37278000D01*
%TO.C,R4*%
X113679500Y-56752258D02*
X113679500Y-56277742D01*
X112634500Y-56752258D02*
X112634500Y-56277742D01*
%TO.C,R7*%
X101741500Y-44974742D02*
X101741500Y-45449258D01*
X100696500Y-44974742D02*
X100696500Y-45449258D01*
%TO.C,C3*%
X95390580Y-61847000D02*
X95109420Y-61847000D01*
X95390580Y-62867000D02*
X95109420Y-62867000D01*
%TO.C,J6*%
X120974000Y-65338000D02*
X120974000Y-62678000D01*
X99324000Y-65338000D02*
X97994000Y-65338000D01*
X100594000Y-65338000D02*
X120974000Y-65338000D01*
X97994000Y-65338000D02*
X97994000Y-64008000D01*
X100594000Y-65338000D02*
X100594000Y-62678000D01*
X100594000Y-62678000D02*
X120974000Y-62678000D01*
%TO.C,C5*%
X122187580Y-47496000D02*
X121906420Y-47496000D01*
X122187580Y-48516000D02*
X121906420Y-48516000D01*
%TO.C,R8*%
X122032500Y-55642742D02*
X122032500Y-56117258D01*
X123077500Y-55642742D02*
X123077500Y-56117258D01*
%TO.C,C6*%
X123838580Y-40642000D02*
X123557420Y-40642000D01*
X123838580Y-39622000D02*
X123557420Y-39622000D01*
%TO.C,C4*%
X101729000Y-48246420D02*
X101729000Y-48527580D01*
X100709000Y-48246420D02*
X100709000Y-48527580D01*
%TO.C,J1*%
X81862000Y-41940500D02*
X96562000Y-41940500D01*
X96762000Y-42790500D02*
X96762000Y-41740500D01*
X90662000Y-51140500D02*
X81862000Y-51140500D01*
X96562000Y-51140500D02*
X94662000Y-51140500D01*
X81862000Y-51140500D02*
X81862000Y-41940500D01*
X96562000Y-41940500D02*
X96562000Y-44540500D01*
X95712000Y-41740500D02*
X96762000Y-41740500D01*
X96562000Y-48440500D02*
X96562000Y-51140500D01*
%TO.C,R2*%
X122284258Y-49261500D02*
X121809742Y-49261500D01*
X122284258Y-50306500D02*
X121809742Y-50306500D01*
%TO.C,R3*%
X122284258Y-51957500D02*
X121809742Y-51957500D01*
X122284258Y-50912500D02*
X121809742Y-50912500D01*
%TO.C,U3*%
X116205000Y-51542000D02*
X114255000Y-51542000D01*
X116205000Y-51542000D02*
X119655000Y-51542000D01*
X116205000Y-41422000D02*
X118155000Y-41422000D01*
X116205000Y-41422000D02*
X114255000Y-41422000D01*
%TO.C,JP2*%
X105851000Y-58928000D02*
X103191000Y-58928000D01*
X105851000Y-60198000D02*
X105851000Y-61528000D01*
X105851000Y-61528000D02*
X104521000Y-61528000D01*
X105851000Y-58928000D02*
X105851000Y-53788000D01*
X103191000Y-58928000D02*
X103191000Y-53788000D01*
X105851000Y-53788000D02*
X103191000Y-53788000D01*
%TO.C,J3*%
X131510000Y-43546000D02*
X131510000Y-38406000D01*
X131510000Y-46146000D02*
X130180000Y-46146000D01*
X131510000Y-43546000D02*
X128910000Y-43546000D01*
X128910000Y-46146000D02*
X126310000Y-46146000D01*
X131510000Y-44816000D02*
X131510000Y-46146000D01*
X126310000Y-46146000D02*
X126310000Y-38406000D01*
X128910000Y-43546000D02*
X128910000Y-46146000D01*
X131510000Y-38406000D02*
X126310000Y-38406000D01*
%TO.C,JP1*%
X109788000Y-61528000D02*
X108458000Y-61528000D01*
X109788000Y-60198000D02*
X109788000Y-61528000D01*
X109788000Y-58928000D02*
X107128000Y-58928000D01*
X109788000Y-53788000D02*
X107128000Y-53788000D01*
X107128000Y-58928000D02*
X107128000Y-53788000D01*
X109788000Y-58928000D02*
X109788000Y-53788000D01*
%TO.C,R1*%
X98918500Y-44974742D02*
X98918500Y-45449258D01*
X99963500Y-44974742D02*
X99963500Y-45449258D01*
%TO.C,D1*%
X98706000Y-47587000D02*
X98706000Y-49872000D01*
X100176000Y-49872000D02*
X100176000Y-47587000D01*
X98706000Y-49872000D02*
X100176000Y-49872000D01*
%TO.C,C2*%
X91807420Y-61847000D02*
X92088580Y-61847000D01*
X91807420Y-62867000D02*
X92088580Y-62867000D01*
%TO.C,R9*%
X122032500Y-58817742D02*
X122032500Y-59292258D01*
X123077500Y-58817742D02*
X123077500Y-59292258D01*
%TO.C,R6*%
X101741500Y-51324742D02*
X101741500Y-51799258D01*
X100696500Y-51324742D02*
X100696500Y-51799258D01*
%TO.C,J4*%
X131876000Y-62740000D02*
X130876000Y-62740000D01*
X124156000Y-64240000D02*
X131876000Y-64240000D01*
X124656000Y-60720000D02*
X131376000Y-60720000D01*
X123856000Y-64540000D02*
X126356000Y-64540000D01*
X131876000Y-64240000D02*
X131876000Y-60220000D01*
X131376000Y-60720000D02*
X131376000Y-61930000D01*
X125156000Y-62740000D02*
X125156000Y-64240000D01*
X124656000Y-61930000D02*
X124656000Y-60720000D01*
X130876000Y-62740000D02*
X130876000Y-64240000D01*
X123856000Y-62040000D02*
X123856000Y-64540000D01*
X124156000Y-62740000D02*
X125156000Y-62740000D01*
X124156000Y-60220000D02*
X124156000Y-64240000D01*
X131876000Y-60220000D02*
X124156000Y-60220000D01*
X131376000Y-61930000D02*
X131876000Y-61930000D01*
X124156000Y-61930000D02*
X124656000Y-61930000D01*
%TO.C,JP3*%
X101914000Y-53823800D02*
X99254000Y-53823800D01*
X99254000Y-58963800D02*
X99254000Y-53823800D01*
X101914000Y-61563800D02*
X100584000Y-61563800D01*
X101914000Y-58963800D02*
X101914000Y-53823800D01*
X101914000Y-58963800D02*
X99254000Y-58963800D01*
X101914000Y-60233800D02*
X101914000Y-61563800D01*
%TO.C,U2*%
X108304000Y-48556000D02*
X108754000Y-48556000D01*
X105534000Y-45336000D02*
X105534000Y-45786000D01*
X108754000Y-45336000D02*
X108754000Y-45786000D01*
X105984000Y-45336000D02*
X105534000Y-45336000D01*
X108304000Y-45336000D02*
X108754000Y-45336000D01*
X105984000Y-48556000D02*
X105534000Y-48556000D01*
X105534000Y-48556000D02*
X105534000Y-48106000D01*
%TO.C,C1*%
X86441000Y-58698000D02*
X88311000Y-58698000D01*
X88311000Y-58698000D02*
X88311000Y-54788000D01*
X86441000Y-54788000D02*
X86441000Y-58698000D01*
%TO.C,U4*%
X117856000Y-54590000D02*
X114406000Y-54590000D01*
X117856000Y-59710000D02*
X115906000Y-59710000D01*
X117856000Y-59710000D02*
X119806000Y-59710000D01*
X117856000Y-54590000D02*
X119806000Y-54590000D01*
%TD*%
M02*
