%TF.GenerationSoftware,KiCad,Pcbnew,(6.0.9)*%
%TF.CreationDate,2023-05-25T18:46:17+02:00*%
%TF.ProjectId,tiny1616_dev_board,74696e79-3136-4313-965f-6465765f626f,rev?*%
%TF.SameCoordinates,Original*%
%TF.FileFunction,Legend,Bot*%
%TF.FilePolarity,Positive*%
%FSLAX46Y46*%
G04 Gerber Fmt 4.6, Leading zero omitted, Abs format (unit mm)*
G04 Created by KiCad (PCBNEW (6.0.9)) date 2023-05-25 18:46:17*
%MOMM*%
%LPD*%
G01*
G04 APERTURE LIST*
%ADD10C,0.150000*%
%ADD11C,0.010000*%
G04 APERTURE END LIST*
D10*
X124866400Y-41097200D02*
X126238000Y-41097200D01*
X126238000Y-41097200D02*
X126238000Y-43281600D01*
X126238000Y-43281600D02*
X124866400Y-43281600D01*
X124866400Y-43281600D02*
X124866400Y-41097200D01*
X125577600Y-63652400D02*
X130149600Y-63652400D01*
X130149600Y-63652400D02*
X130149600Y-64973200D01*
X130149600Y-64973200D02*
X125577600Y-64973200D01*
X125577600Y-64973200D02*
X125577600Y-63652400D01*
X113461800Y-47447200D02*
X122961400Y-47447200D01*
X122961400Y-47447200D02*
X122961400Y-56235600D01*
X122961400Y-56235600D02*
X113461800Y-56235600D01*
X113461800Y-56235600D02*
X113461800Y-47447200D01*
X101498400Y-52070000D02*
X108051600Y-52070000D01*
X108051600Y-52070000D02*
X108051600Y-53492400D01*
X108051600Y-53492400D02*
X101498400Y-53492400D01*
X101498400Y-53492400D02*
X101498400Y-52070000D01*
X107682933Y-52448666D02*
X107682933Y-53015333D01*
X107649600Y-53082000D01*
X107616266Y-53115333D01*
X107549600Y-53148666D01*
X107416266Y-53148666D01*
X107349600Y-53115333D01*
X107316266Y-53082000D01*
X107282933Y-53015333D01*
X107282933Y-52448666D01*
X106982933Y-53115333D02*
X106882933Y-53148666D01*
X106716266Y-53148666D01*
X106649600Y-53115333D01*
X106616266Y-53082000D01*
X106582933Y-53015333D01*
X106582933Y-52948666D01*
X106616266Y-52882000D01*
X106649600Y-52848666D01*
X106716266Y-52815333D01*
X106849600Y-52782000D01*
X106916266Y-52748666D01*
X106949600Y-52715333D01*
X106982933Y-52648666D01*
X106982933Y-52582000D01*
X106949600Y-52515333D01*
X106916266Y-52482000D01*
X106849600Y-52448666D01*
X106682933Y-52448666D01*
X106582933Y-52482000D01*
X106049600Y-52782000D02*
X105949600Y-52815333D01*
X105916266Y-52848666D01*
X105882933Y-52915333D01*
X105882933Y-53015333D01*
X105916266Y-53082000D01*
X105949600Y-53115333D01*
X106016266Y-53148666D01*
X106282933Y-53148666D01*
X106282933Y-52448666D01*
X106049600Y-52448666D01*
X105982933Y-52482000D01*
X105949600Y-52515333D01*
X105916266Y-52582000D01*
X105916266Y-52648666D01*
X105949600Y-52715333D01*
X105982933Y-52748666D01*
X106049600Y-52782000D01*
X106282933Y-52782000D01*
X105082933Y-52415333D02*
X105682933Y-53315333D01*
X104449600Y-53148666D02*
X104682933Y-52815333D01*
X104849600Y-53148666D02*
X104849600Y-52448666D01*
X104582933Y-52448666D01*
X104516266Y-52482000D01*
X104482933Y-52515333D01*
X104449600Y-52582000D01*
X104449600Y-52682000D01*
X104482933Y-52748666D01*
X104516266Y-52782000D01*
X104582933Y-52815333D01*
X104849600Y-52815333D01*
X104182933Y-53115333D02*
X104082933Y-53148666D01*
X103916266Y-53148666D01*
X103849600Y-53115333D01*
X103816266Y-53082000D01*
X103782933Y-53015333D01*
X103782933Y-52948666D01*
X103816266Y-52882000D01*
X103849600Y-52848666D01*
X103916266Y-52815333D01*
X104049600Y-52782000D01*
X104116266Y-52748666D01*
X104149600Y-52715333D01*
X104182933Y-52648666D01*
X104182933Y-52582000D01*
X104149600Y-52515333D01*
X104116266Y-52482000D01*
X104049600Y-52448666D01*
X103882933Y-52448666D01*
X103782933Y-52482000D01*
X103182933Y-52682000D02*
X103182933Y-53148666D01*
X103349600Y-52415333D02*
X103516266Y-52915333D01*
X103082933Y-52915333D01*
X102716266Y-52748666D02*
X102782933Y-52715333D01*
X102816266Y-52682000D01*
X102849600Y-52615333D01*
X102849600Y-52582000D01*
X102816266Y-52515333D01*
X102782933Y-52482000D01*
X102716266Y-52448666D01*
X102582933Y-52448666D01*
X102516266Y-52482000D01*
X102482933Y-52515333D01*
X102449600Y-52582000D01*
X102449600Y-52615333D01*
X102482933Y-52682000D01*
X102516266Y-52715333D01*
X102582933Y-52748666D01*
X102716266Y-52748666D01*
X102782933Y-52782000D01*
X102816266Y-52815333D01*
X102849600Y-52882000D01*
X102849600Y-53015333D01*
X102816266Y-53082000D01*
X102782933Y-53115333D01*
X102716266Y-53148666D01*
X102582933Y-53148666D01*
X102516266Y-53115333D01*
X102482933Y-53082000D01*
X102449600Y-53015333D01*
X102449600Y-52882000D01*
X102482933Y-52815333D01*
X102516266Y-52782000D01*
X102582933Y-52748666D01*
X101816266Y-52448666D02*
X102149600Y-52448666D01*
X102182933Y-52782000D01*
X102149600Y-52748666D01*
X102082933Y-52715333D01*
X101916266Y-52715333D01*
X101849600Y-52748666D01*
X101816266Y-52782000D01*
X101782933Y-52848666D01*
X101782933Y-53015333D01*
X101816266Y-53082000D01*
X101849600Y-53115333D01*
X101916266Y-53148666D01*
X102082933Y-53148666D01*
X102149600Y-53115333D01*
X102182933Y-53082000D01*
X125919666Y-41480666D02*
X125219666Y-41480666D01*
X125886333Y-41780666D02*
X125919666Y-41880666D01*
X125919666Y-42047333D01*
X125886333Y-42114000D01*
X125853000Y-42147333D01*
X125786333Y-42180666D01*
X125719666Y-42180666D01*
X125653000Y-42147333D01*
X125619666Y-42114000D01*
X125586333Y-42047333D01*
X125553000Y-41914000D01*
X125519666Y-41847333D01*
X125486333Y-41814000D01*
X125419666Y-41780666D01*
X125353000Y-41780666D01*
X125286333Y-41814000D01*
X125253000Y-41847333D01*
X125219666Y-41914000D01*
X125219666Y-42080666D01*
X125253000Y-42180666D01*
X125919666Y-42480666D02*
X125219666Y-42480666D01*
X125219666Y-42747333D01*
X125253000Y-42814000D01*
X125286333Y-42847333D01*
X125353000Y-42880666D01*
X125453000Y-42880666D01*
X125519666Y-42847333D01*
X125553000Y-42814000D01*
X125586333Y-42747333D01*
X125586333Y-42480666D01*
X98207333Y-61786333D02*
X98207333Y-62486333D01*
X98474000Y-62486333D01*
X98540666Y-62453000D01*
X98574000Y-62419666D01*
X98607333Y-62353000D01*
X98607333Y-62253000D01*
X98574000Y-62186333D01*
X98540666Y-62153000D01*
X98474000Y-62119666D01*
X98207333Y-62119666D01*
X99307333Y-61853000D02*
X99274000Y-61819666D01*
X99174000Y-61786333D01*
X99107333Y-61786333D01*
X99007333Y-61819666D01*
X98940666Y-61886333D01*
X98907333Y-61953000D01*
X98874000Y-62086333D01*
X98874000Y-62186333D01*
X98907333Y-62319666D01*
X98940666Y-62386333D01*
X99007333Y-62453000D01*
X99107333Y-62486333D01*
X99174000Y-62486333D01*
X99274000Y-62453000D01*
X99307333Y-62419666D01*
X99540666Y-62486333D02*
X99974000Y-62486333D01*
X99740666Y-62219666D01*
X99840666Y-62219666D01*
X99907333Y-62186333D01*
X99940666Y-62153000D01*
X99974000Y-62086333D01*
X99974000Y-61919666D01*
X99940666Y-61853000D01*
X99907333Y-61819666D01*
X99840666Y-61786333D01*
X99640666Y-61786333D01*
X99574000Y-61819666D01*
X99540666Y-61853000D01*
X100807333Y-61786333D02*
X100807333Y-62486333D01*
X101074000Y-62486333D01*
X101140666Y-62453000D01*
X101174000Y-62419666D01*
X101207333Y-62353000D01*
X101207333Y-62253000D01*
X101174000Y-62186333D01*
X101140666Y-62153000D01*
X101074000Y-62119666D01*
X100807333Y-62119666D01*
X101907333Y-61853000D02*
X101874000Y-61819666D01*
X101774000Y-61786333D01*
X101707333Y-61786333D01*
X101607333Y-61819666D01*
X101540666Y-61886333D01*
X101507333Y-61953000D01*
X101474000Y-62086333D01*
X101474000Y-62186333D01*
X101507333Y-62319666D01*
X101540666Y-62386333D01*
X101607333Y-62453000D01*
X101707333Y-62486333D01*
X101774000Y-62486333D01*
X101874000Y-62453000D01*
X101907333Y-62419666D01*
X102174000Y-62419666D02*
X102207333Y-62453000D01*
X102274000Y-62486333D01*
X102440666Y-62486333D01*
X102507333Y-62453000D01*
X102540666Y-62419666D01*
X102574000Y-62353000D01*
X102574000Y-62286333D01*
X102540666Y-62186333D01*
X102140666Y-61786333D01*
X102574000Y-61786333D01*
X103407333Y-61786333D02*
X103407333Y-62486333D01*
X103674000Y-62486333D01*
X103740666Y-62453000D01*
X103774000Y-62419666D01*
X103807333Y-62353000D01*
X103807333Y-62253000D01*
X103774000Y-62186333D01*
X103740666Y-62153000D01*
X103674000Y-62119666D01*
X103407333Y-62119666D01*
X104507333Y-61853000D02*
X104474000Y-61819666D01*
X104374000Y-61786333D01*
X104307333Y-61786333D01*
X104207333Y-61819666D01*
X104140666Y-61886333D01*
X104107333Y-61953000D01*
X104074000Y-62086333D01*
X104074000Y-62186333D01*
X104107333Y-62319666D01*
X104140666Y-62386333D01*
X104207333Y-62453000D01*
X104307333Y-62486333D01*
X104374000Y-62486333D01*
X104474000Y-62453000D01*
X104507333Y-62419666D01*
X105174000Y-61786333D02*
X104774000Y-61786333D01*
X104974000Y-61786333D02*
X104974000Y-62486333D01*
X104907333Y-62386333D01*
X104840666Y-62319666D01*
X104774000Y-62286333D01*
X106007333Y-61786333D02*
X106007333Y-62486333D01*
X106274000Y-62486333D01*
X106340666Y-62453000D01*
X106374000Y-62419666D01*
X106407333Y-62353000D01*
X106407333Y-62253000D01*
X106374000Y-62186333D01*
X106340666Y-62153000D01*
X106274000Y-62119666D01*
X106007333Y-62119666D01*
X107107333Y-61853000D02*
X107074000Y-61819666D01*
X106974000Y-61786333D01*
X106907333Y-61786333D01*
X106807333Y-61819666D01*
X106740666Y-61886333D01*
X106707333Y-61953000D01*
X106674000Y-62086333D01*
X106674000Y-62186333D01*
X106707333Y-62319666D01*
X106740666Y-62386333D01*
X106807333Y-62453000D01*
X106907333Y-62486333D01*
X106974000Y-62486333D01*
X107074000Y-62453000D01*
X107107333Y-62419666D01*
X107540666Y-62486333D02*
X107607333Y-62486333D01*
X107674000Y-62453000D01*
X107707333Y-62419666D01*
X107740666Y-62353000D01*
X107774000Y-62219666D01*
X107774000Y-62053000D01*
X107740666Y-61919666D01*
X107707333Y-61853000D01*
X107674000Y-61819666D01*
X107607333Y-61786333D01*
X107540666Y-61786333D01*
X107474000Y-61819666D01*
X107440666Y-61853000D01*
X107407333Y-61919666D01*
X107374000Y-62053000D01*
X107374000Y-62219666D01*
X107407333Y-62353000D01*
X107440666Y-62419666D01*
X107474000Y-62453000D01*
X107540666Y-62486333D01*
X108607333Y-61786333D02*
X108607333Y-62486333D01*
X108874000Y-62486333D01*
X108940666Y-62453000D01*
X108974000Y-62419666D01*
X109007333Y-62353000D01*
X109007333Y-62253000D01*
X108974000Y-62186333D01*
X108940666Y-62153000D01*
X108874000Y-62119666D01*
X108607333Y-62119666D01*
X109540666Y-62153000D02*
X109640666Y-62119666D01*
X109674000Y-62086333D01*
X109707333Y-62019666D01*
X109707333Y-61919666D01*
X109674000Y-61853000D01*
X109640666Y-61819666D01*
X109574000Y-61786333D01*
X109307333Y-61786333D01*
X109307333Y-62486333D01*
X109540666Y-62486333D01*
X109607333Y-62453000D01*
X109640666Y-62419666D01*
X109674000Y-62353000D01*
X109674000Y-62286333D01*
X109640666Y-62219666D01*
X109607333Y-62186333D01*
X109540666Y-62153000D01*
X109307333Y-62153000D01*
X110340666Y-62486333D02*
X110007333Y-62486333D01*
X109974000Y-62153000D01*
X110007333Y-62186333D01*
X110074000Y-62219666D01*
X110240666Y-62219666D01*
X110307333Y-62186333D01*
X110340666Y-62153000D01*
X110374000Y-62086333D01*
X110374000Y-61919666D01*
X110340666Y-61853000D01*
X110307333Y-61819666D01*
X110240666Y-61786333D01*
X110074000Y-61786333D01*
X110007333Y-61819666D01*
X109974000Y-61853000D01*
X111207333Y-61786333D02*
X111207333Y-62486333D01*
X111474000Y-62486333D01*
X111540666Y-62453000D01*
X111574000Y-62419666D01*
X111607333Y-62353000D01*
X111607333Y-62253000D01*
X111574000Y-62186333D01*
X111540666Y-62153000D01*
X111474000Y-62119666D01*
X111207333Y-62119666D01*
X112140666Y-62153000D02*
X112240666Y-62119666D01*
X112274000Y-62086333D01*
X112307333Y-62019666D01*
X112307333Y-61919666D01*
X112274000Y-61853000D01*
X112240666Y-61819666D01*
X112174000Y-61786333D01*
X111907333Y-61786333D01*
X111907333Y-62486333D01*
X112140666Y-62486333D01*
X112207333Y-62453000D01*
X112240666Y-62419666D01*
X112274000Y-62353000D01*
X112274000Y-62286333D01*
X112240666Y-62219666D01*
X112207333Y-62186333D01*
X112140666Y-62153000D01*
X111907333Y-62153000D01*
X112907333Y-62253000D02*
X112907333Y-61786333D01*
X112740666Y-62519666D02*
X112574000Y-62019666D01*
X113007333Y-62019666D01*
X113807333Y-61786333D02*
X113807333Y-62486333D01*
X114074000Y-62486333D01*
X114140666Y-62453000D01*
X114174000Y-62419666D01*
X114207333Y-62353000D01*
X114207333Y-62253000D01*
X114174000Y-62186333D01*
X114140666Y-62153000D01*
X114074000Y-62119666D01*
X113807333Y-62119666D01*
X114740666Y-62153000D02*
X114840666Y-62119666D01*
X114874000Y-62086333D01*
X114907333Y-62019666D01*
X114907333Y-61919666D01*
X114874000Y-61853000D01*
X114840666Y-61819666D01*
X114774000Y-61786333D01*
X114507333Y-61786333D01*
X114507333Y-62486333D01*
X114740666Y-62486333D01*
X114807333Y-62453000D01*
X114840666Y-62419666D01*
X114874000Y-62353000D01*
X114874000Y-62286333D01*
X114840666Y-62219666D01*
X114807333Y-62186333D01*
X114740666Y-62153000D01*
X114507333Y-62153000D01*
X115140666Y-62486333D02*
X115574000Y-62486333D01*
X115340666Y-62219666D01*
X115440666Y-62219666D01*
X115507333Y-62186333D01*
X115540666Y-62153000D01*
X115574000Y-62086333D01*
X115574000Y-61919666D01*
X115540666Y-61853000D01*
X115507333Y-61819666D01*
X115440666Y-61786333D01*
X115240666Y-61786333D01*
X115174000Y-61819666D01*
X115140666Y-61853000D01*
X116407333Y-61786333D02*
X116407333Y-62486333D01*
X116674000Y-62486333D01*
X116740666Y-62453000D01*
X116774000Y-62419666D01*
X116807333Y-62353000D01*
X116807333Y-62253000D01*
X116774000Y-62186333D01*
X116740666Y-62153000D01*
X116674000Y-62119666D01*
X116407333Y-62119666D01*
X117340666Y-62153000D02*
X117440666Y-62119666D01*
X117474000Y-62086333D01*
X117507333Y-62019666D01*
X117507333Y-61919666D01*
X117474000Y-61853000D01*
X117440666Y-61819666D01*
X117374000Y-61786333D01*
X117107333Y-61786333D01*
X117107333Y-62486333D01*
X117340666Y-62486333D01*
X117407333Y-62453000D01*
X117440666Y-62419666D01*
X117474000Y-62353000D01*
X117474000Y-62286333D01*
X117440666Y-62219666D01*
X117407333Y-62186333D01*
X117340666Y-62153000D01*
X117107333Y-62153000D01*
X117774000Y-62419666D02*
X117807333Y-62453000D01*
X117874000Y-62486333D01*
X118040666Y-62486333D01*
X118107333Y-62453000D01*
X118140666Y-62419666D01*
X118174000Y-62353000D01*
X118174000Y-62286333D01*
X118140666Y-62186333D01*
X117740666Y-61786333D01*
X118174000Y-61786333D01*
X119007333Y-61786333D02*
X119007333Y-62486333D01*
X119274000Y-62486333D01*
X119340666Y-62453000D01*
X119374000Y-62419666D01*
X119407333Y-62353000D01*
X119407333Y-62253000D01*
X119374000Y-62186333D01*
X119340666Y-62153000D01*
X119274000Y-62119666D01*
X119007333Y-62119666D01*
X119940666Y-62153000D02*
X120040666Y-62119666D01*
X120074000Y-62086333D01*
X120107333Y-62019666D01*
X120107333Y-61919666D01*
X120074000Y-61853000D01*
X120040666Y-61819666D01*
X119974000Y-61786333D01*
X119707333Y-61786333D01*
X119707333Y-62486333D01*
X119940666Y-62486333D01*
X120007333Y-62453000D01*
X120040666Y-62419666D01*
X120074000Y-62353000D01*
X120074000Y-62286333D01*
X120040666Y-62219666D01*
X120007333Y-62186333D01*
X119940666Y-62153000D01*
X119707333Y-62153000D01*
X120774000Y-61786333D02*
X120374000Y-61786333D01*
X120574000Y-61786333D02*
X120574000Y-62486333D01*
X120507333Y-62386333D01*
X120440666Y-62319666D01*
X120374000Y-62286333D01*
X114538966Y-49058066D02*
X114538966Y-49391400D01*
X114738966Y-48991400D02*
X114038966Y-49224733D01*
X114738966Y-49458066D01*
X114038966Y-49591400D02*
X114038966Y-49991400D01*
X114738966Y-49791400D02*
X114038966Y-49791400D01*
X114038966Y-50124733D02*
X114038966Y-50524733D01*
X114738966Y-50324733D02*
X114038966Y-50324733D01*
X114738966Y-50758066D02*
X114272300Y-50758066D01*
X114038966Y-50758066D02*
X114072300Y-50724733D01*
X114105633Y-50758066D01*
X114072300Y-50791400D01*
X114038966Y-50758066D01*
X114105633Y-50758066D01*
X114272300Y-51091400D02*
X114738966Y-51091400D01*
X114338966Y-51091400D02*
X114305633Y-51124733D01*
X114272300Y-51191400D01*
X114272300Y-51291400D01*
X114305633Y-51358066D01*
X114372300Y-51391400D01*
X114738966Y-51391400D01*
X114272300Y-51658066D02*
X114738966Y-51824733D01*
X114272300Y-51991400D02*
X114738966Y-51824733D01*
X114905633Y-51758066D01*
X114938966Y-51724733D01*
X114972300Y-51658066D01*
X114738966Y-52624733D02*
X114738966Y-52224733D01*
X114738966Y-52424733D02*
X114038966Y-52424733D01*
X114138966Y-52358066D01*
X114205633Y-52291400D01*
X114238966Y-52224733D01*
X114038966Y-53224733D02*
X114038966Y-53091400D01*
X114072300Y-53024733D01*
X114105633Y-52991400D01*
X114205633Y-52924733D01*
X114338966Y-52891400D01*
X114605633Y-52891400D01*
X114672300Y-52924733D01*
X114705633Y-52958066D01*
X114738966Y-53024733D01*
X114738966Y-53158066D01*
X114705633Y-53224733D01*
X114672300Y-53258066D01*
X114605633Y-53291400D01*
X114438966Y-53291400D01*
X114372300Y-53258066D01*
X114338966Y-53224733D01*
X114305633Y-53158066D01*
X114305633Y-53024733D01*
X114338966Y-52958066D01*
X114372300Y-52924733D01*
X114438966Y-52891400D01*
X114738966Y-53958066D02*
X114738966Y-53558066D01*
X114738966Y-53758066D02*
X114038966Y-53758066D01*
X114138966Y-53691400D01*
X114205633Y-53624733D01*
X114238966Y-53558066D01*
X114038966Y-54558066D02*
X114038966Y-54424733D01*
X114072300Y-54358066D01*
X114105633Y-54324733D01*
X114205633Y-54258066D01*
X114338966Y-54224733D01*
X114605633Y-54224733D01*
X114672300Y-54258066D01*
X114705633Y-54291400D01*
X114738966Y-54358066D01*
X114738966Y-54491400D01*
X114705633Y-54558066D01*
X114672300Y-54591400D01*
X114605633Y-54624733D01*
X114438966Y-54624733D01*
X114372300Y-54591400D01*
X114338966Y-54558066D01*
X114305633Y-54491400D01*
X114305633Y-54358066D01*
X114338966Y-54291400D01*
X114372300Y-54258066D01*
X114438966Y-54224733D01*
X115865966Y-47941400D02*
X115165966Y-47941400D01*
X115165966Y-48108066D01*
X115199300Y-48208066D01*
X115265966Y-48274733D01*
X115332633Y-48308066D01*
X115465966Y-48341400D01*
X115565966Y-48341400D01*
X115699300Y-48308066D01*
X115765966Y-48274733D01*
X115832633Y-48208066D01*
X115865966Y-48108066D01*
X115865966Y-47941400D01*
X115832633Y-48908066D02*
X115865966Y-48841400D01*
X115865966Y-48708066D01*
X115832633Y-48641400D01*
X115765966Y-48608066D01*
X115499300Y-48608066D01*
X115432633Y-48641400D01*
X115399300Y-48708066D01*
X115399300Y-48841400D01*
X115432633Y-48908066D01*
X115499300Y-48941400D01*
X115565966Y-48941400D01*
X115632633Y-48608066D01*
X115399300Y-49174733D02*
X115865966Y-49341400D01*
X115399300Y-49508066D01*
X115499300Y-50541400D02*
X115532633Y-50641400D01*
X115565966Y-50674733D01*
X115632633Y-50708066D01*
X115732633Y-50708066D01*
X115799300Y-50674733D01*
X115832633Y-50641400D01*
X115865966Y-50574733D01*
X115865966Y-50308066D01*
X115165966Y-50308066D01*
X115165966Y-50541400D01*
X115199300Y-50608066D01*
X115232633Y-50641400D01*
X115299300Y-50674733D01*
X115365966Y-50674733D01*
X115432633Y-50641400D01*
X115465966Y-50608066D01*
X115499300Y-50541400D01*
X115499300Y-50308066D01*
X115865966Y-51108066D02*
X115832633Y-51041400D01*
X115799300Y-51008066D01*
X115732633Y-50974733D01*
X115532633Y-50974733D01*
X115465966Y-51008066D01*
X115432633Y-51041400D01*
X115399300Y-51108066D01*
X115399300Y-51208066D01*
X115432633Y-51274733D01*
X115465966Y-51308066D01*
X115532633Y-51341400D01*
X115732633Y-51341400D01*
X115799300Y-51308066D01*
X115832633Y-51274733D01*
X115865966Y-51208066D01*
X115865966Y-51108066D01*
X115865966Y-51941400D02*
X115499300Y-51941400D01*
X115432633Y-51908066D01*
X115399300Y-51841400D01*
X115399300Y-51708066D01*
X115432633Y-51641400D01*
X115832633Y-51941400D02*
X115865966Y-51874733D01*
X115865966Y-51708066D01*
X115832633Y-51641400D01*
X115765966Y-51608066D01*
X115699300Y-51608066D01*
X115632633Y-51641400D01*
X115599300Y-51708066D01*
X115599300Y-51874733D01*
X115565966Y-51941400D01*
X115865966Y-52274733D02*
X115399300Y-52274733D01*
X115532633Y-52274733D02*
X115465966Y-52308066D01*
X115432633Y-52341400D01*
X115399300Y-52408066D01*
X115399300Y-52474733D01*
X115865966Y-53008066D02*
X115165966Y-53008066D01*
X115832633Y-53008066D02*
X115865966Y-52941400D01*
X115865966Y-52808066D01*
X115832633Y-52741400D01*
X115799300Y-52708066D01*
X115732633Y-52674733D01*
X115532633Y-52674733D01*
X115465966Y-52708066D01*
X115432633Y-52741400D01*
X115399300Y-52808066D01*
X115399300Y-52941400D01*
X115432633Y-53008066D01*
X115399300Y-53808066D02*
X115865966Y-53974733D01*
X115399300Y-54141400D01*
X115865966Y-54774733D02*
X115865966Y-54374733D01*
X115865966Y-54574733D02*
X115165966Y-54574733D01*
X115265966Y-54508066D01*
X115332633Y-54441400D01*
X115365966Y-54374733D01*
X115799300Y-55074733D02*
X115832633Y-55108066D01*
X115865966Y-55074733D01*
X115832633Y-55041400D01*
X115799300Y-55074733D01*
X115865966Y-55074733D01*
X115165966Y-55541400D02*
X115165966Y-55608066D01*
X115199300Y-55674733D01*
X115232633Y-55708066D01*
X115299300Y-55741400D01*
X115432633Y-55774733D01*
X115599300Y-55774733D01*
X115732633Y-55741400D01*
X115799300Y-55708066D01*
X115832633Y-55674733D01*
X115865966Y-55608066D01*
X115865966Y-55541400D01*
X115832633Y-55474733D01*
X115799300Y-55441400D01*
X115732633Y-55408066D01*
X115599300Y-55374733D01*
X115432633Y-55374733D01*
X115299300Y-55408066D01*
X115232633Y-55441400D01*
X115199300Y-55474733D01*
X115165966Y-55541400D01*
X98452095Y-40064809D02*
X98452095Y-40774809D01*
X98722571Y-40774809D01*
X98790190Y-40741000D01*
X98824000Y-40707190D01*
X98857809Y-40639571D01*
X98857809Y-40538142D01*
X98824000Y-40470523D01*
X98790190Y-40436714D01*
X98722571Y-40402904D01*
X98452095Y-40402904D01*
X99398761Y-40436714D02*
X99500190Y-40402904D01*
X99534000Y-40369095D01*
X99567809Y-40301476D01*
X99567809Y-40200047D01*
X99534000Y-40132428D01*
X99500190Y-40098619D01*
X99432571Y-40064809D01*
X99162095Y-40064809D01*
X99162095Y-40774809D01*
X99398761Y-40774809D01*
X99466380Y-40741000D01*
X99500190Y-40707190D01*
X99534000Y-40639571D01*
X99534000Y-40571952D01*
X99500190Y-40504333D01*
X99466380Y-40470523D01*
X99398761Y-40436714D01*
X99162095Y-40436714D01*
X100007333Y-40774809D02*
X100074952Y-40774809D01*
X100142571Y-40741000D01*
X100176380Y-40707190D01*
X100210190Y-40639571D01*
X100244000Y-40504333D01*
X100244000Y-40335285D01*
X100210190Y-40200047D01*
X100176380Y-40132428D01*
X100142571Y-40098619D01*
X100074952Y-40064809D01*
X100007333Y-40064809D01*
X99939714Y-40098619D01*
X99905904Y-40132428D01*
X99872095Y-40200047D01*
X99838285Y-40335285D01*
X99838285Y-40504333D01*
X99872095Y-40639571D01*
X99905904Y-40707190D01*
X99939714Y-40741000D01*
X100007333Y-40774809D01*
X101089238Y-40064809D02*
X101089238Y-40774809D01*
X101359714Y-40774809D01*
X101427333Y-40741000D01*
X101461142Y-40707190D01*
X101494952Y-40639571D01*
X101494952Y-40538142D01*
X101461142Y-40470523D01*
X101427333Y-40436714D01*
X101359714Y-40402904D01*
X101089238Y-40402904D01*
X101765428Y-40267666D02*
X102103523Y-40267666D01*
X101697809Y-40064809D02*
X101934476Y-40774809D01*
X102171142Y-40064809D01*
X102340190Y-40774809D02*
X102813523Y-40774809D01*
X102509238Y-40064809D01*
X103624952Y-40064809D02*
X103624952Y-40774809D01*
X103895428Y-40774809D01*
X103963047Y-40741000D01*
X103996857Y-40707190D01*
X104030666Y-40639571D01*
X104030666Y-40538142D01*
X103996857Y-40470523D01*
X103963047Y-40436714D01*
X103895428Y-40402904D01*
X103624952Y-40402904D01*
X104301142Y-40267666D02*
X104639238Y-40267666D01*
X104233523Y-40064809D02*
X104470190Y-40774809D01*
X104706857Y-40064809D01*
X105247809Y-40774809D02*
X105112571Y-40774809D01*
X105044952Y-40741000D01*
X105011142Y-40707190D01*
X104943523Y-40605761D01*
X104909714Y-40470523D01*
X104909714Y-40200047D01*
X104943523Y-40132428D01*
X104977333Y-40098619D01*
X105044952Y-40064809D01*
X105180190Y-40064809D01*
X105247809Y-40098619D01*
X105281619Y-40132428D01*
X105315428Y-40200047D01*
X105315428Y-40369095D01*
X105281619Y-40436714D01*
X105247809Y-40470523D01*
X105180190Y-40504333D01*
X105044952Y-40504333D01*
X104977333Y-40470523D01*
X104943523Y-40436714D01*
X104909714Y-40369095D01*
X106160666Y-40064809D02*
X106160666Y-40774809D01*
X106431142Y-40774809D01*
X106498761Y-40741000D01*
X106532571Y-40707190D01*
X106566380Y-40639571D01*
X106566380Y-40538142D01*
X106532571Y-40470523D01*
X106498761Y-40436714D01*
X106431142Y-40402904D01*
X106160666Y-40402904D01*
X106836857Y-40267666D02*
X107174952Y-40267666D01*
X106769238Y-40064809D02*
X107005904Y-40774809D01*
X107242571Y-40064809D01*
X107817333Y-40774809D02*
X107479238Y-40774809D01*
X107445428Y-40436714D01*
X107479238Y-40470523D01*
X107546857Y-40504333D01*
X107715904Y-40504333D01*
X107783523Y-40470523D01*
X107817333Y-40436714D01*
X107851142Y-40369095D01*
X107851142Y-40200047D01*
X107817333Y-40132428D01*
X107783523Y-40098619D01*
X107715904Y-40064809D01*
X107546857Y-40064809D01*
X107479238Y-40098619D01*
X107445428Y-40132428D01*
X108696380Y-40064809D02*
X108696380Y-40774809D01*
X108966857Y-40774809D01*
X109034476Y-40741000D01*
X109068285Y-40707190D01*
X109102095Y-40639571D01*
X109102095Y-40538142D01*
X109068285Y-40470523D01*
X109034476Y-40436714D01*
X108966857Y-40402904D01*
X108696380Y-40402904D01*
X109372571Y-40267666D02*
X109710666Y-40267666D01*
X109304952Y-40064809D02*
X109541619Y-40774809D01*
X109778285Y-40064809D01*
X110319238Y-40538142D02*
X110319238Y-40064809D01*
X110150190Y-40808619D02*
X109981142Y-40301476D01*
X110420666Y-40301476D01*
X111232095Y-40064809D02*
X111232095Y-40774809D01*
X111502571Y-40774809D01*
X111570190Y-40741000D01*
X111604000Y-40707190D01*
X111637809Y-40639571D01*
X111637809Y-40538142D01*
X111604000Y-40470523D01*
X111570190Y-40436714D01*
X111502571Y-40402904D01*
X111232095Y-40402904D01*
X111908285Y-40267666D02*
X112246380Y-40267666D01*
X111840666Y-40064809D02*
X112077333Y-40774809D01*
X112314000Y-40064809D01*
X112483047Y-40774809D02*
X112922571Y-40774809D01*
X112685904Y-40504333D01*
X112787333Y-40504333D01*
X112854952Y-40470523D01*
X112888761Y-40436714D01*
X112922571Y-40369095D01*
X112922571Y-40200047D01*
X112888761Y-40132428D01*
X112854952Y-40098619D01*
X112787333Y-40064809D01*
X112584476Y-40064809D01*
X112516857Y-40098619D01*
X112483047Y-40132428D01*
X113767809Y-40064809D02*
X113767809Y-40774809D01*
X114038285Y-40774809D01*
X114105904Y-40741000D01*
X114139714Y-40707190D01*
X114173523Y-40639571D01*
X114173523Y-40538142D01*
X114139714Y-40470523D01*
X114105904Y-40436714D01*
X114038285Y-40402904D01*
X113767809Y-40402904D01*
X114444000Y-40267666D02*
X114782095Y-40267666D01*
X114376380Y-40064809D02*
X114613047Y-40774809D01*
X114849714Y-40064809D01*
X115052571Y-40707190D02*
X115086380Y-40741000D01*
X115154000Y-40774809D01*
X115323047Y-40774809D01*
X115390666Y-40741000D01*
X115424476Y-40707190D01*
X115458285Y-40639571D01*
X115458285Y-40571952D01*
X115424476Y-40470523D01*
X115018761Y-40064809D01*
X115458285Y-40064809D01*
X116303523Y-40064809D02*
X116303523Y-40774809D01*
X116574000Y-40774809D01*
X116641619Y-40741000D01*
X116675428Y-40707190D01*
X116709238Y-40639571D01*
X116709238Y-40538142D01*
X116675428Y-40470523D01*
X116641619Y-40436714D01*
X116574000Y-40402904D01*
X116303523Y-40402904D01*
X116979714Y-40267666D02*
X117317809Y-40267666D01*
X116912095Y-40064809D02*
X117148761Y-40774809D01*
X117385428Y-40064809D01*
X117994000Y-40064809D02*
X117588285Y-40064809D01*
X117791142Y-40064809D02*
X117791142Y-40774809D01*
X117723523Y-40673380D01*
X117655904Y-40605761D01*
X117588285Y-40571952D01*
X118839238Y-40064809D02*
X118839238Y-40774809D01*
X119109714Y-40774809D01*
X119177333Y-40741000D01*
X119211142Y-40707190D01*
X119244952Y-40639571D01*
X119244952Y-40538142D01*
X119211142Y-40470523D01*
X119177333Y-40436714D01*
X119109714Y-40402904D01*
X118839238Y-40402904D01*
X119515428Y-40267666D02*
X119853523Y-40267666D01*
X119447809Y-40064809D02*
X119684476Y-40774809D01*
X119921142Y-40064809D01*
X120293047Y-40774809D02*
X120360666Y-40774809D01*
X120428285Y-40741000D01*
X120462095Y-40707190D01*
X120495904Y-40639571D01*
X120529714Y-40504333D01*
X120529714Y-40335285D01*
X120495904Y-40200047D01*
X120462095Y-40132428D01*
X120428285Y-40098619D01*
X120360666Y-40064809D01*
X120293047Y-40064809D01*
X120225428Y-40098619D01*
X120191619Y-40132428D01*
X120157809Y-40200047D01*
X120124000Y-40335285D01*
X120124000Y-40504333D01*
X120157809Y-40639571D01*
X120191619Y-40707190D01*
X120225428Y-40741000D01*
X120293047Y-40774809D01*
X129439000Y-64705666D02*
X129672333Y-64372333D01*
X129839000Y-64705666D02*
X129839000Y-64005666D01*
X129572333Y-64005666D01*
X129505666Y-64039000D01*
X129472333Y-64072333D01*
X129439000Y-64139000D01*
X129439000Y-64239000D01*
X129472333Y-64305666D01*
X129505666Y-64339000D01*
X129572333Y-64372333D01*
X129839000Y-64372333D01*
X129172333Y-64672333D02*
X129072333Y-64705666D01*
X128905666Y-64705666D01*
X128839000Y-64672333D01*
X128805666Y-64639000D01*
X128772333Y-64572333D01*
X128772333Y-64505666D01*
X128805666Y-64439000D01*
X128839000Y-64405666D01*
X128905666Y-64372333D01*
X129039000Y-64339000D01*
X129105666Y-64305666D01*
X129139000Y-64272333D01*
X129172333Y-64205666D01*
X129172333Y-64139000D01*
X129139000Y-64072333D01*
X129105666Y-64039000D01*
X129039000Y-64005666D01*
X128872333Y-64005666D01*
X128772333Y-64039000D01*
X128472333Y-64439000D02*
X127939000Y-64439000D01*
X127305666Y-64239000D02*
X127305666Y-64705666D01*
X127472333Y-63972333D02*
X127639000Y-64472333D01*
X127205666Y-64472333D01*
X126839000Y-64305666D02*
X126905666Y-64272333D01*
X126939000Y-64239000D01*
X126972333Y-64172333D01*
X126972333Y-64139000D01*
X126939000Y-64072333D01*
X126905666Y-64039000D01*
X126839000Y-64005666D01*
X126705666Y-64005666D01*
X126639000Y-64039000D01*
X126605666Y-64072333D01*
X126572333Y-64139000D01*
X126572333Y-64172333D01*
X126605666Y-64239000D01*
X126639000Y-64272333D01*
X126705666Y-64305666D01*
X126839000Y-64305666D01*
X126905666Y-64339000D01*
X126939000Y-64372333D01*
X126972333Y-64439000D01*
X126972333Y-64572333D01*
X126939000Y-64639000D01*
X126905666Y-64672333D01*
X126839000Y-64705666D01*
X126705666Y-64705666D01*
X126639000Y-64672333D01*
X126605666Y-64639000D01*
X126572333Y-64572333D01*
X126572333Y-64439000D01*
X126605666Y-64372333D01*
X126639000Y-64339000D01*
X126705666Y-64305666D01*
X125939000Y-64005666D02*
X126272333Y-64005666D01*
X126305666Y-64339000D01*
X126272333Y-64305666D01*
X126205666Y-64272333D01*
X126039000Y-64272333D01*
X125972333Y-64305666D01*
X125939000Y-64339000D01*
X125905666Y-64405666D01*
X125905666Y-64572333D01*
X125939000Y-64639000D01*
X125972333Y-64672333D01*
X126039000Y-64705666D01*
X126205666Y-64705666D01*
X126272333Y-64672333D01*
X126305666Y-64639000D01*
%TO.C,G\u002A\u002A\u002A*%
G36*
X95887444Y-57223209D02*
G01*
X95887444Y-57526288D01*
X94978206Y-57526288D01*
X94978206Y-57819591D01*
X95281285Y-57819591D01*
X95281285Y-58132447D01*
X94675127Y-58132447D01*
X94675127Y-58425749D01*
X95281285Y-58425749D01*
X95281285Y-58728828D01*
X95584364Y-58728828D01*
X95584364Y-59031908D01*
X95877667Y-59031908D01*
X95877667Y-58728828D01*
X96180746Y-58728828D01*
X96180746Y-58435526D01*
X95877667Y-58435526D01*
X95877667Y-58132447D01*
X95574588Y-58132447D01*
X95574588Y-57819591D01*
X95887444Y-57819591D01*
X95887444Y-58122670D01*
X96180746Y-58122670D01*
X96180746Y-57516511D01*
X96483826Y-57516511D01*
X96483826Y-57213432D01*
X96786905Y-57213432D01*
X96786905Y-56910353D01*
X97099761Y-56910353D01*
X97099761Y-57526288D01*
X96796682Y-57526288D01*
X96796682Y-58122670D01*
X97099761Y-58122670D01*
X97099761Y-58435526D01*
X96786905Y-58435526D01*
X96786905Y-58132447D01*
X96493602Y-58132447D01*
X96493602Y-58738605D01*
X96190523Y-58738605D01*
X96190523Y-59031908D01*
X96493602Y-59031908D01*
X96493602Y-59344764D01*
X95584364Y-59344764D01*
X95584364Y-59638066D01*
X96190523Y-59638066D01*
X96190523Y-59941146D01*
X96493602Y-59941146D01*
X96493602Y-60254002D01*
X96190523Y-60254002D01*
X96190523Y-60557081D01*
X95877667Y-60557081D01*
X95877667Y-60254002D01*
X95281285Y-60254002D01*
X95281285Y-60557081D01*
X94675127Y-60557081D01*
X94675127Y-60860160D01*
X94059191Y-60860160D01*
X94059191Y-60547304D01*
X94362271Y-60547304D01*
X94362271Y-60244225D01*
X95271508Y-60244225D01*
X95271508Y-59950922D01*
X94968429Y-59950922D01*
X94968429Y-59647843D01*
X94665350Y-59647843D01*
X94665350Y-59638066D01*
X94978206Y-59638066D01*
X95271508Y-59638066D01*
X95271508Y-59344764D01*
X94978206Y-59344764D01*
X94978206Y-59638066D01*
X94665350Y-59638066D01*
X94665350Y-59334987D01*
X94968429Y-59334987D01*
X95281285Y-59334987D01*
X95574588Y-59334987D01*
X95574588Y-59041685D01*
X95281285Y-59041685D01*
X95281285Y-59334987D01*
X94968429Y-59334987D01*
X94968429Y-59041685D01*
X94068968Y-59041685D01*
X94068968Y-59334987D01*
X94372047Y-59334987D01*
X94372047Y-59950922D01*
X94068968Y-59950922D01*
X94068968Y-60254002D01*
X93765889Y-60254002D01*
X93765889Y-60557081D01*
X93453033Y-60557081D01*
X93453033Y-60244225D01*
X93756112Y-60244225D01*
X93756112Y-59344764D01*
X93462809Y-59344764D01*
X93462809Y-59647843D01*
X93149953Y-59647843D01*
X93149953Y-59344764D01*
X92543795Y-59344764D01*
X92543795Y-59334987D01*
X93159730Y-59334987D01*
X93453033Y-59334987D01*
X93453033Y-59031908D01*
X93765889Y-59031908D01*
X94059191Y-59031908D01*
X94978206Y-59031908D01*
X95271508Y-59031908D01*
X95271508Y-58738605D01*
X94978206Y-58738605D01*
X94978206Y-59031908D01*
X94059191Y-59031908D01*
X94059191Y-58728828D01*
X94362271Y-58728828D01*
X94362271Y-58435526D01*
X93765889Y-58435526D01*
X93765889Y-59031908D01*
X93453033Y-59031908D01*
X93453033Y-58738605D01*
X93159730Y-58738605D01*
X93159730Y-59334987D01*
X92543795Y-59334987D01*
X92543795Y-59031908D01*
X92846874Y-59031908D01*
X92846874Y-58425749D01*
X93149953Y-58425749D01*
X93149953Y-57819591D01*
X93453033Y-57819591D01*
X93453033Y-57526288D01*
X92856651Y-57526288D01*
X92856651Y-57829367D01*
X92543795Y-57829367D01*
X92543795Y-57526288D01*
X92250492Y-57526288D01*
X92250492Y-57829367D01*
X91947413Y-57829367D01*
X91947413Y-58122670D01*
X92250492Y-58122670D01*
X92250492Y-58425749D01*
X92553572Y-58425749D01*
X92553572Y-58738605D01*
X92250492Y-58738605D01*
X92250492Y-59041685D01*
X91947413Y-59041685D01*
X91947413Y-59334987D01*
X92250492Y-59334987D01*
X92250492Y-59638066D01*
X92553572Y-59638066D01*
X92553572Y-59950922D01*
X92250492Y-59950922D01*
X92250492Y-60244225D01*
X93159730Y-60244225D01*
X93159730Y-60557081D01*
X92856651Y-60557081D01*
X92856651Y-60850384D01*
X93765889Y-60850384D01*
X93765889Y-61153463D01*
X94068968Y-61153463D01*
X94068968Y-61759621D01*
X94362271Y-61759621D01*
X94362271Y-61456542D01*
X94675127Y-61456542D01*
X94675127Y-62375557D01*
X94362271Y-62375557D01*
X94362271Y-62072477D01*
X94068968Y-62072477D01*
X94068968Y-62668859D01*
X94372047Y-62668859D01*
X94372047Y-62981715D01*
X94059191Y-62981715D01*
X94059191Y-62678636D01*
X93765889Y-62678636D01*
X93765889Y-62981715D01*
X93453033Y-62981715D01*
X93453033Y-62678636D01*
X93149953Y-62678636D01*
X93149953Y-62375557D01*
X92846874Y-62375557D01*
X92846874Y-62062701D01*
X93149953Y-62062701D01*
X93462809Y-62062701D01*
X94059191Y-62062701D01*
X94059191Y-61769398D01*
X93462809Y-61769398D01*
X93462809Y-62062701D01*
X93149953Y-62062701D01*
X93149953Y-61769398D01*
X92846874Y-61769398D01*
X92846874Y-61466319D01*
X92240715Y-61466319D01*
X92240715Y-61456542D01*
X92856651Y-61456542D01*
X93453033Y-61456542D01*
X93453033Y-61163240D01*
X92856651Y-61163240D01*
X92856651Y-61456542D01*
X92240715Y-61456542D01*
X92240715Y-61153463D01*
X92553572Y-61153463D01*
X92846874Y-61153463D01*
X92846874Y-60860160D01*
X92553572Y-60860160D01*
X92553572Y-61153463D01*
X92240715Y-61153463D01*
X92240715Y-60860160D01*
X91947413Y-60860160D01*
X91947413Y-61466319D01*
X91038175Y-61466319D01*
X91038175Y-61759621D01*
X91341254Y-61759621D01*
X91341254Y-62062701D01*
X90422240Y-62062701D01*
X90422240Y-61769398D01*
X90128937Y-61769398D01*
X90128937Y-62062701D01*
X91634557Y-62062701D01*
X91634557Y-61759621D01*
X92250492Y-61759621D01*
X92250492Y-62062701D01*
X92553572Y-62062701D01*
X92553572Y-62668859D01*
X92856651Y-62668859D01*
X92856651Y-62981715D01*
X92543795Y-62981715D01*
X92543795Y-62678636D01*
X91937636Y-62678636D01*
X91937636Y-62375557D01*
X91644334Y-62375557D01*
X91644334Y-62981715D01*
X91331478Y-62981715D01*
X91331478Y-62375557D01*
X89825858Y-62375557D01*
X89825858Y-62981715D01*
X88906843Y-62981715D01*
X88906843Y-62678636D01*
X88603764Y-62678636D01*
X88603764Y-62668859D01*
X88916620Y-62668859D01*
X89513002Y-62668859D01*
X89513002Y-62365780D01*
X91947413Y-62365780D01*
X92240715Y-62365780D01*
X92240715Y-62072477D01*
X91947413Y-62072477D01*
X91947413Y-62365780D01*
X89513002Y-62365780D01*
X89513002Y-62062701D01*
X89816081Y-62062701D01*
X89816081Y-61769398D01*
X88916620Y-61769398D01*
X88916620Y-62668859D01*
X88603764Y-62668859D01*
X88603764Y-61769398D01*
X88300685Y-61769398D01*
X88300685Y-61759621D01*
X88613541Y-61759621D01*
X88906843Y-61759621D01*
X88906843Y-61466319D01*
X88613541Y-61466319D01*
X88613541Y-61759621D01*
X88300685Y-61759621D01*
X88300685Y-61456542D01*
X88603764Y-61456542D01*
X88603764Y-61153463D01*
X88916620Y-61153463D01*
X88916620Y-61456542D01*
X89209923Y-61456542D01*
X89825858Y-61456542D01*
X90725319Y-61456542D01*
X90725319Y-60850384D01*
X92250492Y-60850384D01*
X92543795Y-60850384D01*
X92543795Y-60557081D01*
X92250492Y-60557081D01*
X92250492Y-60850384D01*
X90725319Y-60850384D01*
X90725319Y-60557081D01*
X89825858Y-60557081D01*
X89825858Y-61456542D01*
X89209923Y-61456542D01*
X89209923Y-61153463D01*
X89513002Y-61153463D01*
X89513002Y-60860160D01*
X89209923Y-60860160D01*
X89209923Y-60557081D01*
X88916620Y-60557081D01*
X88916620Y-60860160D01*
X88300685Y-60860160D01*
X88300685Y-59941146D01*
X88613541Y-59941146D01*
X88613541Y-60547304D01*
X88906843Y-60547304D01*
X88906843Y-60244225D01*
X89219699Y-60244225D01*
X89219699Y-60547304D01*
X89513002Y-60547304D01*
X89513002Y-60244225D01*
X89816081Y-60244225D01*
X90432016Y-60244225D01*
X90725319Y-60244225D01*
X90725319Y-59941146D01*
X91028398Y-59941146D01*
X91028398Y-59638066D01*
X91341254Y-59638066D01*
X91341254Y-59950922D01*
X91038175Y-59950922D01*
X91038175Y-60547304D01*
X91331478Y-60547304D01*
X91947413Y-60547304D01*
X92240715Y-60547304D01*
X92240715Y-60254002D01*
X91947413Y-60254002D01*
X91947413Y-60547304D01*
X91331478Y-60547304D01*
X91331478Y-60244225D01*
X91634557Y-60244225D01*
X91634557Y-59344764D01*
X91331478Y-59344764D01*
X91331478Y-59031908D01*
X91644334Y-59031908D01*
X91937636Y-59031908D01*
X91937636Y-58132447D01*
X91644334Y-58132447D01*
X91644334Y-59031908D01*
X91331478Y-59031908D01*
X91331478Y-58435526D01*
X91038175Y-58435526D01*
X91038175Y-58738605D01*
X90735096Y-58738605D01*
X90735096Y-59041685D01*
X90432016Y-59041685D01*
X90432016Y-59334987D01*
X90735096Y-59334987D01*
X90735096Y-59647843D01*
X90432016Y-59647843D01*
X90432016Y-60244225D01*
X89816081Y-60244225D01*
X89816081Y-59638066D01*
X90422240Y-59638066D01*
X90422240Y-59344764D01*
X89219699Y-59344764D01*
X89219699Y-59638066D01*
X89522779Y-59638066D01*
X89522779Y-59950922D01*
X88906843Y-59950922D01*
X88906843Y-59647843D01*
X88300685Y-59647843D01*
X88300685Y-59031908D01*
X89209923Y-59031908D01*
X89825858Y-59031908D01*
X90422240Y-59031908D01*
X90422240Y-58738605D01*
X89825858Y-58738605D01*
X89825858Y-59031908D01*
X89209923Y-59031908D01*
X89209923Y-58728828D01*
X89816081Y-58728828D01*
X90432016Y-58728828D01*
X90725319Y-58728828D01*
X90725319Y-58435526D01*
X90432016Y-58435526D01*
X90432016Y-58728828D01*
X89816081Y-58728828D01*
X89816081Y-58435526D01*
X89209923Y-58435526D01*
X89209923Y-58425749D01*
X89825858Y-58425749D01*
X90119160Y-58425749D01*
X90119160Y-58132447D01*
X89825858Y-58132447D01*
X89825858Y-58425749D01*
X89209923Y-58425749D01*
X89209923Y-58132447D01*
X88916620Y-58132447D01*
X88916620Y-58435526D01*
X88300685Y-58435526D01*
X88300685Y-58122670D01*
X89219699Y-58122670D01*
X89816081Y-58122670D01*
X90128937Y-58122670D01*
X90422240Y-58122670D01*
X90422240Y-57829367D01*
X90128937Y-57829367D01*
X90128937Y-58122670D01*
X89816081Y-58122670D01*
X89816081Y-57526288D01*
X89522779Y-57526288D01*
X89522779Y-57829367D01*
X89219699Y-57829367D01*
X89219699Y-58122670D01*
X88300685Y-58122670D01*
X88300685Y-57819591D01*
X88603764Y-57819591D01*
X88916620Y-57819591D01*
X89209923Y-57819591D01*
X89209923Y-57526288D01*
X88916620Y-57526288D01*
X88916620Y-57819591D01*
X88603764Y-57819591D01*
X88603764Y-57516511D01*
X88906843Y-57516511D01*
X89219699Y-57516511D01*
X89513002Y-57516511D01*
X89825858Y-57516511D01*
X90119160Y-57516511D01*
X90119160Y-57213432D01*
X90422240Y-57213432D01*
X90422240Y-56920129D01*
X89825858Y-56920129D01*
X89825858Y-57516511D01*
X89513002Y-57516511D01*
X89513002Y-57223209D01*
X89219699Y-57223209D01*
X89219699Y-57516511D01*
X88906843Y-57516511D01*
X88906843Y-56920129D01*
X88613541Y-56920129D01*
X88613541Y-57223209D01*
X88300685Y-57223209D01*
X88300685Y-56607273D01*
X89219699Y-56607273D01*
X89219699Y-56910353D01*
X89816081Y-56910353D01*
X89816081Y-56607273D01*
X90735096Y-56607273D01*
X90735096Y-57819591D01*
X91038175Y-57819591D01*
X91038175Y-58122670D01*
X91634557Y-58122670D01*
X91634557Y-57829367D01*
X91331478Y-57829367D01*
X91331478Y-57516511D01*
X91644334Y-57516511D01*
X91644334Y-57819591D01*
X91937636Y-57819591D01*
X91937636Y-57516511D01*
X92240715Y-57516511D01*
X92553572Y-57516511D01*
X92846874Y-57516511D01*
X92846874Y-57223209D01*
X92553572Y-57223209D01*
X92553572Y-57516511D01*
X92240715Y-57516511D01*
X92240715Y-56920129D01*
X91947413Y-56920129D01*
X91947413Y-57223209D01*
X91634557Y-57223209D01*
X91634557Y-56920129D01*
X91331478Y-56920129D01*
X91331478Y-56617050D01*
X91028398Y-56617050D01*
X91028398Y-56607273D01*
X91341254Y-56607273D01*
X91644334Y-56607273D01*
X91644334Y-56910353D01*
X91937636Y-56910353D01*
X91937636Y-55698036D01*
X92250492Y-55698036D01*
X92250492Y-56304194D01*
X92543795Y-56304194D01*
X92856651Y-56304194D01*
X93149953Y-56304194D01*
X93149953Y-56010892D01*
X92856651Y-56010892D01*
X92856651Y-56304194D01*
X92543795Y-56304194D01*
X92543795Y-56001115D01*
X92846874Y-56001115D01*
X92846874Y-55091877D01*
X93159730Y-55091877D01*
X93159730Y-56001115D01*
X93462809Y-56001115D01*
X93462809Y-56313971D01*
X93159730Y-56313971D01*
X93159730Y-56617050D01*
X92250492Y-56617050D01*
X92250492Y-56910353D01*
X92856651Y-56910353D01*
X92856651Y-57213432D01*
X93149953Y-57213432D01*
X93149953Y-56910353D01*
X93453033Y-56910353D01*
X93453033Y-56607273D01*
X93765889Y-56607273D01*
X93765889Y-57223209D01*
X93462809Y-57223209D01*
X93462809Y-57516511D01*
X93765889Y-57516511D01*
X93765889Y-58122670D01*
X94362271Y-58122670D01*
X94362271Y-57829367D01*
X94059191Y-57829367D01*
X94059191Y-57516511D01*
X94372047Y-57516511D01*
X94968429Y-57516511D01*
X94968429Y-57223209D01*
X94372047Y-57223209D01*
X94372047Y-57516511D01*
X94059191Y-57516511D01*
X94059191Y-57213432D01*
X94362271Y-57213432D01*
X94978206Y-57213432D01*
X95271508Y-57213432D01*
X95271508Y-56920129D01*
X94978206Y-56920129D01*
X94978206Y-57213432D01*
X94362271Y-57213432D01*
X94362271Y-56920129D01*
X94059191Y-56920129D01*
X94059191Y-56607273D01*
X94362271Y-56607273D01*
X94362271Y-55707812D01*
X94068968Y-55707812D01*
X94068968Y-56313971D01*
X93756112Y-56313971D01*
X93756112Y-55707812D01*
X93453033Y-55707812D01*
X93453033Y-55394956D01*
X93756112Y-55394956D01*
X93756112Y-55101654D01*
X93453033Y-55101654D01*
X93453033Y-55091877D01*
X93765889Y-55091877D01*
X94059191Y-55091877D01*
X94059191Y-54798574D01*
X93765889Y-54798574D01*
X93765889Y-55091877D01*
X93453033Y-55091877D01*
X93453033Y-54798574D01*
X92250492Y-54798574D01*
X92250492Y-55091877D01*
X92553572Y-55091877D01*
X92553572Y-55404733D01*
X92240715Y-55404733D01*
X92240715Y-55101654D01*
X91947413Y-55101654D01*
X91947413Y-55404733D01*
X91644334Y-55404733D01*
X91644334Y-56313971D01*
X91341254Y-56313971D01*
X91341254Y-56607273D01*
X91028398Y-56607273D01*
X91028398Y-56313971D01*
X90725319Y-56313971D01*
X90725319Y-56001115D01*
X91038175Y-56001115D01*
X91038175Y-56304194D01*
X91331478Y-56304194D01*
X91331478Y-55707812D01*
X91028398Y-55707812D01*
X91028398Y-55394956D01*
X91341254Y-55394956D01*
X91634557Y-55394956D01*
X91634557Y-55101654D01*
X91341254Y-55101654D01*
X91341254Y-55394956D01*
X91028398Y-55394956D01*
X91028398Y-55101654D01*
X90725319Y-55101654D01*
X90725319Y-55091877D01*
X91644334Y-55091877D01*
X91937636Y-55091877D01*
X91937636Y-54798574D01*
X91644334Y-54798574D01*
X91644334Y-55091877D01*
X90725319Y-55091877D01*
X90725319Y-54788798D01*
X91028398Y-54788798D01*
X91341254Y-54788798D01*
X91634557Y-54788798D01*
X91634557Y-54495495D01*
X91341254Y-54495495D01*
X91341254Y-54788798D01*
X91028398Y-54788798D01*
X91028398Y-54495495D01*
X90725319Y-54495495D01*
X90725319Y-54182639D01*
X91038175Y-54182639D01*
X91038175Y-54485718D01*
X91331478Y-54485718D01*
X91331478Y-54182639D01*
X91947413Y-54182639D01*
X91947413Y-54788798D01*
X92240715Y-54788798D01*
X94068968Y-54788798D01*
X94362271Y-54788798D01*
X94362271Y-54495495D01*
X94068968Y-54495495D01*
X94068968Y-54788798D01*
X92240715Y-54788798D01*
X92240715Y-54485718D01*
X92543795Y-54485718D01*
X92543795Y-54182639D01*
X92856651Y-54182639D01*
X92856651Y-54485718D01*
X93756112Y-54485718D01*
X93756112Y-54182639D01*
X94675127Y-54182639D01*
X94675127Y-55101654D01*
X94372047Y-55101654D01*
X94372047Y-55698036D01*
X94675127Y-55698036D01*
X94675127Y-56910353D01*
X94968429Y-56910353D01*
X94968429Y-56607273D01*
X95281285Y-56607273D01*
X95281285Y-56910353D01*
X95574588Y-56910353D01*
X95574588Y-56607273D01*
X96493602Y-56607273D01*
X96493602Y-56920129D01*
X96190523Y-56920129D01*
X96190523Y-57223209D01*
X95887444Y-57223209D01*
G37*
G36*
X91038175Y-62981715D02*
G01*
X90725319Y-62981715D01*
X90725319Y-62668859D01*
X91038175Y-62668859D01*
X91038175Y-62981715D01*
G37*
G36*
X90432016Y-62981715D02*
G01*
X90119160Y-62981715D01*
X90119160Y-62668859D01*
X90432016Y-62668859D01*
X90432016Y-62981715D01*
G37*
G36*
X94978206Y-62971939D02*
G01*
X94978206Y-62668859D01*
X95281285Y-62668859D01*
X96796682Y-62668859D01*
X96796682Y-61153463D01*
X95281285Y-61153463D01*
X95281285Y-62668859D01*
X94978206Y-62668859D01*
X94978206Y-60850384D01*
X97099761Y-60850384D01*
X97099761Y-62971939D01*
X94978206Y-62971939D01*
G37*
G36*
X97099761Y-60557081D02*
G01*
X96786905Y-60557081D01*
X96786905Y-59334987D01*
X97099761Y-59334987D01*
X97099761Y-60557081D01*
G37*
G36*
X97099761Y-59041685D02*
G01*
X96786905Y-59041685D01*
X96786905Y-58728828D01*
X97099761Y-58728828D01*
X97099761Y-59041685D01*
G37*
G36*
X94978206Y-56304194D02*
G01*
X94978206Y-56001115D01*
X95281285Y-56001115D01*
X96796682Y-56001115D01*
X96796682Y-54485718D01*
X95281285Y-54485718D01*
X95281285Y-56001115D01*
X94978206Y-56001115D01*
X94978206Y-54182639D01*
X97099761Y-54182639D01*
X97099761Y-56304194D01*
X94978206Y-56304194D01*
G37*
G36*
X88310461Y-56304194D02*
G01*
X88310461Y-56001115D01*
X88613541Y-56001115D01*
X90128937Y-56001115D01*
X90128937Y-54485718D01*
X88613541Y-54485718D01*
X88613541Y-56001115D01*
X88310461Y-56001115D01*
X88310461Y-54182639D01*
X90432016Y-54182639D01*
X90432016Y-56304194D01*
X88310461Y-56304194D01*
G37*
G36*
X90432016Y-61163240D02*
G01*
X90119160Y-61163240D01*
X90119160Y-60850384D01*
X90432016Y-60850384D01*
X90432016Y-61163240D01*
G37*
G36*
X96493602Y-62365780D02*
G01*
X95584364Y-62365780D01*
X95584364Y-61456542D01*
X96493602Y-61456542D01*
X96493602Y-62365780D01*
G37*
G36*
X96493602Y-55698036D02*
G01*
X95584364Y-55698036D01*
X95584364Y-54788798D01*
X96493602Y-54788798D01*
X96493602Y-55698036D01*
G37*
G36*
X89825858Y-55698036D02*
G01*
X88916620Y-55698036D01*
X88916620Y-54788798D01*
X89825858Y-54788798D01*
X89825858Y-55698036D01*
G37*
%TO.C,REF\u002A\u002A*%
G36*
X121976105Y-54320093D02*
G01*
X122052321Y-54323638D01*
X122108094Y-54332917D01*
X122149413Y-54350025D01*
X122182267Y-54377056D01*
X122212646Y-54416108D01*
X122226460Y-54440955D01*
X122235765Y-54480785D01*
X122235030Y-54536735D01*
X122232083Y-54568015D01*
X122223083Y-54605747D01*
X122203520Y-54635906D01*
X122167067Y-54670992D01*
X122161743Y-54675680D01*
X122120769Y-54707223D01*
X122085083Y-54722272D01*
X122042766Y-54726114D01*
X121980579Y-54726114D01*
X121996982Y-54682658D01*
X122016156Y-54650976D01*
X122061147Y-54623438D01*
X122075552Y-54617689D01*
X122116346Y-54585545D01*
X122136881Y-54541789D01*
X122135035Y-54494146D01*
X122108686Y-54450343D01*
X122092255Y-54435289D01*
X122067467Y-54421637D01*
X122044944Y-54425907D01*
X122021764Y-54450484D01*
X121995002Y-54497749D01*
X121961734Y-54570086D01*
X121896616Y-54718857D01*
X121832108Y-54722805D01*
X121783864Y-54721062D01*
X121722896Y-54699119D01*
X121689297Y-54671421D01*
X121651766Y-54613995D01*
X121632806Y-54545873D01*
X121632935Y-54539810D01*
X121731164Y-54539810D01*
X121753909Y-54592256D01*
X121765281Y-54606791D01*
X121791020Y-54624390D01*
X121816457Y-54617032D01*
X121843614Y-54583552D01*
X121874514Y-54522786D01*
X121878990Y-54512731D01*
X121899817Y-54464649D01*
X121914465Y-54428674D01*
X121920000Y-54411956D01*
X121915926Y-54409423D01*
X121891047Y-54408407D01*
X121851057Y-54412031D01*
X121811952Y-54421158D01*
X121762684Y-54449627D01*
X121734922Y-54490722D01*
X121731164Y-54539810D01*
X121632935Y-54539810D01*
X121634307Y-54475453D01*
X121658155Y-54411133D01*
X121667313Y-54396974D01*
X121695649Y-54364496D01*
X121731495Y-54342284D01*
X121780184Y-54328596D01*
X121847049Y-54321685D01*
X121891047Y-54320772D01*
X121937422Y-54319810D01*
X121976105Y-54320093D01*
G37*
D11*
X121976105Y-54320093D02*
X122052321Y-54323638D01*
X122108094Y-54332917D01*
X122149413Y-54350025D01*
X122182267Y-54377056D01*
X122212646Y-54416108D01*
X122226460Y-54440955D01*
X122235765Y-54480785D01*
X122235030Y-54536735D01*
X122232083Y-54568015D01*
X122223083Y-54605747D01*
X122203520Y-54635906D01*
X122167067Y-54670992D01*
X122161743Y-54675680D01*
X122120769Y-54707223D01*
X122085083Y-54722272D01*
X122042766Y-54726114D01*
X121980579Y-54726114D01*
X121996982Y-54682658D01*
X122016156Y-54650976D01*
X122061147Y-54623438D01*
X122075552Y-54617689D01*
X122116346Y-54585545D01*
X122136881Y-54541789D01*
X122135035Y-54494146D01*
X122108686Y-54450343D01*
X122092255Y-54435289D01*
X122067467Y-54421637D01*
X122044944Y-54425907D01*
X122021764Y-54450484D01*
X121995002Y-54497749D01*
X121961734Y-54570086D01*
X121896616Y-54718857D01*
X121832108Y-54722805D01*
X121783864Y-54721062D01*
X121722896Y-54699119D01*
X121689297Y-54671421D01*
X121651766Y-54613995D01*
X121632806Y-54545873D01*
X121632935Y-54539810D01*
X121731164Y-54539810D01*
X121753909Y-54592256D01*
X121765281Y-54606791D01*
X121791020Y-54624390D01*
X121816457Y-54617032D01*
X121843614Y-54583552D01*
X121874514Y-54522786D01*
X121878990Y-54512731D01*
X121899817Y-54464649D01*
X121914465Y-54428674D01*
X121920000Y-54411956D01*
X121915926Y-54409423D01*
X121891047Y-54408407D01*
X121851057Y-54412031D01*
X121811952Y-54421158D01*
X121762684Y-54449627D01*
X121734922Y-54490722D01*
X121731164Y-54539810D01*
X121632935Y-54539810D01*
X121634307Y-54475453D01*
X121658155Y-54411133D01*
X121667313Y-54396974D01*
X121695649Y-54364496D01*
X121731495Y-54342284D01*
X121780184Y-54328596D01*
X121847049Y-54321685D01*
X121891047Y-54320772D01*
X121937422Y-54319810D01*
X121976105Y-54320093D01*
G36*
X121935735Y-48194699D02*
G01*
X122005919Y-48195486D01*
X122054822Y-48198190D01*
X122088978Y-48203794D01*
X122114924Y-48213281D01*
X122139197Y-48227632D01*
X122144233Y-48231163D01*
X122183943Y-48268522D01*
X122213892Y-48311089D01*
X122223610Y-48332948D01*
X122239820Y-48411492D01*
X122229335Y-48489169D01*
X122193507Y-48560755D01*
X122133687Y-48621026D01*
X122125673Y-48626114D01*
X122079142Y-48642670D01*
X122014352Y-48653827D01*
X121939527Y-48659240D01*
X121862896Y-48658567D01*
X121792682Y-48651463D01*
X121737112Y-48637585D01*
X121700101Y-48619751D01*
X121642533Y-48569545D01*
X121606762Y-48501515D01*
X121595226Y-48423392D01*
X121731314Y-48423392D01*
X121732435Y-48436960D01*
X121752994Y-48474970D01*
X121799099Y-48500088D01*
X121870313Y-48512152D01*
X121966199Y-48510998D01*
X121972369Y-48510534D01*
X122025278Y-48503771D01*
X122058829Y-48491729D01*
X122081816Y-48471395D01*
X122103348Y-48437303D01*
X122104480Y-48403586D01*
X122079657Y-48368857D01*
X122073125Y-48362816D01*
X122053579Y-48350983D01*
X122025186Y-48343996D01*
X121981230Y-48340673D01*
X121914992Y-48339829D01*
X121852950Y-48341275D01*
X121793842Y-48348493D01*
X121756486Y-48363394D01*
X121736952Y-48387764D01*
X121731314Y-48423392D01*
X121595226Y-48423392D01*
X121594465Y-48418242D01*
X121595131Y-48396002D01*
X121608747Y-48330509D01*
X121643049Y-48276713D01*
X121702138Y-48227343D01*
X121706522Y-48224405D01*
X121730099Y-48211113D01*
X121756749Y-48202468D01*
X121792959Y-48197496D01*
X121845213Y-48195226D01*
X121914992Y-48194722D01*
X121920000Y-48194686D01*
X121935735Y-48194699D01*
G37*
X121935735Y-48194699D02*
X122005919Y-48195486D01*
X122054822Y-48198190D01*
X122088978Y-48203794D01*
X122114924Y-48213281D01*
X122139197Y-48227632D01*
X122144233Y-48231163D01*
X122183943Y-48268522D01*
X122213892Y-48311089D01*
X122223610Y-48332948D01*
X122239820Y-48411492D01*
X122229335Y-48489169D01*
X122193507Y-48560755D01*
X122133687Y-48621026D01*
X122125673Y-48626114D01*
X122079142Y-48642670D01*
X122014352Y-48653827D01*
X121939527Y-48659240D01*
X121862896Y-48658567D01*
X121792682Y-48651463D01*
X121737112Y-48637585D01*
X121700101Y-48619751D01*
X121642533Y-48569545D01*
X121606762Y-48501515D01*
X121595226Y-48423392D01*
X121731314Y-48423392D01*
X121732435Y-48436960D01*
X121752994Y-48474970D01*
X121799099Y-48500088D01*
X121870313Y-48512152D01*
X121966199Y-48510998D01*
X121972369Y-48510534D01*
X122025278Y-48503771D01*
X122058829Y-48491729D01*
X122081816Y-48471395D01*
X122103348Y-48437303D01*
X122104480Y-48403586D01*
X122079657Y-48368857D01*
X122073125Y-48362816D01*
X122053579Y-48350983D01*
X122025186Y-48343996D01*
X121981230Y-48340673D01*
X121914992Y-48339829D01*
X121852950Y-48341275D01*
X121793842Y-48348493D01*
X121756486Y-48363394D01*
X121736952Y-48387764D01*
X121731314Y-48423392D01*
X121595226Y-48423392D01*
X121594465Y-48418242D01*
X121595131Y-48396002D01*
X121608747Y-48330509D01*
X121643049Y-48276713D01*
X121702138Y-48227343D01*
X121706522Y-48224405D01*
X121730099Y-48211113D01*
X121756749Y-48202468D01*
X121792959Y-48197496D01*
X121845213Y-48195226D01*
X121914992Y-48194722D01*
X121920000Y-48194686D01*
X121935735Y-48194699D01*
G36*
X121954298Y-50734881D02*
G01*
X122046941Y-50735402D01*
X122125500Y-50736201D01*
X122186239Y-50737228D01*
X122225423Y-50738437D01*
X122239314Y-50739777D01*
X122239268Y-50740301D01*
X122234220Y-50758113D01*
X122223380Y-50790577D01*
X122207446Y-50836286D01*
X122002973Y-50836286D01*
X121922632Y-50836576D01*
X121864362Y-50837926D01*
X121824709Y-50841031D01*
X121798418Y-50846588D01*
X121780236Y-50855293D01*
X121764907Y-50867844D01*
X121756755Y-50876401D01*
X121734175Y-50922672D01*
X121736175Y-50973672D01*
X121762873Y-51020407D01*
X121769498Y-51027211D01*
X121783256Y-51038107D01*
X121801442Y-51045564D01*
X121828977Y-51050231D01*
X121870781Y-51052758D01*
X121931773Y-51053798D01*
X122016873Y-51054000D01*
X122060034Y-51054097D01*
X122131024Y-51054726D01*
X122187876Y-51055844D01*
X122225628Y-51057337D01*
X122239314Y-51059091D01*
X122239268Y-51059615D01*
X122234220Y-51077427D01*
X122223380Y-51109891D01*
X122207446Y-51155600D01*
X122002037Y-51155577D01*
X121983751Y-51155543D01*
X121888426Y-51153622D01*
X121816343Y-51147722D01*
X121762613Y-51136399D01*
X121722349Y-51118213D01*
X121690661Y-51091721D01*
X121662661Y-51055482D01*
X121645133Y-51020137D01*
X121631585Y-50963627D01*
X121630815Y-50908044D01*
X121643995Y-50865314D01*
X121645815Y-50862102D01*
X121645620Y-50852195D01*
X121630372Y-50845425D01*
X121595413Y-50840539D01*
X121536089Y-50836286D01*
X121414347Y-50829029D01*
X121434244Y-50781857D01*
X121454142Y-50734686D01*
X121851309Y-50734686D01*
X121954298Y-50734881D01*
G37*
X121954298Y-50734881D02*
X122046941Y-50735402D01*
X122125500Y-50736201D01*
X122186239Y-50737228D01*
X122225423Y-50738437D01*
X122239314Y-50739777D01*
X122239268Y-50740301D01*
X122234220Y-50758113D01*
X122223380Y-50790577D01*
X122207446Y-50836286D01*
X122002973Y-50836286D01*
X121922632Y-50836576D01*
X121864362Y-50837926D01*
X121824709Y-50841031D01*
X121798418Y-50846588D01*
X121780236Y-50855293D01*
X121764907Y-50867844D01*
X121756755Y-50876401D01*
X121734175Y-50922672D01*
X121736175Y-50973672D01*
X121762873Y-51020407D01*
X121769498Y-51027211D01*
X121783256Y-51038107D01*
X121801442Y-51045564D01*
X121828977Y-51050231D01*
X121870781Y-51052758D01*
X121931773Y-51053798D01*
X122016873Y-51054000D01*
X122060034Y-51054097D01*
X122131024Y-51054726D01*
X122187876Y-51055844D01*
X122225628Y-51057337D01*
X122239314Y-51059091D01*
X122239268Y-51059615D01*
X122234220Y-51077427D01*
X122223380Y-51109891D01*
X122207446Y-51155600D01*
X122002037Y-51155577D01*
X121983751Y-51155543D01*
X121888426Y-51153622D01*
X121816343Y-51147722D01*
X121762613Y-51136399D01*
X121722349Y-51118213D01*
X121690661Y-51091721D01*
X121662661Y-51055482D01*
X121645133Y-51020137D01*
X121631585Y-50963627D01*
X121630815Y-50908044D01*
X121643995Y-50865314D01*
X121645815Y-50862102D01*
X121645620Y-50852195D01*
X121630372Y-50845425D01*
X121595413Y-50840539D01*
X121536089Y-50836286D01*
X121414347Y-50829029D01*
X121434244Y-50781857D01*
X121454142Y-50734686D01*
X121851309Y-50734686D01*
X121954298Y-50734881D01*
G36*
X122097800Y-48749148D02*
G01*
X122130139Y-48748749D01*
X122238255Y-48747471D01*
X122320986Y-48747215D01*
X122381226Y-48748766D01*
X122421873Y-48752910D01*
X122445823Y-48760436D01*
X122455971Y-48772129D01*
X122455214Y-48788776D01*
X122446448Y-48811164D01*
X122432569Y-48840079D01*
X122429608Y-48846258D01*
X122415111Y-48871987D01*
X122397865Y-48885424D01*
X122369108Y-48890566D01*
X122320083Y-48891410D01*
X122232057Y-48891448D01*
X122232057Y-48982124D01*
X122229615Y-49037902D01*
X122219708Y-49081760D01*
X122199686Y-49118182D01*
X122197729Y-49120897D01*
X122164669Y-49157854D01*
X122124731Y-49183574D01*
X122072457Y-49199794D01*
X122002388Y-49208252D01*
X121909067Y-49210686D01*
X121840969Y-49210147D01*
X121789387Y-49207693D01*
X121753616Y-49202242D01*
X121726815Y-49192714D01*
X121702138Y-49178029D01*
X121683280Y-49164548D01*
X121632368Y-49115601D01*
X121604718Y-49060144D01*
X121595965Y-48990472D01*
X121596576Y-48984891D01*
X121731314Y-48984891D01*
X121732894Y-49002050D01*
X121748566Y-49031740D01*
X121783491Y-49051369D01*
X121840701Y-49062212D01*
X121923230Y-49065543D01*
X121936497Y-49065518D01*
X121996384Y-49064139D01*
X122035532Y-49059713D01*
X122060953Y-49050939D01*
X122079657Y-49036514D01*
X122080550Y-49035616D01*
X122104752Y-49000163D01*
X122102367Y-48965804D01*
X122073060Y-48926997D01*
X122063044Y-48917505D01*
X122042508Y-48903524D01*
X122015797Y-48895640D01*
X121975299Y-48892155D01*
X121913403Y-48891371D01*
X121875930Y-48892050D01*
X121807780Y-48899417D01*
X121763130Y-48916232D01*
X121738726Y-48944166D01*
X121731314Y-48984891D01*
X121596576Y-48984891D01*
X121604690Y-48910736D01*
X121635985Y-48841805D01*
X121691181Y-48787287D01*
X121697024Y-48783177D01*
X121712553Y-48773592D01*
X121730298Y-48766249D01*
X121754090Y-48760788D01*
X121787758Y-48756850D01*
X121835133Y-48754077D01*
X121900045Y-48752108D01*
X121913403Y-48751872D01*
X121986324Y-48750585D01*
X122097800Y-48749148D01*
G37*
X122097800Y-48749148D02*
X122130139Y-48748749D01*
X122238255Y-48747471D01*
X122320986Y-48747215D01*
X122381226Y-48748766D01*
X122421873Y-48752910D01*
X122445823Y-48760436D01*
X122455971Y-48772129D01*
X122455214Y-48788776D01*
X122446448Y-48811164D01*
X122432569Y-48840079D01*
X122429608Y-48846258D01*
X122415111Y-48871987D01*
X122397865Y-48885424D01*
X122369108Y-48890566D01*
X122320083Y-48891410D01*
X122232057Y-48891448D01*
X122232057Y-48982124D01*
X122229615Y-49037902D01*
X122219708Y-49081760D01*
X122199686Y-49118182D01*
X122197729Y-49120897D01*
X122164669Y-49157854D01*
X122124731Y-49183574D01*
X122072457Y-49199794D01*
X122002388Y-49208252D01*
X121909067Y-49210686D01*
X121840969Y-49210147D01*
X121789387Y-49207693D01*
X121753616Y-49202242D01*
X121726815Y-49192714D01*
X121702138Y-49178029D01*
X121683280Y-49164548D01*
X121632368Y-49115601D01*
X121604718Y-49060144D01*
X121595965Y-48990472D01*
X121596576Y-48984891D01*
X121731314Y-48984891D01*
X121732894Y-49002050D01*
X121748566Y-49031740D01*
X121783491Y-49051369D01*
X121840701Y-49062212D01*
X121923230Y-49065543D01*
X121936497Y-49065518D01*
X121996384Y-49064139D01*
X122035532Y-49059713D01*
X122060953Y-49050939D01*
X122079657Y-49036514D01*
X122080550Y-49035616D01*
X122104752Y-49000163D01*
X122102367Y-48965804D01*
X122073060Y-48926997D01*
X122063044Y-48917505D01*
X122042508Y-48903524D01*
X122015797Y-48895640D01*
X121975299Y-48892155D01*
X121913403Y-48891371D01*
X121875930Y-48892050D01*
X121807780Y-48899417D01*
X121763130Y-48916232D01*
X121738726Y-48944166D01*
X121731314Y-48984891D01*
X121596576Y-48984891D01*
X121604690Y-48910736D01*
X121635985Y-48841805D01*
X121691181Y-48787287D01*
X121697024Y-48783177D01*
X121712553Y-48773592D01*
X121730298Y-48766249D01*
X121754090Y-48760788D01*
X121787758Y-48756850D01*
X121835133Y-48754077D01*
X121900045Y-48752108D01*
X121913403Y-48751872D01*
X121986324Y-48750585D01*
X122097800Y-48749148D01*
G36*
X122104783Y-53333656D02*
G01*
X122160645Y-53357976D01*
X122206155Y-53403832D01*
X122225527Y-53440962D01*
X122239092Y-53512689D01*
X122237262Y-53552548D01*
X122227368Y-53589447D01*
X122206606Y-53603603D01*
X122172413Y-53598309D01*
X122167892Y-53596769D01*
X122143916Y-53584558D01*
X122134842Y-53564226D01*
X122135449Y-53525492D01*
X122136274Y-53498143D01*
X122129192Y-53466143D01*
X122108019Y-53444218D01*
X122081952Y-53431730D01*
X122054645Y-53430338D01*
X122054485Y-53430402D01*
X122039730Y-53446593D01*
X122018257Y-53481245D01*
X121994258Y-53526079D01*
X121971925Y-53572818D01*
X121955452Y-53613183D01*
X121949029Y-53638896D01*
X121955318Y-53642721D01*
X121984915Y-53647536D01*
X122033247Y-53650834D01*
X122094172Y-53652057D01*
X122136342Y-53652342D01*
X122189453Y-53653682D01*
X122225825Y-53655872D01*
X122239314Y-53658631D01*
X122234781Y-53673056D01*
X122222470Y-53702174D01*
X122205626Y-53739143D01*
X121989521Y-53739143D01*
X121934127Y-53738907D01*
X121850007Y-53736671D01*
X121787600Y-53730977D01*
X121742158Y-53720497D01*
X121708933Y-53703903D01*
X121683178Y-53679869D01*
X121660144Y-53647067D01*
X121641135Y-53605276D01*
X121629714Y-53528113D01*
X121631020Y-53492905D01*
X121638921Y-53461801D01*
X121658617Y-53432841D01*
X121695284Y-53395569D01*
X121721178Y-53371599D01*
X121754797Y-53346630D01*
X121786306Y-53335369D01*
X121826285Y-53332743D01*
X121891717Y-53332743D01*
X121868642Y-53377365D01*
X121840524Y-53412727D01*
X121802648Y-53436949D01*
X121792351Y-53441109D01*
X121752437Y-53472806D01*
X121732424Y-53516846D01*
X121734372Y-53564869D01*
X121760343Y-53608514D01*
X121781435Y-53626980D01*
X121808419Y-53637737D01*
X121832434Y-53626222D01*
X121856591Y-53590419D01*
X121883999Y-53528310D01*
X121887785Y-53518885D01*
X121912559Y-53462342D01*
X121936989Y-53413820D01*
X121956286Y-53382949D01*
X121990753Y-53352029D01*
X122045757Y-53331473D01*
X122104783Y-53333656D01*
G37*
X122104783Y-53333656D02*
X122160645Y-53357976D01*
X122206155Y-53403832D01*
X122225527Y-53440962D01*
X122239092Y-53512689D01*
X122237262Y-53552548D01*
X122227368Y-53589447D01*
X122206606Y-53603603D01*
X122172413Y-53598309D01*
X122167892Y-53596769D01*
X122143916Y-53584558D01*
X122134842Y-53564226D01*
X122135449Y-53525492D01*
X122136274Y-53498143D01*
X122129192Y-53466143D01*
X122108019Y-53444218D01*
X122081952Y-53431730D01*
X122054645Y-53430338D01*
X122054485Y-53430402D01*
X122039730Y-53446593D01*
X122018257Y-53481245D01*
X121994258Y-53526079D01*
X121971925Y-53572818D01*
X121955452Y-53613183D01*
X121949029Y-53638896D01*
X121955318Y-53642721D01*
X121984915Y-53647536D01*
X122033247Y-53650834D01*
X122094172Y-53652057D01*
X122136342Y-53652342D01*
X122189453Y-53653682D01*
X122225825Y-53655872D01*
X122239314Y-53658631D01*
X122234781Y-53673056D01*
X122222470Y-53702174D01*
X122205626Y-53739143D01*
X121989521Y-53739143D01*
X121934127Y-53738907D01*
X121850007Y-53736671D01*
X121787600Y-53730977D01*
X121742158Y-53720497D01*
X121708933Y-53703903D01*
X121683178Y-53679869D01*
X121660144Y-53647067D01*
X121641135Y-53605276D01*
X121629714Y-53528113D01*
X121631020Y-53492905D01*
X121638921Y-53461801D01*
X121658617Y-53432841D01*
X121695284Y-53395569D01*
X121721178Y-53371599D01*
X121754797Y-53346630D01*
X121786306Y-53335369D01*
X121826285Y-53332743D01*
X121891717Y-53332743D01*
X121868642Y-53377365D01*
X121840524Y-53412727D01*
X121802648Y-53436949D01*
X121792351Y-53441109D01*
X121752437Y-53472806D01*
X121732424Y-53516846D01*
X121734372Y-53564869D01*
X121760343Y-53608514D01*
X121781435Y-53626980D01*
X121808419Y-53637737D01*
X121832434Y-53626222D01*
X121856591Y-53590419D01*
X121883999Y-53528310D01*
X121887785Y-53518885D01*
X121912559Y-53462342D01*
X121936989Y-53413820D01*
X121956286Y-53382949D01*
X121990753Y-53352029D01*
X122045757Y-53331473D01*
X122104783Y-53333656D01*
G36*
X121988878Y-49302716D02*
G01*
X122012187Y-49305322D01*
X122095152Y-49324740D01*
X122158248Y-49359827D01*
X122206608Y-49413188D01*
X122208604Y-49416204D01*
X122236985Y-49484038D01*
X122239511Y-49554865D01*
X122217897Y-49623111D01*
X122173862Y-49683204D01*
X122109122Y-49729571D01*
X122107561Y-49730350D01*
X122067358Y-49745757D01*
X122021666Y-49757043D01*
X121978772Y-49763030D01*
X121946960Y-49762539D01*
X121934514Y-49754393D01*
X121935271Y-49747156D01*
X121949035Y-49712549D01*
X121974346Y-49673322D01*
X122003645Y-49639952D01*
X122029372Y-49622917D01*
X122064271Y-49605208D01*
X122096012Y-49568915D01*
X122108686Y-49526770D01*
X122105021Y-49511323D01*
X122086574Y-49480831D01*
X122060966Y-49454272D01*
X122037734Y-49442914D01*
X122037648Y-49442918D01*
X122026979Y-49455804D01*
X122007733Y-49490159D01*
X121982613Y-49540807D01*
X121954324Y-49602571D01*
X121954174Y-49602911D01*
X121924298Y-49670012D01*
X121902773Y-49714989D01*
X121886237Y-49742255D01*
X121871331Y-49756222D01*
X121854693Y-49761303D01*
X121832962Y-49761910D01*
X121780886Y-49756567D01*
X121710135Y-49730149D01*
X121654535Y-49685927D01*
X121616039Y-49628703D01*
X121596597Y-49563280D01*
X121597710Y-49514246D01*
X121732750Y-49514246D01*
X121734645Y-49556323D01*
X121760432Y-49595395D01*
X121778251Y-49610753D01*
X121791813Y-49614400D01*
X121804749Y-49599609D01*
X121824133Y-49562756D01*
X121824681Y-49561675D01*
X121845387Y-49518195D01*
X121861905Y-49479298D01*
X121868893Y-49454622D01*
X121859553Y-49444724D01*
X121827548Y-49442914D01*
X121787715Y-49450434D01*
X121751517Y-49476503D01*
X121732750Y-49514246D01*
X121597710Y-49514246D01*
X121598159Y-49494463D01*
X121622678Y-49427053D01*
X121672102Y-49365856D01*
X121721012Y-49331950D01*
X121790827Y-49307594D01*
X121827548Y-49303633D01*
X121878855Y-49298101D01*
X121988878Y-49302716D01*
G37*
X121988878Y-49302716D02*
X122012187Y-49305322D01*
X122095152Y-49324740D01*
X122158248Y-49359827D01*
X122206608Y-49413188D01*
X122208604Y-49416204D01*
X122236985Y-49484038D01*
X122239511Y-49554865D01*
X122217897Y-49623111D01*
X122173862Y-49683204D01*
X122109122Y-49729571D01*
X122107561Y-49730350D01*
X122067358Y-49745757D01*
X122021666Y-49757043D01*
X121978772Y-49763030D01*
X121946960Y-49762539D01*
X121934514Y-49754393D01*
X121935271Y-49747156D01*
X121949035Y-49712549D01*
X121974346Y-49673322D01*
X122003645Y-49639952D01*
X122029372Y-49622917D01*
X122064271Y-49605208D01*
X122096012Y-49568915D01*
X122108686Y-49526770D01*
X122105021Y-49511323D01*
X122086574Y-49480831D01*
X122060966Y-49454272D01*
X122037734Y-49442914D01*
X122037648Y-49442918D01*
X122026979Y-49455804D01*
X122007733Y-49490159D01*
X121982613Y-49540807D01*
X121954324Y-49602571D01*
X121954174Y-49602911D01*
X121924298Y-49670012D01*
X121902773Y-49714989D01*
X121886237Y-49742255D01*
X121871331Y-49756222D01*
X121854693Y-49761303D01*
X121832962Y-49761910D01*
X121780886Y-49756567D01*
X121710135Y-49730149D01*
X121654535Y-49685927D01*
X121616039Y-49628703D01*
X121596597Y-49563280D01*
X121597710Y-49514246D01*
X121732750Y-49514246D01*
X121734645Y-49556323D01*
X121760432Y-49595395D01*
X121778251Y-49610753D01*
X121791813Y-49614400D01*
X121804749Y-49599609D01*
X121824133Y-49562756D01*
X121824681Y-49561675D01*
X121845387Y-49518195D01*
X121861905Y-49479298D01*
X121868893Y-49454622D01*
X121859553Y-49444724D01*
X121827548Y-49442914D01*
X121787715Y-49450434D01*
X121751517Y-49476503D01*
X121732750Y-49514246D01*
X121597710Y-49514246D01*
X121598159Y-49494463D01*
X121622678Y-49427053D01*
X121672102Y-49365856D01*
X121721012Y-49331950D01*
X121790827Y-49307594D01*
X121827548Y-49303633D01*
X121878855Y-49298101D01*
X121988878Y-49302716D01*
G36*
X122195927Y-52783588D02*
G01*
X122206227Y-52794080D01*
X122229120Y-52823145D01*
X122236535Y-52852457D01*
X122233121Y-52896074D01*
X122230914Y-52913832D01*
X122226245Y-52959633D01*
X122224385Y-52991657D01*
X122224669Y-53001156D01*
X122227748Y-53040126D01*
X122233121Y-53087240D01*
X122234968Y-53102315D01*
X122235693Y-53140290D01*
X122224229Y-53168075D01*
X122195927Y-53199726D01*
X122149996Y-53245657D01*
X121889855Y-53245657D01*
X121812980Y-53245299D01*
X121739686Y-53244184D01*
X121681650Y-53242448D01*
X121643463Y-53240233D01*
X121629714Y-53237679D01*
X121629751Y-53237144D01*
X121636593Y-53218592D01*
X121651668Y-53187247D01*
X121673622Y-53144792D01*
X121902040Y-53140796D01*
X122130457Y-53136800D01*
X122130457Y-53049714D01*
X121880086Y-53045743D01*
X121812027Y-53044484D01*
X121739282Y-53042682D01*
X121681530Y-53040729D01*
X121643448Y-53038788D01*
X121629714Y-53037023D01*
X121629762Y-53036515D01*
X121634815Y-53018918D01*
X121645649Y-52986566D01*
X121661583Y-52940857D01*
X121881506Y-52940635D01*
X121919709Y-52940412D01*
X121993946Y-52938869D01*
X122055945Y-52936108D01*
X122100108Y-52932423D01*
X122120841Y-52928108D01*
X122131931Y-52912668D01*
X122135356Y-52881159D01*
X122130457Y-52846514D01*
X121880086Y-52842543D01*
X121816463Y-52841122D01*
X121741156Y-52838175D01*
X121682086Y-52834321D01*
X121643518Y-52829858D01*
X121629714Y-52825083D01*
X121634082Y-52806459D01*
X121646558Y-52774626D01*
X121663402Y-52737657D01*
X122149996Y-52737657D01*
X122195927Y-52783588D01*
G37*
X122195927Y-52783588D02*
X122206227Y-52794080D01*
X122229120Y-52823145D01*
X122236535Y-52852457D01*
X122233121Y-52896074D01*
X122230914Y-52913832D01*
X122226245Y-52959633D01*
X122224385Y-52991657D01*
X122224669Y-53001156D01*
X122227748Y-53040126D01*
X122233121Y-53087240D01*
X122234968Y-53102315D01*
X122235693Y-53140290D01*
X122224229Y-53168075D01*
X122195927Y-53199726D01*
X122149996Y-53245657D01*
X121889855Y-53245657D01*
X121812980Y-53245299D01*
X121739686Y-53244184D01*
X121681650Y-53242448D01*
X121643463Y-53240233D01*
X121629714Y-53237679D01*
X121629751Y-53237144D01*
X121636593Y-53218592D01*
X121651668Y-53187247D01*
X121673622Y-53144792D01*
X121902040Y-53140796D01*
X122130457Y-53136800D01*
X122130457Y-53049714D01*
X121880086Y-53045743D01*
X121812027Y-53044484D01*
X121739282Y-53042682D01*
X121681530Y-53040729D01*
X121643448Y-53038788D01*
X121629714Y-53037023D01*
X121629762Y-53036515D01*
X121634815Y-53018918D01*
X121645649Y-52986566D01*
X121661583Y-52940857D01*
X121881506Y-52940635D01*
X121919709Y-52940412D01*
X121993946Y-52938869D01*
X122055945Y-52936108D01*
X122100108Y-52932423D01*
X122120841Y-52928108D01*
X122131931Y-52912668D01*
X122135356Y-52881159D01*
X122130457Y-52846514D01*
X121880086Y-52842543D01*
X121816463Y-52841122D01*
X121741156Y-52838175D01*
X121682086Y-52834321D01*
X121643518Y-52829858D01*
X121629714Y-52825083D01*
X121634082Y-52806459D01*
X121646558Y-52774626D01*
X121663402Y-52737657D01*
X122149996Y-52737657D01*
X122195927Y-52783588D01*
G36*
X121991113Y-52230863D02*
G01*
X122068262Y-52239055D01*
X122126076Y-52256881D01*
X122170222Y-52286425D01*
X122206368Y-52329775D01*
X122227263Y-52371068D01*
X122238890Y-52440413D01*
X122226177Y-52509664D01*
X122190745Y-52572255D01*
X122134218Y-52621621D01*
X122123795Y-52627582D01*
X122105533Y-52635455D01*
X122082229Y-52641294D01*
X122049885Y-52645401D01*
X122004504Y-52648075D01*
X121942087Y-52649619D01*
X121858637Y-52650333D01*
X121750158Y-52650517D01*
X121413401Y-52650571D01*
X121433162Y-52603400D01*
X121438570Y-52590928D01*
X121450785Y-52571076D01*
X121469282Y-52559713D01*
X121501629Y-52553467D01*
X121555393Y-52548971D01*
X121603666Y-52544865D01*
X121635357Y-52539437D01*
X121647183Y-52531661D01*
X121644012Y-52519943D01*
X121632867Y-52490082D01*
X121630104Y-52436716D01*
X121632637Y-52422624D01*
X121733643Y-52422624D01*
X121736998Y-52473360D01*
X121764907Y-52517413D01*
X121775973Y-52526896D01*
X121796809Y-52538461D01*
X121825906Y-52545148D01*
X121870181Y-52548227D01*
X121936548Y-52548971D01*
X121989377Y-52548628D01*
X122037162Y-52546458D01*
X122068009Y-52541093D01*
X122088735Y-52531183D01*
X122106156Y-52515379D01*
X122109505Y-52511676D01*
X122134219Y-52464101D01*
X122131690Y-52413765D01*
X122102088Y-52366883D01*
X122086753Y-52352923D01*
X122066422Y-52341240D01*
X122038314Y-52334714D01*
X121995350Y-52331876D01*
X121930447Y-52331257D01*
X121880922Y-52331563D01*
X121832582Y-52333678D01*
X121801387Y-52339010D01*
X121780447Y-52348940D01*
X121762873Y-52364850D01*
X121754959Y-52374196D01*
X121733643Y-52422624D01*
X121632637Y-52422624D01*
X121640425Y-52379307D01*
X121662661Y-52329775D01*
X121683243Y-52302524D01*
X121723400Y-52267535D01*
X121774886Y-52245126D01*
X121843368Y-52233210D01*
X121930447Y-52229858D01*
X121934514Y-52229702D01*
X121991113Y-52230863D01*
G37*
X121991113Y-52230863D02*
X122068262Y-52239055D01*
X122126076Y-52256881D01*
X122170222Y-52286425D01*
X122206368Y-52329775D01*
X122227263Y-52371068D01*
X122238890Y-52440413D01*
X122226177Y-52509664D01*
X122190745Y-52572255D01*
X122134218Y-52621621D01*
X122123795Y-52627582D01*
X122105533Y-52635455D01*
X122082229Y-52641294D01*
X122049885Y-52645401D01*
X122004504Y-52648075D01*
X121942087Y-52649619D01*
X121858637Y-52650333D01*
X121750158Y-52650517D01*
X121413401Y-52650571D01*
X121433162Y-52603400D01*
X121438570Y-52590928D01*
X121450785Y-52571076D01*
X121469282Y-52559713D01*
X121501629Y-52553467D01*
X121555393Y-52548971D01*
X121603666Y-52544865D01*
X121635357Y-52539437D01*
X121647183Y-52531661D01*
X121644012Y-52519943D01*
X121632867Y-52490082D01*
X121630104Y-52436716D01*
X121632637Y-52422624D01*
X121733643Y-52422624D01*
X121736998Y-52473360D01*
X121764907Y-52517413D01*
X121775973Y-52526896D01*
X121796809Y-52538461D01*
X121825906Y-52545148D01*
X121870181Y-52548227D01*
X121936548Y-52548971D01*
X121989377Y-52548628D01*
X122037162Y-52546458D01*
X122068009Y-52541093D01*
X122088735Y-52531183D01*
X122106156Y-52515379D01*
X122109505Y-52511676D01*
X122134219Y-52464101D01*
X122131690Y-52413765D01*
X122102088Y-52366883D01*
X122086753Y-52352923D01*
X122066422Y-52341240D01*
X122038314Y-52334714D01*
X121995350Y-52331876D01*
X121930447Y-52331257D01*
X121880922Y-52331563D01*
X121832582Y-52333678D01*
X121801387Y-52339010D01*
X121780447Y-52348940D01*
X121762873Y-52364850D01*
X121754959Y-52374196D01*
X121733643Y-52422624D01*
X121632637Y-52422624D01*
X121640425Y-52379307D01*
X121662661Y-52329775D01*
X121683243Y-52302524D01*
X121723400Y-52267535D01*
X121774886Y-52245126D01*
X121843368Y-52233210D01*
X121930447Y-52229858D01*
X121934514Y-52229702D01*
X121991113Y-52230863D01*
G36*
X122239291Y-49900175D02*
G01*
X122225956Y-49935132D01*
X122213123Y-49961303D01*
X122196580Y-49978387D01*
X122171265Y-49988314D01*
X122132116Y-49993014D01*
X122074068Y-49994418D01*
X121992061Y-49994457D01*
X121926695Y-49994656D01*
X121863973Y-49995841D01*
X121821134Y-49998671D01*
X121793020Y-50003791D01*
X121774475Y-50011847D01*
X121760343Y-50023486D01*
X121740400Y-50052097D01*
X121732883Y-50100161D01*
X121751879Y-50147712D01*
X121754311Y-50150850D01*
X121765548Y-50160631D01*
X121783570Y-50167847D01*
X121812826Y-50173101D01*
X121857762Y-50176998D01*
X121922828Y-50180144D01*
X122012470Y-50183143D01*
X122252497Y-50190400D01*
X122224844Y-50252086D01*
X122197191Y-50313771D01*
X121978046Y-50313771D01*
X121918511Y-50313516D01*
X121835692Y-50311314D01*
X121774027Y-50305739D01*
X121728548Y-50295459D01*
X121694284Y-50279142D01*
X121666266Y-50255457D01*
X121639523Y-50223072D01*
X121612580Y-50176493D01*
X121594991Y-50103113D01*
X121602622Y-50029380D01*
X121634480Y-49961590D01*
X121689570Y-49906034D01*
X121706816Y-49894519D01*
X121726362Y-49884968D01*
X121750998Y-49878194D01*
X121785511Y-49873581D01*
X121834689Y-49870512D01*
X121903319Y-49868371D01*
X121996189Y-49866541D01*
X122253807Y-49861996D01*
X122239291Y-49900175D01*
G37*
X122239291Y-49900175D02*
X122225956Y-49935132D01*
X122213123Y-49961303D01*
X122196580Y-49978387D01*
X122171265Y-49988314D01*
X122132116Y-49993014D01*
X122074068Y-49994418D01*
X121992061Y-49994457D01*
X121926695Y-49994656D01*
X121863973Y-49995841D01*
X121821134Y-49998671D01*
X121793020Y-50003791D01*
X121774475Y-50011847D01*
X121760343Y-50023486D01*
X121740400Y-50052097D01*
X121732883Y-50100161D01*
X121751879Y-50147712D01*
X121754311Y-50150850D01*
X121765548Y-50160631D01*
X121783570Y-50167847D01*
X121812826Y-50173101D01*
X121857762Y-50176998D01*
X121922828Y-50180144D01*
X122012470Y-50183143D01*
X122252497Y-50190400D01*
X122224844Y-50252086D01*
X122197191Y-50313771D01*
X121978046Y-50313771D01*
X121918511Y-50313516D01*
X121835692Y-50311314D01*
X121774027Y-50305739D01*
X121728548Y-50295459D01*
X121694284Y-50279142D01*
X121666266Y-50255457D01*
X121639523Y-50223072D01*
X121612580Y-50176493D01*
X121594991Y-50103113D01*
X121602622Y-50029380D01*
X121634480Y-49961590D01*
X121689570Y-49906034D01*
X121706816Y-49894519D01*
X121726362Y-49884968D01*
X121750998Y-49878194D01*
X121785511Y-49873581D01*
X121834689Y-49870512D01*
X121903319Y-49868371D01*
X121996189Y-49866541D01*
X122253807Y-49861996D01*
X122239291Y-49900175D01*
G36*
X122184734Y-51738406D02*
G01*
X122225748Y-51742236D01*
X122239314Y-51748511D01*
X122235252Y-51767502D01*
X122222944Y-51799762D01*
X122219345Y-51807359D01*
X122211198Y-51819224D01*
X122197804Y-51827406D01*
X122174408Y-51832757D01*
X122136255Y-51836131D01*
X122078590Y-51838381D01*
X121996657Y-51840360D01*
X121972707Y-51840902D01*
X121897066Y-51842997D01*
X121844128Y-51845717D01*
X121808875Y-51849885D01*
X121786287Y-51856321D01*
X121771344Y-51865850D01*
X121759027Y-51879294D01*
X121737434Y-51919095D01*
X121733276Y-51968059D01*
X121749799Y-52011871D01*
X121784010Y-52043392D01*
X121832914Y-52055486D01*
X121846207Y-52055822D01*
X121870272Y-52062428D01*
X121873944Y-52081930D01*
X121859613Y-52120117D01*
X121855017Y-52128962D01*
X121827986Y-52152866D01*
X121787794Y-52153339D01*
X121732209Y-52130564D01*
X121701917Y-52109673D01*
X121658884Y-52056258D01*
X121634555Y-51990326D01*
X121631243Y-51919826D01*
X121651267Y-51852709D01*
X121653803Y-51848127D01*
X121682857Y-51810696D01*
X121720210Y-51777230D01*
X121728652Y-51771393D01*
X121748353Y-51760235D01*
X121771735Y-51752264D01*
X121803867Y-51746782D01*
X121849819Y-51743093D01*
X121914659Y-51740501D01*
X122003457Y-51738308D01*
X122018469Y-51737998D01*
X122115799Y-51737000D01*
X122184734Y-51738406D01*
G37*
X122184734Y-51738406D02*
X122225748Y-51742236D01*
X122239314Y-51748511D01*
X122235252Y-51767502D01*
X122222944Y-51799762D01*
X122219345Y-51807359D01*
X122211198Y-51819224D01*
X122197804Y-51827406D01*
X122174408Y-51832757D01*
X122136255Y-51836131D01*
X122078590Y-51838381D01*
X121996657Y-51840360D01*
X121972707Y-51840902D01*
X121897066Y-51842997D01*
X121844128Y-51845717D01*
X121808875Y-51849885D01*
X121786287Y-51856321D01*
X121771344Y-51865850D01*
X121759027Y-51879294D01*
X121737434Y-51919095D01*
X121733276Y-51968059D01*
X121749799Y-52011871D01*
X121784010Y-52043392D01*
X121832914Y-52055486D01*
X121846207Y-52055822D01*
X121870272Y-52062428D01*
X121873944Y-52081930D01*
X121859613Y-52120117D01*
X121855017Y-52128962D01*
X121827986Y-52152866D01*
X121787794Y-52153339D01*
X121732209Y-52130564D01*
X121701917Y-52109673D01*
X121658884Y-52056258D01*
X121634555Y-51990326D01*
X121631243Y-51919826D01*
X121651267Y-51852709D01*
X121653803Y-51848127D01*
X121682857Y-51810696D01*
X121720210Y-51777230D01*
X121728652Y-51771393D01*
X121748353Y-51760235D01*
X121771735Y-51752264D01*
X121803867Y-51746782D01*
X121849819Y-51743093D01*
X121914659Y-51740501D01*
X122003457Y-51738308D01*
X122018469Y-51737998D01*
X122115799Y-51737000D01*
X122184734Y-51738406D01*
G36*
X122058827Y-53826398D02*
G01*
X122130515Y-53827247D01*
X122187725Y-53828689D01*
X122225609Y-53830586D01*
X122239314Y-53832803D01*
X122234781Y-53847228D01*
X122222470Y-53876346D01*
X122222072Y-53877219D01*
X122214156Y-53892340D01*
X122203295Y-53902509D01*
X122184271Y-53908709D01*
X122151869Y-53911922D01*
X122100871Y-53913130D01*
X122026061Y-53913314D01*
X121978604Y-53913686D01*
X121889415Y-53917650D01*
X121824087Y-53926727D01*
X121779193Y-53941876D01*
X121751307Y-53964055D01*
X121737003Y-53994225D01*
X121736006Y-53998410D01*
X121735227Y-54054920D01*
X121760544Y-54098990D01*
X121811302Y-54129428D01*
X121825975Y-54134856D01*
X121858449Y-54147229D01*
X121873372Y-54153495D01*
X121871316Y-54166364D01*
X121860157Y-54194467D01*
X121841727Y-54220679D01*
X121806898Y-54232629D01*
X121781951Y-54229064D01*
X121731347Y-54207165D01*
X121683928Y-54171756D01*
X121651134Y-54130348D01*
X121643552Y-54113000D01*
X121630876Y-54047311D01*
X121635897Y-53977571D01*
X121658155Y-53917647D01*
X121674880Y-53892727D01*
X121698843Y-53867490D01*
X121729326Y-53849488D01*
X121770823Y-53837542D01*
X121827832Y-53830470D01*
X121904847Y-53827092D01*
X122006365Y-53826229D01*
X122058827Y-53826398D01*
G37*
X122058827Y-53826398D02*
X122130515Y-53827247D01*
X122187725Y-53828689D01*
X122225609Y-53830586D01*
X122239314Y-53832803D01*
X122234781Y-53847228D01*
X122222470Y-53876346D01*
X122222072Y-53877219D01*
X122214156Y-53892340D01*
X122203295Y-53902509D01*
X122184271Y-53908709D01*
X122151869Y-53911922D01*
X122100871Y-53913130D01*
X122026061Y-53913314D01*
X121978604Y-53913686D01*
X121889415Y-53917650D01*
X121824087Y-53926727D01*
X121779193Y-53941876D01*
X121751307Y-53964055D01*
X121737003Y-53994225D01*
X121736006Y-53998410D01*
X121735227Y-54054920D01*
X121760544Y-54098990D01*
X121811302Y-54129428D01*
X121825975Y-54134856D01*
X121858449Y-54147229D01*
X121873372Y-54153495D01*
X121871316Y-54166364D01*
X121860157Y-54194467D01*
X121841727Y-54220679D01*
X121806898Y-54232629D01*
X121781951Y-54229064D01*
X121731347Y-54207165D01*
X121683928Y-54171756D01*
X121651134Y-54130348D01*
X121643552Y-54113000D01*
X121630876Y-54047311D01*
X121635897Y-53977571D01*
X121658155Y-53917647D01*
X121674880Y-53892727D01*
X121698843Y-53867490D01*
X121729326Y-53849488D01*
X121770823Y-53837542D01*
X121827832Y-53830470D01*
X121904847Y-53827092D01*
X122006365Y-53826229D01*
X122058827Y-53826398D01*
G36*
X121869928Y-51289401D02*
G01*
X121850108Y-51321708D01*
X121808960Y-51347169D01*
X121800475Y-51349784D01*
X121757251Y-51377922D01*
X121733903Y-51420333D01*
X121732900Y-51469030D01*
X121756714Y-51516027D01*
X121762856Y-51523043D01*
X121789545Y-51546507D01*
X121812814Y-51550381D01*
X121835662Y-51532632D01*
X121861087Y-51491221D01*
X121892088Y-51424114D01*
X121894052Y-51419576D01*
X121928790Y-51345078D01*
X121959563Y-51294197D01*
X121990288Y-51262875D01*
X122024882Y-51247057D01*
X122067262Y-51242686D01*
X122114246Y-51248414D01*
X122174385Y-51277338D01*
X122217588Y-51328222D01*
X122230559Y-51365026D01*
X122237656Y-51416966D01*
X122236140Y-51467401D01*
X122225432Y-51503417D01*
X122222766Y-51507242D01*
X122204137Y-51517402D01*
X122171305Y-51510352D01*
X122145535Y-51498103D01*
X122134806Y-51478461D01*
X122135339Y-51441209D01*
X122132262Y-51389492D01*
X122111012Y-51355699D01*
X122071677Y-51344286D01*
X122070547Y-51344296D01*
X122047713Y-51351213D01*
X122026763Y-51374741D01*
X122002615Y-51420486D01*
X121973541Y-51482696D01*
X121957725Y-51523901D01*
X121958744Y-51547688D01*
X121979637Y-51558803D01*
X122023441Y-51561992D01*
X122093193Y-51562000D01*
X122136252Y-51562356D01*
X122189426Y-51563987D01*
X122225822Y-51566639D01*
X122239314Y-51569978D01*
X122239223Y-51570870D01*
X122231910Y-51590163D01*
X122216478Y-51622116D01*
X122193642Y-51666276D01*
X121987878Y-51661029D01*
X121974232Y-51660664D01*
X121878451Y-51656496D01*
X121806262Y-51649132D01*
X121752858Y-51637070D01*
X121713433Y-51618807D01*
X121683180Y-51592840D01*
X121657293Y-51557667D01*
X121656887Y-51557016D01*
X121635768Y-51500144D01*
X121632200Y-51434367D01*
X121645369Y-51370917D01*
X121674461Y-51321024D01*
X121697127Y-51299075D01*
X121764882Y-51256896D01*
X121838750Y-51242686D01*
X121889570Y-51242686D01*
X121869928Y-51289401D01*
G37*
X121869928Y-51289401D02*
X121850108Y-51321708D01*
X121808960Y-51347169D01*
X121800475Y-51349784D01*
X121757251Y-51377922D01*
X121733903Y-51420333D01*
X121732900Y-51469030D01*
X121756714Y-51516027D01*
X121762856Y-51523043D01*
X121789545Y-51546507D01*
X121812814Y-51550381D01*
X121835662Y-51532632D01*
X121861087Y-51491221D01*
X121892088Y-51424114D01*
X121894052Y-51419576D01*
X121928790Y-51345078D01*
X121959563Y-51294197D01*
X121990288Y-51262875D01*
X122024882Y-51247057D01*
X122067262Y-51242686D01*
X122114246Y-51248414D01*
X122174385Y-51277338D01*
X122217588Y-51328222D01*
X122230559Y-51365026D01*
X122237656Y-51416966D01*
X122236140Y-51467401D01*
X122225432Y-51503417D01*
X122222766Y-51507242D01*
X122204137Y-51517402D01*
X122171305Y-51510352D01*
X122145535Y-51498103D01*
X122134806Y-51478461D01*
X122135339Y-51441209D01*
X122132262Y-51389492D01*
X122111012Y-51355699D01*
X122071677Y-51344286D01*
X122070547Y-51344296D01*
X122047713Y-51351213D01*
X122026763Y-51374741D01*
X122002615Y-51420486D01*
X121973541Y-51482696D01*
X121957725Y-51523901D01*
X121958744Y-51547688D01*
X121979637Y-51558803D01*
X122023441Y-51561992D01*
X122093193Y-51562000D01*
X122136252Y-51562356D01*
X122189426Y-51563987D01*
X122225822Y-51566639D01*
X122239314Y-51569978D01*
X122239223Y-51570870D01*
X122231910Y-51590163D01*
X122216478Y-51622116D01*
X122193642Y-51666276D01*
X121987878Y-51661029D01*
X121974232Y-51660664D01*
X121878451Y-51656496D01*
X121806262Y-51649132D01*
X121752858Y-51637070D01*
X121713433Y-51618807D01*
X121683180Y-51592840D01*
X121657293Y-51557667D01*
X121656887Y-51557016D01*
X121635768Y-51500144D01*
X121632200Y-51434367D01*
X121645369Y-51370917D01*
X121674461Y-51321024D01*
X121697127Y-51299075D01*
X121764882Y-51256896D01*
X121838750Y-51242686D01*
X121889570Y-51242686D01*
X121869928Y-51289401D01*
G36*
X119552639Y-49243343D02*
G01*
X119554442Y-49252560D01*
X119563780Y-49301509D01*
X119576469Y-49369195D01*
X119591073Y-49447922D01*
X119606155Y-49530000D01*
X119612222Y-49562322D01*
X119626981Y-49634545D01*
X119640937Y-49694734D01*
X119652752Y-49737360D01*
X119661087Y-49756890D01*
X119674705Y-49765740D01*
X119710738Y-49781852D01*
X119757372Y-49798335D01*
X119774834Y-49804137D01*
X119832158Y-49825494D01*
X119900001Y-49853041D01*
X119967155Y-49882293D01*
X120002230Y-49897937D01*
X120054622Y-49920226D01*
X120093858Y-49935543D01*
X120113363Y-49941238D01*
X120114836Y-49940922D01*
X120135529Y-49930119D01*
X120175465Y-49905762D01*
X120230772Y-49870319D01*
X120297581Y-49826264D01*
X120372020Y-49776068D01*
X120614423Y-49610899D01*
X120831783Y-49827897D01*
X120852699Y-49848884D01*
X120915305Y-49913058D01*
X120969295Y-49970410D01*
X121011626Y-50017580D01*
X121039257Y-50051208D01*
X121049143Y-50067933D01*
X121041621Y-50086097D01*
X121020027Y-50124135D01*
X120986951Y-50177674D01*
X120944991Y-50242516D01*
X120896743Y-50314460D01*
X120849091Y-50385125D01*
X120807128Y-50448874D01*
X120773965Y-50500887D01*
X120752178Y-50537121D01*
X120744343Y-50553533D01*
X120744414Y-50554495D01*
X120752138Y-50576297D01*
X120770123Y-50614960D01*
X120794813Y-50662788D01*
X120795084Y-50663290D01*
X120826899Y-50726813D01*
X120842442Y-50770340D01*
X120842485Y-50797348D01*
X120827800Y-50811310D01*
X120813344Y-50817220D01*
X120774631Y-50833171D01*
X120715116Y-50857740D01*
X120637965Y-50889621D01*
X120546341Y-50927507D01*
X120443407Y-50970090D01*
X120332326Y-51016063D01*
X120231272Y-51057733D01*
X120127580Y-51100132D01*
X120034919Y-51137644D01*
X119956442Y-51169012D01*
X119895300Y-51192975D01*
X119854643Y-51208277D01*
X119837625Y-51213657D01*
X119822019Y-51203382D01*
X119795962Y-51174837D01*
X119765687Y-51134429D01*
X119686484Y-51037421D01*
X119585275Y-50950607D01*
X119473916Y-50887078D01*
X119355693Y-50847223D01*
X119233895Y-50831435D01*
X119111810Y-50840104D01*
X118992725Y-50873622D01*
X118879929Y-50932379D01*
X118776711Y-51016768D01*
X118736513Y-51060769D01*
X118665438Y-51166189D01*
X118619101Y-51278990D01*
X118596399Y-51395875D01*
X118596228Y-51513547D01*
X118617487Y-51628710D01*
X118659070Y-51738065D01*
X118719876Y-51838317D01*
X118798801Y-51926167D01*
X118894741Y-51998320D01*
X119006595Y-52051478D01*
X119133257Y-52082343D01*
X119194307Y-52088008D01*
X119326576Y-52080215D01*
X119452066Y-52045116D01*
X119568559Y-51983751D01*
X119673839Y-51897157D01*
X119765687Y-51786371D01*
X119794730Y-51747469D01*
X119821072Y-51718296D01*
X119837600Y-51707143D01*
X119852009Y-51711590D01*
X119890615Y-51726022D01*
X119950001Y-51749227D01*
X120027015Y-51779948D01*
X120118503Y-51816926D01*
X120221316Y-51858904D01*
X120332302Y-51904622D01*
X120432872Y-51946222D01*
X120536747Y-51989178D01*
X120629619Y-52027571D01*
X120708325Y-52060095D01*
X120769699Y-52085442D01*
X120810579Y-52102305D01*
X120827800Y-52109375D01*
X120828004Y-52109457D01*
X120842545Y-52123602D01*
X120842379Y-52150741D01*
X120826727Y-52194377D01*
X120794813Y-52258012D01*
X120792126Y-52263021D01*
X120767950Y-52310275D01*
X120750837Y-52347589D01*
X120744343Y-52367267D01*
X120752018Y-52383395D01*
X120773671Y-52419441D01*
X120806728Y-52471308D01*
X120848610Y-52534955D01*
X120896743Y-52606340D01*
X120943931Y-52676676D01*
X120986067Y-52741730D01*
X121019378Y-52795580D01*
X121041269Y-52834026D01*
X121049143Y-52852866D01*
X121048143Y-52856075D01*
X121032384Y-52878446D01*
X120999833Y-52916667D01*
X120953533Y-52967379D01*
X120896526Y-53027219D01*
X120831858Y-53092829D01*
X120614572Y-53309752D01*
X120366053Y-53140799D01*
X120117533Y-52971847D01*
X120006395Y-53023217D01*
X120006066Y-53023369D01*
X119935218Y-53054217D01*
X119856323Y-53085739D01*
X119786400Y-53111134D01*
X119775122Y-53114977D01*
X119722767Y-53134353D01*
X119682083Y-53151826D01*
X119661087Y-53164012D01*
X119658122Y-53168974D01*
X119648175Y-53198766D01*
X119635305Y-53249353D01*
X119620853Y-53315206D01*
X119606155Y-53390800D01*
X119602010Y-53413443D01*
X119586916Y-53495362D01*
X119572699Y-53571800D01*
X119560795Y-53635063D01*
X119552639Y-53677457D01*
X119537599Y-53753657D01*
X119220292Y-53753657D01*
X119181276Y-53753640D01*
X119086092Y-53753318D01*
X119015055Y-53752367D01*
X118964534Y-53750504D01*
X118930898Y-53747445D01*
X118910518Y-53742906D01*
X118899762Y-53736605D01*
X118894999Y-53728257D01*
X118893070Y-53720176D01*
X118886245Y-53687228D01*
X118875822Y-53634664D01*
X118862818Y-53567831D01*
X118848249Y-53492072D01*
X118833133Y-53412735D01*
X118818485Y-53335163D01*
X118805323Y-53264702D01*
X118794663Y-53206698D01*
X118787521Y-53166496D01*
X118784914Y-53149441D01*
X118783341Y-53148288D01*
X118762919Y-53139015D01*
X118723845Y-53122968D01*
X118672429Y-53102765D01*
X118603153Y-53074728D01*
X118523090Y-53040214D01*
X118452528Y-53007862D01*
X118436689Y-53000448D01*
X118387093Y-52979645D01*
X118348838Y-52967181D01*
X118329156Y-52965537D01*
X118327762Y-52966385D01*
X118307220Y-52979852D01*
X118267316Y-53006550D01*
X118211940Y-53043861D01*
X118144977Y-53089166D01*
X118070317Y-53139848D01*
X117985492Y-53196955D01*
X117919600Y-53239793D01*
X117871278Y-53268940D01*
X117837533Y-53286083D01*
X117815372Y-53292905D01*
X117801802Y-53291094D01*
X117800784Y-53290485D01*
X117781010Y-53274103D01*
X117744975Y-53240705D01*
X117696251Y-53193729D01*
X117638412Y-53136614D01*
X117575027Y-53072797D01*
X117510705Y-53006598D01*
X117450247Y-52941752D01*
X117409455Y-52894101D01*
X117387284Y-52862410D01*
X117382689Y-52845442D01*
X117383721Y-52843225D01*
X117397637Y-52819876D01*
X117424830Y-52777488D01*
X117462689Y-52720031D01*
X117508603Y-52651477D01*
X117559960Y-52575799D01*
X117728426Y-52329102D01*
X117677862Y-52217694D01*
X117676397Y-52214457D01*
X117646765Y-52146057D01*
X117617293Y-52073493D01*
X117594158Y-52011943D01*
X117594062Y-52011671D01*
X117576167Y-51962805D01*
X117561053Y-51925188D01*
X117551984Y-51906943D01*
X117551655Y-51906648D01*
X117533082Y-51900454D01*
X117490845Y-51890261D01*
X117429496Y-51877052D01*
X117353589Y-51861810D01*
X117267675Y-51845519D01*
X117264596Y-51844951D01*
X117176928Y-51828687D01*
X117097541Y-51813792D01*
X117031501Y-51801229D01*
X116983879Y-51791962D01*
X116959743Y-51786956D01*
X116958405Y-51786636D01*
X116948073Y-51783340D01*
X116940306Y-51776662D01*
X116934740Y-51762938D01*
X116931007Y-51738505D01*
X116928742Y-51699698D01*
X116927578Y-51642854D01*
X116927148Y-51564310D01*
X116927086Y-51460400D01*
X116927086Y-51447344D01*
X116927171Y-51346467D01*
X116927665Y-51270544D01*
X116928935Y-51215909D01*
X116931347Y-51178900D01*
X116935267Y-51155853D01*
X116941062Y-51143104D01*
X116949099Y-51136989D01*
X116959743Y-51133844D01*
X116960125Y-51133754D01*
X116985147Y-51128586D01*
X117033481Y-51119191D01*
X117100060Y-51106533D01*
X117179814Y-51091575D01*
X117267675Y-51075281D01*
X117274864Y-51073952D01*
X117360140Y-51057709D01*
X117435042Y-51042595D01*
X117495019Y-51029592D01*
X117535517Y-51019685D01*
X117551984Y-51013856D01*
X117552010Y-51013825D01*
X117561120Y-50995457D01*
X117576257Y-50957760D01*
X117594158Y-50908857D01*
X117595130Y-50906103D01*
X117618759Y-50843583D01*
X117648395Y-50770857D01*
X117677862Y-50703106D01*
X117728426Y-50591697D01*
X117559960Y-50345001D01*
X117548111Y-50327625D01*
X117497747Y-50253198D01*
X117453412Y-50186786D01*
X117417716Y-50132361D01*
X117393271Y-50093894D01*
X117382689Y-50075358D01*
X117385115Y-50062657D01*
X117403910Y-50033821D01*
X117441130Y-49989257D01*
X117497820Y-49927730D01*
X117575027Y-49848002D01*
X117582055Y-49840868D01*
X117645022Y-49777604D01*
X117702068Y-49721410D01*
X117749617Y-49675723D01*
X117784097Y-49643986D01*
X117801931Y-49629636D01*
X117802017Y-49629590D01*
X117815595Y-49627767D01*
X117837620Y-49634490D01*
X117871104Y-49651454D01*
X117919061Y-49680356D01*
X117984504Y-49722892D01*
X118070445Y-49780756D01*
X118084951Y-49790617D01*
X118158435Y-49840487D01*
X118223487Y-49884495D01*
X118276217Y-49920020D01*
X118312736Y-49944441D01*
X118329156Y-49955136D01*
X118332634Y-49955942D01*
X118358585Y-49950882D01*
X118400959Y-49935723D01*
X118452528Y-49912937D01*
X118519970Y-49881971D01*
X118599995Y-49847396D01*
X118672429Y-49818034D01*
X118691177Y-49810755D01*
X118739046Y-49791690D01*
X118772396Y-49777685D01*
X118784914Y-49771359D01*
X118785850Y-49764375D01*
X118791261Y-49732987D01*
X118800606Y-49681613D01*
X118812869Y-49615598D01*
X118827032Y-49540287D01*
X118842080Y-49461025D01*
X118856995Y-49383157D01*
X118870761Y-49312030D01*
X118882362Y-49252988D01*
X118890780Y-49211378D01*
X118894999Y-49192543D01*
X118896189Y-49189420D01*
X118902605Y-49181809D01*
X118916265Y-49176146D01*
X118940799Y-49172149D01*
X118979838Y-49169534D01*
X119037013Y-49168016D01*
X119115954Y-49167314D01*
X119220292Y-49167143D01*
X119537599Y-49167143D01*
X119552639Y-49243343D01*
G37*
X119552639Y-49243343D02*
X119554442Y-49252560D01*
X119563780Y-49301509D01*
X119576469Y-49369195D01*
X119591073Y-49447922D01*
X119606155Y-49530000D01*
X119612222Y-49562322D01*
X119626981Y-49634545D01*
X119640937Y-49694734D01*
X119652752Y-49737360D01*
X119661087Y-49756890D01*
X119674705Y-49765740D01*
X119710738Y-49781852D01*
X119757372Y-49798335D01*
X119774834Y-49804137D01*
X119832158Y-49825494D01*
X119900001Y-49853041D01*
X119967155Y-49882293D01*
X120002230Y-49897937D01*
X120054622Y-49920226D01*
X120093858Y-49935543D01*
X120113363Y-49941238D01*
X120114836Y-49940922D01*
X120135529Y-49930119D01*
X120175465Y-49905762D01*
X120230772Y-49870319D01*
X120297581Y-49826264D01*
X120372020Y-49776068D01*
X120614423Y-49610899D01*
X120831783Y-49827897D01*
X120852699Y-49848884D01*
X120915305Y-49913058D01*
X120969295Y-49970410D01*
X121011626Y-50017580D01*
X121039257Y-50051208D01*
X121049143Y-50067933D01*
X121041621Y-50086097D01*
X121020027Y-50124135D01*
X120986951Y-50177674D01*
X120944991Y-50242516D01*
X120896743Y-50314460D01*
X120849091Y-50385125D01*
X120807128Y-50448874D01*
X120773965Y-50500887D01*
X120752178Y-50537121D01*
X120744343Y-50553533D01*
X120744414Y-50554495D01*
X120752138Y-50576297D01*
X120770123Y-50614960D01*
X120794813Y-50662788D01*
X120795084Y-50663290D01*
X120826899Y-50726813D01*
X120842442Y-50770340D01*
X120842485Y-50797348D01*
X120827800Y-50811310D01*
X120813344Y-50817220D01*
X120774631Y-50833171D01*
X120715116Y-50857740D01*
X120637965Y-50889621D01*
X120546341Y-50927507D01*
X120443407Y-50970090D01*
X120332326Y-51016063D01*
X120231272Y-51057733D01*
X120127580Y-51100132D01*
X120034919Y-51137644D01*
X119956442Y-51169012D01*
X119895300Y-51192975D01*
X119854643Y-51208277D01*
X119837625Y-51213657D01*
X119822019Y-51203382D01*
X119795962Y-51174837D01*
X119765687Y-51134429D01*
X119686484Y-51037421D01*
X119585275Y-50950607D01*
X119473916Y-50887078D01*
X119355693Y-50847223D01*
X119233895Y-50831435D01*
X119111810Y-50840104D01*
X118992725Y-50873622D01*
X118879929Y-50932379D01*
X118776711Y-51016768D01*
X118736513Y-51060769D01*
X118665438Y-51166189D01*
X118619101Y-51278990D01*
X118596399Y-51395875D01*
X118596228Y-51513547D01*
X118617487Y-51628710D01*
X118659070Y-51738065D01*
X118719876Y-51838317D01*
X118798801Y-51926167D01*
X118894741Y-51998320D01*
X119006595Y-52051478D01*
X119133257Y-52082343D01*
X119194307Y-52088008D01*
X119326576Y-52080215D01*
X119452066Y-52045116D01*
X119568559Y-51983751D01*
X119673839Y-51897157D01*
X119765687Y-51786371D01*
X119794730Y-51747469D01*
X119821072Y-51718296D01*
X119837600Y-51707143D01*
X119852009Y-51711590D01*
X119890615Y-51726022D01*
X119950001Y-51749227D01*
X120027015Y-51779948D01*
X120118503Y-51816926D01*
X120221316Y-51858904D01*
X120332302Y-51904622D01*
X120432872Y-51946222D01*
X120536747Y-51989178D01*
X120629619Y-52027571D01*
X120708325Y-52060095D01*
X120769699Y-52085442D01*
X120810579Y-52102305D01*
X120827800Y-52109375D01*
X120828004Y-52109457D01*
X120842545Y-52123602D01*
X120842379Y-52150741D01*
X120826727Y-52194377D01*
X120794813Y-52258012D01*
X120792126Y-52263021D01*
X120767950Y-52310275D01*
X120750837Y-52347589D01*
X120744343Y-52367267D01*
X120752018Y-52383395D01*
X120773671Y-52419441D01*
X120806728Y-52471308D01*
X120848610Y-52534955D01*
X120896743Y-52606340D01*
X120943931Y-52676676D01*
X120986067Y-52741730D01*
X121019378Y-52795580D01*
X121041269Y-52834026D01*
X121049143Y-52852866D01*
X121048143Y-52856075D01*
X121032384Y-52878446D01*
X120999833Y-52916667D01*
X120953533Y-52967379D01*
X120896526Y-53027219D01*
X120831858Y-53092829D01*
X120614572Y-53309752D01*
X120366053Y-53140799D01*
X120117533Y-52971847D01*
X120006395Y-53023217D01*
X120006066Y-53023369D01*
X119935218Y-53054217D01*
X119856323Y-53085739D01*
X119786400Y-53111134D01*
X119775122Y-53114977D01*
X119722767Y-53134353D01*
X119682083Y-53151826D01*
X119661087Y-53164012D01*
X119658122Y-53168974D01*
X119648175Y-53198766D01*
X119635305Y-53249353D01*
X119620853Y-53315206D01*
X119606155Y-53390800D01*
X119602010Y-53413443D01*
X119586916Y-53495362D01*
X119572699Y-53571800D01*
X119560795Y-53635063D01*
X119552639Y-53677457D01*
X119537599Y-53753657D01*
X119220292Y-53753657D01*
X119181276Y-53753640D01*
X119086092Y-53753318D01*
X119015055Y-53752367D01*
X118964534Y-53750504D01*
X118930898Y-53747445D01*
X118910518Y-53742906D01*
X118899762Y-53736605D01*
X118894999Y-53728257D01*
X118893070Y-53720176D01*
X118886245Y-53687228D01*
X118875822Y-53634664D01*
X118862818Y-53567831D01*
X118848249Y-53492072D01*
X118833133Y-53412735D01*
X118818485Y-53335163D01*
X118805323Y-53264702D01*
X118794663Y-53206698D01*
X118787521Y-53166496D01*
X118784914Y-53149441D01*
X118783341Y-53148288D01*
X118762919Y-53139015D01*
X118723845Y-53122968D01*
X118672429Y-53102765D01*
X118603153Y-53074728D01*
X118523090Y-53040214D01*
X118452528Y-53007862D01*
X118436689Y-53000448D01*
X118387093Y-52979645D01*
X118348838Y-52967181D01*
X118329156Y-52965537D01*
X118327762Y-52966385D01*
X118307220Y-52979852D01*
X118267316Y-53006550D01*
X118211940Y-53043861D01*
X118144977Y-53089166D01*
X118070317Y-53139848D01*
X117985492Y-53196955D01*
X117919600Y-53239793D01*
X117871278Y-53268940D01*
X117837533Y-53286083D01*
X117815372Y-53292905D01*
X117801802Y-53291094D01*
X117800784Y-53290485D01*
X117781010Y-53274103D01*
X117744975Y-53240705D01*
X117696251Y-53193729D01*
X117638412Y-53136614D01*
X117575027Y-53072797D01*
X117510705Y-53006598D01*
X117450247Y-52941752D01*
X117409455Y-52894101D01*
X117387284Y-52862410D01*
X117382689Y-52845442D01*
X117383721Y-52843225D01*
X117397637Y-52819876D01*
X117424830Y-52777488D01*
X117462689Y-52720031D01*
X117508603Y-52651477D01*
X117559960Y-52575799D01*
X117728426Y-52329102D01*
X117677862Y-52217694D01*
X117676397Y-52214457D01*
X117646765Y-52146057D01*
X117617293Y-52073493D01*
X117594158Y-52011943D01*
X117594062Y-52011671D01*
X117576167Y-51962805D01*
X117561053Y-51925188D01*
X117551984Y-51906943D01*
X117551655Y-51906648D01*
X117533082Y-51900454D01*
X117490845Y-51890261D01*
X117429496Y-51877052D01*
X117353589Y-51861810D01*
X117267675Y-51845519D01*
X117264596Y-51844951D01*
X117176928Y-51828687D01*
X117097541Y-51813792D01*
X117031501Y-51801229D01*
X116983879Y-51791962D01*
X116959743Y-51786956D01*
X116958405Y-51786636D01*
X116948073Y-51783340D01*
X116940306Y-51776662D01*
X116934740Y-51762938D01*
X116931007Y-51738505D01*
X116928742Y-51699698D01*
X116927578Y-51642854D01*
X116927148Y-51564310D01*
X116927086Y-51460400D01*
X116927086Y-51447344D01*
X116927171Y-51346467D01*
X116927665Y-51270544D01*
X116928935Y-51215909D01*
X116931347Y-51178900D01*
X116935267Y-51155853D01*
X116941062Y-51143104D01*
X116949099Y-51136989D01*
X116959743Y-51133844D01*
X116960125Y-51133754D01*
X116985147Y-51128586D01*
X117033481Y-51119191D01*
X117100060Y-51106533D01*
X117179814Y-51091575D01*
X117267675Y-51075281D01*
X117274864Y-51073952D01*
X117360140Y-51057709D01*
X117435042Y-51042595D01*
X117495019Y-51029592D01*
X117535517Y-51019685D01*
X117551984Y-51013856D01*
X117552010Y-51013825D01*
X117561120Y-50995457D01*
X117576257Y-50957760D01*
X117594158Y-50908857D01*
X117595130Y-50906103D01*
X117618759Y-50843583D01*
X117648395Y-50770857D01*
X117677862Y-50703106D01*
X117728426Y-50591697D01*
X117559960Y-50345001D01*
X117548111Y-50327625D01*
X117497747Y-50253198D01*
X117453412Y-50186786D01*
X117417716Y-50132361D01*
X117393271Y-50093894D01*
X117382689Y-50075358D01*
X117385115Y-50062657D01*
X117403910Y-50033821D01*
X117441130Y-49989257D01*
X117497820Y-49927730D01*
X117575027Y-49848002D01*
X117582055Y-49840868D01*
X117645022Y-49777604D01*
X117702068Y-49721410D01*
X117749617Y-49675723D01*
X117784097Y-49643986D01*
X117801931Y-49629636D01*
X117802017Y-49629590D01*
X117815595Y-49627767D01*
X117837620Y-49634490D01*
X117871104Y-49651454D01*
X117919061Y-49680356D01*
X117984504Y-49722892D01*
X118070445Y-49780756D01*
X118084951Y-49790617D01*
X118158435Y-49840487D01*
X118223487Y-49884495D01*
X118276217Y-49920020D01*
X118312736Y-49944441D01*
X118329156Y-49955136D01*
X118332634Y-49955942D01*
X118358585Y-49950882D01*
X118400959Y-49935723D01*
X118452528Y-49912937D01*
X118519970Y-49881971D01*
X118599995Y-49847396D01*
X118672429Y-49818034D01*
X118691177Y-49810755D01*
X118739046Y-49791690D01*
X118772396Y-49777685D01*
X118784914Y-49771359D01*
X118785850Y-49764375D01*
X118791261Y-49732987D01*
X118800606Y-49681613D01*
X118812869Y-49615598D01*
X118827032Y-49540287D01*
X118842080Y-49461025D01*
X118856995Y-49383157D01*
X118870761Y-49312030D01*
X118882362Y-49252988D01*
X118890780Y-49211378D01*
X118894999Y-49192543D01*
X118896189Y-49189420D01*
X118902605Y-49181809D01*
X118916265Y-49176146D01*
X118940799Y-49172149D01*
X118979838Y-49169534D01*
X119037013Y-49168016D01*
X119115954Y-49167314D01*
X119220292Y-49167143D01*
X119537599Y-49167143D01*
X119552639Y-49243343D01*
%TD*%
M02*
