M48
; DRILL file {KiCad (6.0.9)} date Thu May 25 17:56:45 2023
; FORMAT={-:-/ absolute / metric / decimal}
; #@! TF.CreationDate,2023-05-25T17:56:45+02:00
; #@! TF.GenerationSoftware,Kicad,Pcbnew,(6.0.9)
; #@! TF.FileFunction,Plated,1,2,PTH
FMAT,2
METRIC
; #@! TA.AperFunction,Plated,PTH,ViaDrill
T1C0.300
; #@! TA.AperFunction,Plated,PTH,ViaDrill
T2C0.400
; #@! TA.AperFunction,Plated,PTH,ComponentDrill
T3C0.600
; #@! TA.AperFunction,Plated,PTH,ComponentDrill
T4C1.000
%
G90
G05
T1
X89.027Y-52.324
X89.027Y-53.213
X89.916Y-52.324
X89.916Y-53.213
X95.758Y-38.862
X95.758Y-39.751
X96.647Y-38.862
X96.647Y-39.751
X97.104Y-52.197
X97.104Y-53.086
X97.993Y-52.197
X97.993Y-53.086
X100.33Y-45.212
X100.33Y-49.149
X100.33Y-50.038
X100.33Y-51.562
X102.362Y-44.323
X102.87Y-48.387
X102.997Y-49.403
X103.073Y-45.923
X103.48Y-46.787
X103.759Y-45.339
X103.759Y-48.387
X103.759Y-49.784
X104.267Y-43.053
X104.267Y-52.197
X104.267Y-53.086
X104.648Y-45.339
X105.156Y-43.053
X105.156Y-52.197
X105.156Y-53.086
X105.512Y-50.394
X106.68Y-46.482
X106.68Y-47.371
X107.569Y-46.482
X107.569Y-47.371
X107.569Y-62.484
X108.458Y-62.484
X109.982Y-43.18
X110.363Y-55.118
X110.363Y-56.007
X111.252Y-55.118
X111.252Y-56.007
X111.887Y-43.053
X113.157Y-58.42
X115.316Y-50.927
X115.697Y-60.452
X116.586Y-43.18
X117.094Y-44.577
X124.714Y-52.832
T2
X121.793Y-64.135
T4
X99.324Y-38.608
X99.324Y-64.008
X100.584Y-55.154
X100.584Y-57.694
X100.584Y-60.234
X101.864Y-38.608
X101.864Y-64.008
X104.404Y-38.608
X104.404Y-64.008
X104.521Y-55.118
X104.521Y-57.658
X104.521Y-60.198
X106.944Y-38.608
X106.944Y-64.008
X108.458Y-55.118
X108.458Y-57.658
X108.458Y-60.198
X109.484Y-38.608
X109.484Y-64.008
X112.024Y-38.608
X112.024Y-64.008
X114.564Y-38.608
X114.564Y-64.008
X117.104Y-38.608
X117.104Y-64.008
X119.644Y-38.608
X119.644Y-64.008
X126.766Y-61.93
X127.64Y-39.736
X127.64Y-42.276
X127.64Y-44.816
X129.266Y-61.93
X130.18Y-39.736
X130.18Y-42.276
X130.18Y-44.816
T3
G00X127.347Y-48.639
M15
G01X126.247Y-48.639
M16
G05
G00X127.347Y-57.279
M15
G01X126.247Y-57.279
M16
G05
G00X131.367Y-48.639
M15
G01X130.567Y-48.639
M16
G05
G00X131.367Y-57.279
M15
G01X130.567Y-57.279
M16
G05
T4
G00X89.662Y-45.54
M15
G01X89.662Y-47.54
M16
G05
G00X91.662Y-51.24
M15
G01X93.662Y-51.24
M16
G05
G00X95.662Y-45.54
M15
G01X95.662Y-47.54
M16
G05
T0
M30
